<mxfile host="Electron" modified="2024-03-03T09:30:02.089Z" agent="Mozilla/5.0 (Macintosh; Intel Mac OS X 10_15_7) AppleWebKit/537.36 (KHTML, like Gecko) draw.io/23.1.5 Chrome/120.0.6099.109 Electron/28.1.0 Safari/537.36" etag="OLD15ScvFFAuLMIIrADu" version="23.1.5" type="device">
  <diagram name="Page-1" id="PO6AWBiZqA4K_4CGN0Es">
    <mxGraphModel dx="909" dy="642" grid="0" gridSize="10" guides="1" tooltips="1" connect="1" arrows="1" fold="1" page="1" pageScale="1" pageWidth="1200" pageHeight="1600" math="1" shadow="0">
      <root>
        <mxCell id="0" />
        <mxCell id="ntlW8NFhvoEF-g6CEwiz-96" value="Boxes" style="locked=1;" parent="0" />
        <mxCell id="ntlW8NFhvoEF-g6CEwiz-338" value="" style="rounded=1;whiteSpace=wrap;html=1;labelBackgroundColor=none;fillColor=#d5e8d4;strokeWidth=3;dashed=1;dashPattern=1 1;strokeColor=#82b366;" parent="ntlW8NFhvoEF-g6CEwiz-96" vertex="1">
          <mxGeometry x="310" y="333" width="210" height="110" as="geometry" />
        </mxCell>
        <mxCell id="ntlW8NFhvoEF-g6CEwiz-339" value="" style="rounded=1;whiteSpace=wrap;html=1;labelBackgroundColor=none;fillColor=#f8cecc;strokeWidth=3;dashed=1;dashPattern=1 1;strokeColor=#b85450;" parent="ntlW8NFhvoEF-g6CEwiz-96" vertex="1">
          <mxGeometry x="590" y="331.79" width="240" height="112.21" as="geometry" />
        </mxCell>
        <mxCell id="ntlW8NFhvoEF-g6CEwiz-340" value="" style="rounded=1;whiteSpace=wrap;html=1;labelBackgroundColor=none;fillColor=#e1d5e7;strokeWidth=3;dashed=1;dashPattern=1 1;strokeColor=#9673a6;" parent="ntlW8NFhvoEF-g6CEwiz-96" vertex="1">
          <mxGeometry x="531" y="332.68" width="49" height="112.21" as="geometry" />
        </mxCell>
        <mxCell id="ntlW8NFhvoEF-g6CEwiz-32" value="Basic Area" style="" parent="0" />
        <mxCell id="PvffXtldvGFclzvf1Mkj-34" value="signal" style="" parent="0" />
        <mxCell id="PvffXtldvGFclzvf1Mkj-47" value="" style="shape=image;verticalLabelPosition=bottom;labelBackgroundColor=default;verticalAlign=top;imageAspect=0;image=data:image/png,iVBORw0KGgoAAAANSUhEUgAABI8AAANrCAIAAABA5S9PAAAACXBIWXMAABcSAAAXEgFnn9JSAAAAB3RJTUUH6AIcDAIakILqlAAAACR0RVh0U29mdHdhcmUATUFUTEFCLCBUaGUgTWF0aFdvcmtzLCBJbmMuPFjdGAAAACJ0RVh0Q3JlYXRpb24gVGltZQAyOC1GZWItMjAyNCAyMTowMjoyNrhQjsAAACAASURBVHic7d1NqB73fejxsTkGy+AiJdKmuGAdmQTbEtS1oI4XtlJEssumuSFa3oVf6Kb3NptSL2wvUrpxm26KX+5exqSb7HwRN44XjgtyfUGyTUIsGW7oRnZ9aMAK5IDuYnRGc+btmed55uU3M58PIRwfnXM0es7zzDPf+f/nP3fdunUrAQAAIJi7x94AAAAAKqg1AACAiNQaAABARGoNAAAgIrUGAAAQkVoDAACISK0BAABEpNYAAAAiUmsAAAARqTUAAICI1BoAAEBEag0AACAitQYAABCRWgMAAIhIrQEAAESk1gAAACJSawAAABGpNQAAgIjUGgAAQERqDQAAICK1BgAAEJFaAwAAiEitAQAARKTWAAAAIlJrAAAAEak1AACAiNQaAABARGoNAAAgIrUGAAAQkVoDAACISK0BAABEpNYAAAAiUmsAAAARqTUAAICI1BoAAEBEag0AACAitQYAABCRWgMAAIhIrQEAAESk1gAAACJSawAAABGpNQAAgIjUGgAAQERqDQAAICK1BgAAEJFaAwAAiEitAQAARKTWAAAAIlJrAAAAEak1AACAiNQaAABARGoNAAAgIrUGAAAQkVoDAACISK0BAABEpNYAAAAiUmsAAAARqTUAAICI1BoAAEBEag0AACAitQYAABCRWgMAAIhIrQEAAESk1gAAACJSawAAABGpNQAAgIjUGgAAQERqDQAAICK1BgAAEJFaAwAAiEitAQAARKTWAAAAIlJrAAAAEak1AACAiNQaAABARGoNAAAgIrUGAAAQkVoDAACISK0BAABEpNYAAAAiUmsAAAARqTUAAICI1BoAAEBEag0AACAitQYAABCRWgMAAIhoZ+wNAAjhyt7+m9dvXtnbT5LkzNGd08fuufDgvWNvFACwaHfdunVr7G0AGN8LH/4uTbW8CyePaDYGk50sGHtDAIjCTEiAWle//MPYm8CCvHn95tibAEAsTuABi1YeTwMACMJMSGDRvvfzL5u/IJ2W5jI2+nNlb//q3v7FwwNrP37sflMiAfBOACzXxc9+n//PM0d3Lpw8khwMuKVHz+nHV/b2Tx/dcfRMH1748HflT755/eaZx+4ffmMACMWRB7BchcvSTh+753Q6knZ0J0mSM0d3/i53GO3omT5crZmLe2Vv/8revhMEAAtnlRFguQoXrZ1uPDJOj5573iIWx5MKgAZqDVio8phGYRzD1EfGZYlIANQasFCFMY02YVY3aQ025i4RADRQawBJkiSnj92z8pMOrOlcw0xIkyQBUGsAtcyEBABGpNaAhdpgoMxYB91aObfWUw5g4dQasFBtFoQsf9LRMwAwGLUGAOMoL3Vj8i0AeWoNIEnqL1Fz9MyILEMKsHBqDViijQ+CHT3Tn8qFSQFYMrU2Ey98+LuxNwHmySL+DMnzDYA8tTYfTvlDexvcGhs6J8YAaKbWAAAqOA0KjM7p5Dl44cPfXdnbT67fTP/zhyePGCiArpw5unNx7G1gIU4f3bkrSTzfIkiH36/u7d9KkiQ3/F6+h4c3XKBXdjFzcPrYPVf29u+8hVy/eeax+0fdIpiY9qs7uN8aHfJ0iuniZ7+/eHACNPWzbx9LP7i6t5//ozNHd7zhAr0yE3IOLjx4b/4/D5UbUMX1QkyCnXkQfhHAWNTaTBRmYphqD105XZrm5LiNnphTF4SzOUAcam0mLpw8kv9P7zQAwTmtNgPO3QB9U2vzZDIkwBSVx3KJQFoDY1FrM3H66I4pNNBe4XSGQ2TCcupteOXHPJuxYuoKMDC1NltvHl7PCtiYUyH0wS3aAVjJe8N8XDh55MqHvxt7KwBmorBWe+JullQNu13Z2/esAPpj/zJbJs9AT646OFuMwo70h4P8pWeO7tiBA5BywDEf6aVr+fd4J/ygJa8UyiouXupzp9r+Fu1AZFf39v/u8Fyn7O7qsAHXrc2ZNaygkpcGEbRcr8LTNQKjncBY1NqsFE7NWroKANYij4FQ1NqsFKboOBcInXAehAG4jcREqTugV2ptVspv9oINYDN9Z3nd/tnZAbYkIKNxMMY21NrcWCwBVnKfKwLyPAzOATcwCu8NM2epcdjemaM7F8feBobX69G50Y8pqvytXf3yD8mD9w6/MZWu7O1f3du/+uUfshHaC2G2DdiM4/i5OX3snvwRRqh3EYhp3ZXTnWJnew3PImcHxjXpF/gLBwvHZ/8KtQZTZybk3FhoBFZa90Igyz+Q6u8SsoZJEHbjtHTxs9+XP+n5E4GxdLah1ubGQiMwAC+r2Rv46Mqtsacr+N5AJ8DUOWE8Q2eO7gR/85i9wuN/tTA3NUl+ePKI6wlHVPgFtRk6K7ysXBHKli5ev1n3R5Un3TzfIgvyC6oc+3VBBEzd+DsX+vbm9ZtnHrt/7K2Yg+xgPauv/FvjWoX8ww43izWVzzS3Ocy6cPLIlYMLQpKDQ20XhNAVz6U46ua7TnSQ6sre/sXPfu8JNiRnzOmWWpuhwmElbRRKbOMMayl71087oe6vaDg4GOYWTG1mZzUMTEU42ZyXPs5vHh7TuHDySJvvPX1058LJI/nxkIvXb168fvPM0Z3Tx+45fXQn2j+WLfV6vFW4vqj85DFFYmD5R3uDRz7IYHvtW4nhNZiy8XcudO50aaGRIJM0xlKYwJbkUmes46GGSVChDPD4DPDMbP5XtN+ACw/em37x3+XOhqSvr+xHpX0r3ljLytMipkise0qr4XxWLyfgAuTQRIf+FqLwDKk8KuvjUK38Mzf+WxZ+JDkuj/s8Fc7LzvudPmCM0d5Yv6MfP3b/Bm88zVe45cstEW/UuPjZ7wvna8qz1GYwRaLypV0oisqmCrLf/vvH7r94/Wbhjjh1XZ2+9q/u7Zdf7Nnn0/9PejtF1fC4ZbsmO6JoGhIoe8I0fKYTlT9Wm4XiNzFPhXf6IG9+m2m4Wiz+v6uwszt97J504+NvOQ1azlIrxFui3yalp8nGFalWNRe3PEVimEuPViZW5L7qVjr5+UrNQHrZm9dvpge4L+ztZ7Omsw/SnUb6qn/hcDhl7ws/PHmkULNp4+U/zv9/9vk3r9/Mfkgm+/np33v7a3InNLN9UeHr6cMsXyMMxotzntJjwcJE/FD74spVE/u+WqwT+YcxO8966JPNj/OD9yZVR2xMyI8fuz+97mjdX6LBt6nbeL90ZW8/vWAyP8Rx+tg9DQFWeZ1kcvgof+XfO/CEwJlJg61wii3fXWkjNTySzecWs0/e/uBgKC97+84/B/Lhl/9L0y8u/PwLJ49cePDe7I0m/dMre/vpP6cwYFjYKaX/usIxQ6EG0+feyjOnQXZrQZ7qFz/7ff4xfLP0QeHjss0O5Mo/s/lv2f4b86yA3Ym7bt26NfY20Iure/vZbjrd86a7721+ZvMurzxpvnCgEGSP2aBwGLRGg61pZa017N3Gui/TPA770gf2wskjXf1CN8u2Ovotju/9/MvKz//s28fafHt+SZvCgXX6QZuDmKsHB9lO7gwj+42UdxHZ8yF9kZ45upN9QfpH+TOk5dzK/+pX7jArvzj/o5LSXrfQkPn3+u/9/Mu6b0k/KNdawybBWrY/8iQxtjZjp4/upCfDsp14emp241fO1b39F6Z8HUV5TOxOmw1+WJytVzHK376hLXa4bS5/7+NQoDgTtYeHOn01XTgYMk1K56rX0jB5MpFwMbzw4e9+eDB3sXAQfHVvv3mq87pPjOwZe3GzbZ21utdC3fms2q9f/zXV8B6avuGePnZPXfMUvrLyg+x78z+n7nxZ/tsLGZn6+8fuT78ge2Qa4r+rp25Mlc+B/FjiysGr8hc3/H9v/w4Wxxv/nF148N6rpV1GNp0mvVhiTsd/dSNjMXMo5lb1pM0/dgYPyO1juAfvTZLk6kF3bRNvSc2lMobg+lY+v5BNIbuyt58cntPY/vebffECZweV/73lrKp8TILsGQoTUwt/lE47rPzT7NW6wfMkr64Ai39X+XE+upNd59Z+WK/l5yfkzNGdbMg0fwVgXa1la280f3Hz/6c/qjxQ//cHC78FeXoTnGfJzKW76ReqzsmV33jqLocY5tZezUKNjMFKp7PDpoPT8F31W1IzBJccXjZgaTHQlfwMxkx5ItnGv8H8IWNL2dVTwx8uNydWh6NV8V148N66IbU7A+wHZ2qSJEnXYT59dCfbA1zI7Qpuf+bgiXRn/PzYPYWVJ7MH+czRnau5l3nm9LF70iG1pPGRP33wBVf39pPDC9tMPcOmaJavEfrjurVFSK9tjblHbl60wx6Nueow3hqYSFmWn7iYtFtjNh08uXIwG7zyCqVmG0RapaulUK88m9Z8deuiKov2ykPKzc/t9vuTCIcf+aAt3FOhUuXY2mZ/dfkqkh/P96ZK9EGtLUV/ixC2vHigvxU7YB6G6bdUvuKS6QzHrXxYGm7ntcFDmp9ukA6MZAs2JC1mQna+pA0AC6TWlmWbQbb03HCitWAo+X5Lxjg/febwzKvRb81Ut05jTyrXZEp/KdmONL/GQ5IkbeakAUB7am2hNli87szRHWP3MK78UgERpjdXXuyaD5Vuuy5CrQHAkNQaSXL4EPDOJw9fDtF8I1dgLPlrmSIkXIM2CwM2GOa2Yw033QKAgak1gBkqjMIlMS70j2NaN/wAYLHUGsCCFAbSZxNy7dea12MATIhaA+CQbGXFaFHnlrIALI1aA2Bt5Ytdt1wuv42ffftYHz8WAMJyehKAtZ0ur1NfswpR4R5odSFXeZdnAFg4Y2sAAAAR3T32BgAAAFBBrQEAAESk1gAAACJSawAAABGpNQAAgIjUGgAAQERqDQAAICK1BgAAEJFaAwAAiEitAQAARKTWAAAAIlJrAAAAEak1AACAiNQaAABARGoNAAAgIrUGAAAQkVoDAACISK0BAABEpNYAAAAiUmsAAAARqTUAAICI1BoAAEBEag0AACAitQYAABCRWgMAAIhIrQEAAESk1gAAACJSawAAABGpNQAAgIjUGgAAQERqDQAAICK1BgAAEJFaAwAAiEitAQAARKTWAAAAIlJrAAAAEak1AACAiNQaAABARGoNAAAgIrUGAAAQkVoDAACISK0BAABEpNYAAAAiUmsAAAARqTUAAICI1BoAAEBEag0AACAitQYAABCRWgMAAIhIrQEAAES0M/YGAARy7cblazcupx+ff+T5cTcGAFi4u27dujX2NgCM79qNy6+/+0zhk+cffk6zAQBjMRMSIEmSJBtSO/TJzz8YfksAAFJqDQAAICIzIYFFu3bj8qVPXss+Ln/B7omzSZLsHn/clEgAYGBqDVi0v/3Xx/L/mbXZtc8/KMTbs0+9kf4pAMAwrAkJLNelj18tfObZp97IPn793WfywXbtxmW1BgAMyXVrALedf/i5sTcBAOAOtQYslyUfAYDI1BqwXIUr0woTHQtDbdIOABiYWgMWqrwCZPNlaZUrRgIA9EetAQvVPLBW+RnBBgAMSa0B1CoEm1oDAIak1gCSJEl2jz++8mtcukavnA4AoECtAQvVJr3aJBx05fV3nynfAxCAJVNrALXcDhsAGNHO2BsAMI6Vq4ys/BboxLUbl7On1rXPP7j08au7J846UwBAotYAGjhiZgCvv/tM9vHtcvvktd0TZ5996o0RtwqACMyEBEiS1mFmeI1u1V2olh9wA2Cx1BqwRI6Die/SJ6+NvQkAjEytATQxGZJeuS0EAA3UGsAaDMrRrYZnlCcbAGoNWKINFoSE4Qk2gIWzJuS0OeKEvu0efzz/QjNvjQ6JMQCaqbVpu3bjcv4ydCs+A0xI5Rk3CQdAxkzIWfEeD5vZPf742JsAFezVx+XxB0ZnbG3adk+cPZ8kSZJc+/wDbyrQh90TZxMLqTOI3eOPF6bamnkLsHBqbdp2T5xNZ868/u4zY28LTMnGB8FOi9Ch8vOwcJ0kY0nvWn7t8w92b1xOkuT8I89nn8//1naPP579EUAf1NrcZNl2/uHnLDoCAOu69PGr2TXh1w7XWuKUDTAs163NxLNPvXH+4eeSJLl243L6P6NtAMGVVxlxli0mhQaMRa3Nx/lHnk+DLSPYYHvlo2fHbQzGk20U7WdK+wUBfVNrs3L+kefzR5bpINuI2wNTYUCDCDwPAShQa3NTHl5LL5UG8pzIYHSVT0LBFpM9BjAWq4zMze6Js+cffi6dxZG+u1z65LVLn7yWVpyLIgCm5dqNy/bbAyu3WTY30j0VgIGptRlKl666duNy8vBz2aVrt5e3+uS15ODcbXo74NsfOxQAOKy8XNOzT73R4d6yvMRIVz+ZIclpoFdqbYnSQ4TbBwq52/7mKy4xEAcHdk+cNQ9qgfzSKfOsAAam1mZrg9A6VHHJnZAzFsfseUrTRq+jKPkzZZIApqs8LP8Pf/nhWBvDDKi1mTv/8HOXcqNnm2kYi8sSzsEuE7LlobCJT3Si5RVQnm8R6GdgLGpt5s4/8vz5R55Pl4W89vkH3b7f3LlDQG4UzkRKYB6sJ8FEKXyYE7W2COm6I6n8Tdh67Lfkzoomxt8AyupWGdk9/nj+j0TjwAyjAaGotcWpq6ZCxSUdvWM1jL/pNyCygY/a7Q8nKtRA1qWPX72d9+kJ0+OP50/XMpZQTxImR61xW8uK2/7wpdBv4o3ReeLRUofDXA370t0TZ5OtrzdmmQpXql+7cVmtwdSpNVaojKj8uiNbJpx4Y3jrPmPNTFugvgfW2t9szcS8IOIPj6TXqBfE32ygmVpjE5Xr+GfdtU2/iTdggbL1mYis8q3N6RugV2qNzpSDavt+E28MwIEyZX2PaBVmrOV3aJXTGezxBjPdwUzdGJaXMNtQa/So836rizfz8oEJKc9YK+wq3SCbrugEmDq1xqAK/dZVvF3KxZthN1Za9wy0VR86V/l6D/XKrXySdLZS7uEffv7h55q/5dInrz0b6cEhL05Xm6gZRJynBPOg1hhTuay2uZH37Xg7OKpOD4DEG2XtF3ho8+0zc2g9lTUP/rZ5ZHZPnA0VJHX/lksfv7rWYP6dNXVvXC7s2W5fAFy1xvr5h597/fAvYt2/l6VpePUZXoNJU2vEUjgc2Sbebl8W4oI3VpnxU6Lwwin+Z6675p2gK7X/51/7/IO//dfH8neyzj7f/mem3/7sU280fMH5h5/Lfua1G5cvffLapU9ey+/Kklk/dQNqaJ4IOVT3fLt24/K144+Pvnmd23iXVbfM9WY/qvCrX/iOlJ6oNULLx9s20yZd8EZmg3fT0Vd9aIiuQiRM+lihcv3xOpvN79r48Xn2qTcuffJaeeCxvwf8/CPPZ3/FoQG63K4slY3RFT8zuwP0YXQ7enztxuXX330m+x1lVySWD/TLmi9fzH7OpU9e2z3+eNNm57I/Lf/s56ffmP3/WlsyxdM9uyfO7h5MRc7/22//6cHH6UORf2QKj9Lt/7xx+drnHxR+YJJUrFyVfv71d5/ZPf54etolKb2PXLtxOZsUXfnbzP/8ul93+R9V+UeFf3X2lxb+ivw/pPCnhe0sfOX5h5+z/+mQWmMyOrzmrfKCt0S8LUPh2bLykqE+NqBhjCv7mgG3KITywxLH7SOPT15LuvvVtFmJNDuka/6yim4sXWZZHgw89MnFHFc1T/RNX4mbTeVYOY+38Ia1m37wyWuFfst/cP7h5y7l5vZnb1j5jUx/Tnl2d+Ez2amQ4vmd3Len8VB9Tel2N1YFtqHWmKq6eLu0/moQhe91wduM5c8rr6XDNfpef/eZTn4O28j/Qgsfpx+kR67Z3iA5uEn69s+E3RNnG+ZA9iQ/Onfns1WvhUP3EjiclOWFKzvcwmFsvAdIDsYWGn5y5RrIlw5HfufNU/6Bzz71xu6Js6+/+0zFkOyq712CLJjLpznKv6byV9Z9TV75OZZeelr3W7iz28mNguaz/PbHVc1c/TMrF0lKT0Yc/H/dN9bN3aj8/J3zC6VZHtkfTXFHEc1dt27dGnsboHvbXPBWIN5moHzMlDr/8HMtB1QvffzqpcNzzzY+4P7bf31ss28cUuWzve5QteVLY+WX5Vto98TZSx+/mr7uyq/i/J+mH6Tfnp89mH5c6Kvzjzyf7RzyM4LOP/zc7UlNhycLVV5Jeyk3HtJSuoX59ltL4ekXUDHkSk+V6mfU4DvVlo/k7esG10m79CmR/Yorv7dw/F33QeFntvk4P9Mye1Qvffxq82hhefC2dmzNLSXYSPs3WRoYW2OeurrgLTm8Wkli2uR0pL/3yl/6Bq1VWMT/2o3LaXRlz4fV2zP2OtoNx9OHhlOclThQfijSV/3tDmy8yKfhh2zg/CPPZ/GZdHQeqlvFyb3lzVunNts/aO1vbb/JfTuSNTY7/6s5v9Esj/xffbvfjj9+p8oOPm54cApnFdNzE8E7H1hJrTF/Hc6ZLH+71SbjyP9eOj+Wza/RV5g5M+Rxc/MIxgwmqiVVm103vFb3D6z8+vzplfQodvfE2TSBsh91ewSsxYmYUV7v5b+0YirXpldehdJ++3v9l+ZP62QTmLNRrOSg27NFRPI5XfhR+TG32z8nXaxi64UNd48/vnuw5GPd+YXyd2Wu3bjc6hLKunH13AqlvZri3iz75WZPHmtvsBkzIVm6LeOtLFu1Qr/1KjtO3eDwdMu5GZ1MZaxc9SGpaZXt/zqWqfLSmsI1J8tU8UJrvDVC9qpPT9zkvyC7o0M27TZbESR9Oxh9IkY2JdjOZBTZkye9pHDcjWGKjK2xdNkbWPqGun283fnGw4NviX7bwjZtllc+0hrYKCtMsFh3Tgq0W7Gw/HEyrzVLOzlcLvyENMlGn+rcwFvPuFz1x5aMrUGTzkfeksMTabyJFhxaxKzTOV0ddlo692njzVBrzEZD4yXlxeIDHLBuXGvZ8FRSn775dfDStwwvdmB7ag3W0Ee8pZYzBFe86KvPSVm7h1dg71bhirU2Z9YLK7YBSf1rv499wuiTEgHWpdZgcwMs0Ra24qpv1VI/gWqY0+pbrpMOABCKWoMupbdjSvpfYjs/nTKpvzK+P/lbr44lf4uhRJ4BALOj1qBHhQWdB8ubyvUGu70H1PC1ps0AgKVRazCo/MVOcW5xW1k+lTfYGWbt70KYJdoMAFgktQbji5lwvTo00KfKAACqqDUIqpBwSYz1ryutHJrrdhImAMBCqDWYmOw+0bf/c6SQ+4e//HDgvxEAYGl2xt4AYD0rb89a+CAZ6mIzAAC6pdZgVtpfAFa8N1pjyLW59TMAAN0yExIAACCiu8feAAAAACqoNQAAgIjUGgAAQERqDQAAICK1BgAAEJFaAwAAiEitAQAARKTWAAAAIlJrAAAAEak1AACAiNQaAABARGoNAAAgIrUGAAAQkVoDAACISK0BAABEpNYAAAAiUmsAAAARqTUAAICI1BoAAEBEag0AACAitQYAABCRWgMAAIhIrQEAAESk1gAAACJSawAAABGpNQAAgIjUGgAAQERqDQAAICK1BgAAEJFaAwAAiEitAQAARKTWAAAAIlJrAAAAEe2MvQEA0/DZ5d9+dvm31y//v4YvaPNzHjz7QN0fnTz7Jyu/vuHbAYCZuevWrVtjbwNAXJ9d/u3PX/1lyxIbWFZuhcxLP6/rAGDq1BpAtcidtq603LKoy0JO0QFAZGoNoGhOndZGoeXSzwg5ABidWgO4Y2md1kbluJyWA4ABqDWAJGnRaQeVcugKsZNbRMv1+r/rs8NrmYStx3LIqTgA6JBaA5auTad9+/lvxemQ/Kbmky9rvNHrTsUBQCfUGrAIdQHT3Gnnnv/Wt59/oreN6l32T8uibtyiU3EAsBa1NkPpQdjKCV3lj5m9lQfoK7+g4W5jW/7kaKbeaS2lv5fyAN3Av698xbkuDgAyam0m0kOrLVdHqLx3k5W+u9X8C9o+liYXRQE9ePaB//6//tvYWxFCoeWGD7kHzz5gII6YVp4Y3UC3z/Dtt63N9nhVQt/U2ky8+Kf/NPDfWN5BF+7PW/dldZ8MrvJtr/zJck3JpwmJdn1aZOOG3OyXqdysBFY+AnN6iDrU8DhbIbZbbZ6BlccSm/0oT3jmQa3NxPC11p+xdq/ekpdMp3Xos8u/HXE4Lpl4y8W5h8RUHrGyCI8eS1P5eik8FQd7TbUs3l6dW8ClBINRazMxp1qDwTx49oEHz/7JSVPsBjF6xaXKU76DzPeO02kAW3r5//7PsTdhPnbG3gB6Ub4x1FRu38Qo2k0pWeNc3TZ3IVuLypqQwxee3TntWqi4vvdOn935u1otxVT44vwflU9gF76x5fNTpwFQx9jaTLz4p/+UTuVK1j9+La/xnYy9zPeitPx9NcdScx1JGiYnf13ciANx0GCAXevGT/vSiYPas7e9bgaLZWytQ2qNNRT219erdt/lt4FZ7uVrVk85FFTlglJNsKXRl6kcTHmKRGrlofYsH41RZDOl6/504O2Jr/1zr/L4oeoHerZPlVrrkFpjTM372ZZ78y2tnLPnLRmmYh4tN8yaN+s+LMPskNe1zaRr+/blCLUTCPJS2mCIdS1uhNMhtQbAIpRnfUeb8r2Qe7ID0J5aA4DbKq/jLQzgFE6Nb7+GUzrjTqcBUKbWAKBHzf1mPh4ADdQaAABARHePvQEAAABUUGsAAAARqTUAAICI1BoAAEBEag0AACAitQYAABCRWgMAAIhIrQEAAESk1gAAACJSawAAABGpNQAAgIjUGgAAQERqDQAAICK1BgAAEJFaAwAAiEitAQAARKTWAAAAIlJrAAAAEak1AACAiNQaAABARGoNAAAgIrUGAAAQkVoDAACISK0BAABEpNYAAAAiUmsAAAARqTUAAICI1BoAAEBEag0AACAitQYAABCRWgMAAIhIrQEAAESk1gAAACJSawAAABGpNQAAgIjUGgAAQERqDQAAICK1BgAAEJFaAwAAiEitAQAARKTWAAAAIlJrAAAAEak1AACAiNQaAABARGoNebYZrQAAHRJJREFUAAAgIrUGAAAQkVoDAACISK0BAABEpNYAAAAiUmsAAAARqTUAAICI1BoAAEBEag0AACAitQYAABCRWgMAAIhIrQEAAESk1gAAACJSawAAABGpNQAAgIjUGgAAQERqDQAAICK1BgAAEJFaAwAAiEitAQAARKTWAAAAIlJrAAAAEak1AACAiNQaAABARGoNAAAgIrUGAAAQkVoDAACISK0BAABEpNYAAAAiUmsAAAARqTUAAICI1BoAAEBEag0AACAitQYAABCRWgMAAIhIrQEAAESk1gAAACJSawAAABGpNQAAgIjUGgAAQERqDQAAICK1BgAAEJFaAwAAiEitAQAARKTWAAAAIlJrAAAAEak1AACAiNQaAABARGoNAAAgIrUGAAAQkVoDAACISK0BAABEpNYAAAAiUmsAAAAR7Yy9AQAAQDj7n7+f/88/fPF+7uN/a/jir33veq8btihqDQAA5qlQXEljdJW/mNGpNQAACK0hupqHuZg6tQYAAANpP71QdJGoNQAAWFeb6JJbbE+tAQCwXAa7Vto5/kThM/d8/c9zHz/R/MVsQ60BADATdemlu5JSRzUUV/mLGYtaAwAgrnxZ1Q18Laq+2keX4poBtQYAwECMfWVEF22oNQAANiG9UpXdVZ5bWP5KWEmtAQAsUfN9k5Pl3cjLYBcBqTUAgFnZ//z9P3zxfrm1krnnVl5deukupkWtAQBMRsOAWJpnM+6xfFmpLxZCrQHAom18cO+wuPDQNTwgG8w5rPvG2TD2BW2oNQCYmLoFzZN4FxpVHmrnLwfKfTLiMXrdo/fVr/95xh21AekFPbnr1q1bY28DAFCUxkD+6qMl50HD8g/J4SToqgf2P39/UUlWftwaHuS6bwE6p9YAIJaldUKvNiiKGTzy6b+6PIZppAsmR60BQCA3f/WTm7/657G3gmkoDzmmPSbDYDZctwYAUUi1JWhzLZ8bKwMptQYAIWyQau2v5mr+xu01zB4srIOS+3ysBVHa2zn+xH3f+Ov2K0CqLGBjZkICwPgqUy1/9VGWXss59C80T7n68r3XR+kd+eZfH/nm/+j8xwK0p9YAYEzlNUVWDt2wUsNNDupYgQMISK0BwAjSnCiv/bhz/Ik/evLiSBsFQCyuWwOAXpSHd9KZew1z9ky9AyBPrQHAGiqn2HVyAZVUA6BArbEUddcwlBcla9Bwp1FXOMBc3fzVT/7wxb/1vVyhVAOgzHVrzEp6OPWHL97PGmz49aDza7glBzmn5SCm/gbK1iLVAKik1piqQphN4i49hcW4JRx0rm7N9+EDrI10J2D5RwDqqDWmYYpt1tLO8SeygTgn16Fs5fBXEnufkC+xe77+56ZPA9CeWiOobG3rJPZxWB+yfjP+xrxlL+38eonlP42p0GAHHzxR+QUAsBm1RiB1dx/qUOH4qbxqSBsDT6kSb0xaPslGvKB0G+m9qrOPx90YABZFrTGy/c/fT4/hujp6y46lhp9xlE3XzD7Txzpy4o1o6obIJpdk2cdWCQIgCLXGCLoaQ8sW7ZjEEVXapenH3dZp+ggE/+czXRONscr6SkxWBGBS1BrD2f/8/W2uQ5tWm7WUJVwn/ZYNu1mthDaaV+8IGGMrLxVL5rJnAICUWqNf2wyjZWtbJ0s6Auuq35Rb5/Kjo6k4ozTlp0rdLeAjN5i1OgCgQK3Ri42H0czrK7v5q58k28WbctvezV/95Oav/rn919dNw0tyKVJov7LCGol5AaOrWeFmg/lPAgB11Bpd2izSsvXWHLqttP3Imx7ezH/+7OTYmxDdiAv8AMBcqTU6sEGkaYZOZPG21rBP5sg3/zqxtmQ7aq0wX1GPAcAA1BqbWzfSsuvQHN71oZNyM1WyIHtu/9d7F8bdkl6V522KMQCIQK2xtnXvkGai4yjSq902KDfDnpnytWrlxyTg9WMNt4C3egcATItaYw3pYNpakeaIMIKNy23JA26FVNs5/sQfPXlx5XcVbk2WaVgvpE5hbZKDT1a8oLzKAGCu1BqribQ5UW5t7H/+fmHq49e+d32sjQEAFkutUWuty9JE2uSsO6M1s4SpkoU1RY58868XkqkAQChqjQrtB9NE2jxsfEu3Wd7JrTAHUqoBAGNRa9wh0ki2mCqZzGLYTaoBAHGoNZKkdaeJtEXZeKpkZnL3c9tsZREAgJ6otUVrH2mJ+6Qt2zYDbpng8WZlEQAgGrW2UAbT2MyW9+DOS+MtCXPNm5VFAIBo1NritOk0kUYbWbltM1syky1YMsrgm8vVAICA1NpSGEyjbx0Ou6Wyfkt6TjipBgDEpNbmz2Aao9j4rgDNCgmXHFxXuTEriwAAYam1OdNpxNFTvGXS53AWcslBy+X/tMzKIgBAZGptnlZ2WjpAYboXY0njLelu2mQn/ujJi85cAABxqLUZ+q/3LjR3msE0oul2wZJ1GU8DAGJSa7NSuAKnQKcxIUP2m1oDAGJSazPRPPXRGnfMQPr0zhIu+8z21BoAEJNam4nCjX1TBtNYgnzFpdKWS1rknNcIABCZWpuJcq1ZLwHyyuXmBQIABLcz9gbQPfMeoUybAQCTo9ZmxbQuAACYDbU2H4bUAABgTly3NhP7n79vSA0AAOZErQEAAER099gbAAAAQAW1BgAAEJFaAwAAiEitAQAARKTWAAAAIlJrAAAAEak1AACAiNQaAABARGoNAAAgIrUGAAAQkVoDAACISK0BAABEpNYAAAAiUmsAAAARqTUAAICI1BoAAEBEag0AACAitQYAABCRWgMAAIhIrQEAAESk1gAAACJSawAAABGpNQAAgIjUGgAAQERqDQAAICK1BgAAEJFaAwAAiEitAQAARKTWAAAAIlJrAAAAEak1AACAiNQaAABARGoNAAAgIrUGAAAQkVoDAACISK0BAABEpNYAAAAiUmsAAAARqTUAAICI1BoAAEBEag0AACAitQYAABCRWgMAAIhIrQEAAESk1gAAACJSawAAABGpNQAAgIjUGgAAQERqDQAAICK1BgAAEJFaAwAAiEitAQAARKTWAAAAIlJrAAAAEak1AACAiHbG3gCA+fjqo/eav+C+R58cZksAgBlQawDrSZPs5ke/vPnRL/OfWVdabkce/Vb6n0ce/ZaWAwDy7rp169bY2wAwAV999N5/vvWPm4XZWu579Mks4b7+gx/1/dcBAGGpNYBWvnjrlS/eemWUvzrrN/EGAItiJiRAdF999F46ppfmYtpsyg0AZs/YGkCTrz56L70+7eZHvxxgGuS6lBsAzJhaA2jy2xe/X460/AIh2TVmLdcIyX5atkhJ+sGWKZjOlrRUCQDMiVoDqFW4Vu3rP/hR3znUyVCeATcAmAe1BlDr19//4/x/PvDyT4cfucr6bYM1TmQbAEyaWgOoVh5Yi5A96SatO/I2wKggANA5tQZQrTCw9o2f/sdYW1Jng3IL0pwAQBtqDaBCzIG1BunWtpwtaYYkAEyCWgOoEH9grc662WaGJACEpdYAiiY3sFYpXZ6kTbalq/9P8d8IAPOm1gCKCgNrE621TPvRtqn/SwFgZtQawCHzGFir1DLbXNUGAEGoNYBDZjawVumLt15ps5LkLP/tADAhag3gjhkPrJW1vLBt3g8CAESm1gDuWMLAWlmboTbTIwFgeGoN4LbCwFoyqYX7t2eoDQCiUWsAty1zYK2sXK1li31wAGBIag0gSRY/sFbWZgFJzQYAvbp77A0AiEiEpCX2jZ/+R8ND8cVbr/z6+3/c5k5uAMAGjK0BGFhbbeX0SONsANA5Y2sARaqjLBtnu+/RJyu/wDgbAHTO2BpAcX0RA2vNVl7SZpwNADqxM/YGAIysUB0yY6X8Q1TZbOm0Sc0GAFsytgYsnYG1LTVf0qbZAGBjrlsDFs3A2vaal450PRsAbMzYGrBoBta6ZZwNADpkbA1YLgNrnTPOBgAdMrYGLJeBtV4ZZwOALak1YM6++ui98idvfvTL9P/zfyoeeqLZAGBjam3OsiPRurvZwgAaeqnNJ1v+wC3d9+iTD7z8085/LBnNBgAbUGvzVHlgdN+jTx559FuJi3PYQr6UsrgqVFYfNdWT+x598ms/+Jvs43E3Zgkami3dL9k7AUCeWpuh3774/ZWHy8qNgnKG5RtsQgG2FkNqo2hutiOPfks5QyeyXXfdzIX0SCDPqw+iUWtz0zzdqJJT2gtReNvO3rznWmJtqLWxpLuphmazR2JCutqLdlVKX3303n++9Y+dbFW2SYWuy/5T3UHf1NrcbFBrmXTAzYnt6cr3mBirkz29v/aDv/FUH5dmY7o6LKI2KndW5ZGxdM8/4m6/sJ0aD7an1uYj3Tvf/OiXndzLyIBbQPMYHKt7ky4fdrT/0/Z/CwFZgIQpanPRAW3kd9f5XX3+Y7t0lkytzUThbSNdOyG/d/vqo/fSg3vzJGOa1mVjdWdPXQLBxjQbMVVWWbpni7ZnXgiTM1katTYHhaOcNoc1zROQKqU/0zzJbWTjn5GHxQpvhM5uMiTNRjS//v4fj70JW1m53w74NtSh0d+2CmfSR9ySgbkmvENqbfI2SLW8dMytcJvgNrJVJfVbg3yeBXlHrIsxv0Ti0GyM7quP3kv3ipW1Fn9srTzFpr3KO7UU/jPyv50IvvHT/xh7E+ZDrU1bepVz/jPbnMzYYMAtT78Vhs7GejPL95gYY7pWNlsy60nadYtYVE4DSz/2Ml9Lw/zz7I/ue/TJyj15tihX0s/DXvf2UbcQf/ZHYy0V1ibwEo23JGqtQ2qNCltmWybfb8nsjiTGajODYyxHOvjfvC+a61Dblgv8ph9Urtkw731FYVecpUK3g0Ju/rE9I3jzptY6pNZo0uZQaV1ZwiXTGYUb8nozl41BQZvzR/Mbatum1tqrW46v7jMD7IXaDCuVh5j62CenJwK+eOsV6ydFUHenb2kXk1rrkFqjlY0vb2svffMrry448MFB34vj5/+ZSgza++KtV9rsgqY+1Jat3xvnYtfFmvpzackaBu6GlJ6SruvMefPa6ZBaYxNjHU80nwZuNsy52LIsz6YykAiRtRzwn+5Q29RXIJwTtQZEoNbohvPBmTTJvvaDv0mMmEFvWk4U/PoPfjShEyXlNX7Lp6UqJwQufK+7jcJJwIVc3QdMiFqjL0vot/y4WeLdHQbXckmk9HLZ+OMkhYG1DS78qJxztcyoq5yLYf45MDlqjeFka3Vk/z+hQ4fysvje6SGO9kNtSdQZklvePHMtLddbT2Lspcs728q1Luu+GGDS1Brjy1dcMmrIVa7H6L0fpqL93UcCZtv2A2tD6mMXbWcLUKbWmIDm9ZTaLLJUOPnqXCzMW/vl74Nc2DbkwBoAE6LWAJinte4YOW62FQbW1BoAKbUGwMy1nyGZVE2STG/1luTmSHcbdQbWAKij1gBYivYzJJODlSTrVrVN/zTp4uI3A2sA1FFrACzLWjMkW0r7aoNhNwNrADRQawAs1FozJNeSjbw1Ly371Ufv/fbF7+c/o9YAyFNrACxdf9lWkM+28gRLqQZAgVoDgNsqJ0lmA2VJktRdxraNDi+BA2Bm1BoAVEibrfJStDTqko6G4x54+aej3/ANgJjUGgBsZct4U2sA1FFrANClLN7aTJu879EnH3j5p4NsFwDTo9YAoHdptqUVl6xaKxIAUmoNAAAgorvH3gAAAAAqqDUAAICI1BoAAEBEag0AACAitQYAABCRWgMAAIhIrQEAAESk1gAAACJSawAAABGpNQAAgIjUGgAAQERqDQAAICK1BgAAEJFaAwAAiEitAQAARKTWAAAAIlJrAAAAEak1AACAiNQaAABARGoNAAAgIrUGAAAQkVoDAACISK0BAABEpNYAAAAiUmsAAAARqTUAAICI1BoAAEBEag0AACAitQYAABCRWgMAAIhIrQEAAESk1gAAACJSawAAABGpNQAAgIjUGgAAQERqDQAAICK1BgAAEJFaAwAAiEitAQAARKTWAAAAIlJrAAAAEak1AACAiNQaAABARGoNAAAgIrUGAAAQkVoDAACISK0BAABEpNYAAAAiUmsAAAARqTUAAICI1BoAAEBEag0AACAitQYAABCRWgMAAIhIrQEAAES0M/YGQF/e+XQv/5+/+PTL8tc8fepY9vG5U0d73yYAAGjtrlu3bo29DbC5NMl+8emX7/zmy/xntpSW27mHjiUHRaflAAAYmFpjStISe/nta0lHVbaWQsLpNwAAeqXWCG3cPFvp3Kmjaby9+J2TY28LAABzo9YIJyu0gHnW7KXvnkyUGwAAHVFrRPHOp3s9jaE1T1nsqQmVGwAAW1JrjKmTYbTbl5OdOpYkydMPHct/cuNN+sWdNUu+3DLnZBsAAJtRa4xgm0hLM+zF7+4mw67T+M6ne1smXHqRm2wDAKAltcag0umOa6XOWHm2UtZvL/3v62t9o2wDAKANtcYQ1o20c6eOnjt17OmHprRK/stvX0/WHHaTbQAANFBr9GitSMvG0CZUaHXScms/5ubaNgAAytQavWjfaedOHQ04y7Er6WzJ9gNuL333pGYDACCl1uhSGidtxpTSSJtlodVpP+BmqA0AgESt0ZWWg2kLjLSytbJNswEALJZaY1ttOm3e0x039vLb19tMknzpuyefPjWlBVcAAOiEWmNz7TtNaTR7+e3rK4faTI8EAFgatcYmVnaaSNtAyxmSpkcCACyEWmM9K0eBdNr2Wg61aTYAgHlTa7S1MiFe+s7Jad3POrg2Q22aDQBgxtQaqzV3msG0vq3uZM0GADBHao0mOi0OzQYAsDRqjWrN64jotLGsnB6p2QAAZkOtUaTT4tNsAABLoNa4Q6dNTvP0SM0GADBpao0k0WkTp9kAAGZJrdF0rK/TJkSzAQDMjFpbtHc+3fv2v/x75R/ptInSbAAAs6HWFqph6qNOmwHNBjOQ7qjz/9nmu8p773MPHcv/59OnjtV9JQDRqLXFab5E7aXvnHzxu47jZ6J5juu5h45pNgjrrh/9nyH/urTcsq5Li07OAYxOrS1Lw+G7Tpurpl/6d08+feqYAzIIaOBaa1ZuOfsNgGGotaUw9XHhmpvNIBtEE6rWGqQD9enHKg6gc2ptEeqO1HXaojTfU1uzQQRTibRmEg6gK2pt5upWfdRpi2UBEgjr2//y7/kZEOdOHT136liSJE8fXiZkpV/85svyJ9/59MuDD1qtVtK5LOH0G0B7am3O6o7LXaKGZoNoCq/KYXbUWbllgTdk1Ok3gJXU2jzVXaVmSI08F7NBEIUX47lTR3/+V3824vZk0veRQsv1F3L6DaBArc1Q3ezHn//Vn3nzo0yzwegKl6tNYnedD7n+Ku6lgwFG+yJgmdTa3FQeeZv6yEqabaX8Q2QEgA6NMgeyP+98utdfwnnpAUuj1malfMBt6iPtWTSyWWEFiLzsCHLhDxHrKs9an3qq1cknXIf9Jt6A2VNr81FOtbm+69Mrd9Ou01BrBeJtlto3xi8+rViS8fYP+U3TGh5xLlcbQE/9NuTMyXSzF7tLBIah1maifK3aJC57ICwTIzMvv319ywldabwtOXQnrW7Rpm7deuUvev35k9BHv20/+Ja+t2Y/JP2Zlc8Kd5mj7J1P9zwT2JJam4n8WX+zH+mKZmu+1cFm0tdm/qgu//m5KhzXZqNP71TdGSyUYe5OptbKsnhL6mdor6vw6ksaX4B1S3Zt8DfW/mnNnfSyrWr/o/LqYrLltx/6rjXv9TeWmHuSTn4FE7WcaQIDUGszkdXaoibSMIwlN1t5pb70gz5mcOVlb+qFQ6XCMdzw7/3lf29+1l/hgGmsuzBPjv12Sz1Nnpy6/H7Aw0IQzkB1SK3NRFpr3vLpycq7aSdzvEar5Up90Y4gO0y4CP+ceTt36ui5U8dcYLyZaC89IKPWOqTWZiKdrSHV6NWimq38j2353pMdQXY+hZI4NpxUdjA0+vRDi5j+OjyvPghCrXVIrc3Ey29fd3aWYay8lGse0yMLK0BuvMKqw8cZsL7uRHUy+JaOf5Z/SH4pr/yNwrf862Ae1FqH1BqwiXk328YDayvlF05459OmxdznqjCaVB5uisbw12zkX31Juxdg5erK7Vf5y37yL1atgfFO6a4P2+wW0sXG2nzlyg3LK2/kuM5VrcXSYJSdTPpUWdROPmXP2SG1Bmxurs1WWFxksKGVumO7/EFSnHf98ptx/uCpcGDknZtJiL+IX5s9QMDNBjam1oBttWm2ZDqXtLVcXCSOyqO3tU6ZF9SdgXYICAADU2tAN9rcmmwSQ21jDawBABSoNaBLL799PVm1okbkZpvcwBoAMGNqDehey2ZL4k2PNLAGAMSh1oAeTWt6pIE1ACAUtQb0rmWzJWMPtRlYAwBCUWvAQNpMj0zGG2ozsAYARKPWgEGlN6hd2WznTh0999CxIbPNwBoAEI1aA8bRZnpkMtQMSQNrAEBAag0YU8vpkUnP2VYYWLv1yl/08bcAAKxFrQEhtBxqS3rINgNrAEBMag0IpP1QW9JdthlYAwBiUmtARC+/ff2dT79859O9ll+/cbkZWAMAwlJrQGjtZ0im0sUkk9blZmANAAhLrQET0HLd/7J0zO3pU8fOnTpa/lMDawBAZGoNmJKNsy2VNls6+PbOb4ozLQ2sAQChqDVgqta9tq2ZgTUAIBq1BkzeWitJFrz0nZNJkjz9UPVUSQCAEak1YFbWLTezHwGAsNQaMFtpuTXPllRrAEBYag1YinSFkoOPv0yS5MXv7poACQCEpdYAAAAiunvsDQAAAKCCWgMAAIhIrQEAAESk1gAAACJSawAAABGpNQAAgIjUGgAAQERqDQAAICK1BgAAEJFaAwAAiEitAQAARKTWAAAAIlJrAAAAEak1AACAiNQaAABARGoNAAAgIrUGAAAQkVoDAACISK0BAABEpNYAAAAiUmsAAAARqTUAAICI1BoAAEBEag0AACAitQYAABCRWgMAAIhIrQEAAESk1gAAACJSawAAABGpNQAAgIjUGgAAQERqDQAAICK1BgAAEJFaAwAAiEitAQAARKTWAAAAIlJrAAAAEak1AACAiNQaAABARGoNAAAgIrUGAAAQkVoDAACISK0BAABEpNYAAAAiUmsAAAARqTUAAICI1BoAAEBEag0AACAitQYAABCRWgMAAIhIrQEAAESk1gAAACJSawAAABGpNQAAgIjUGgAAQERqDQAAICK1BgAAEJFaAwAAiEitAQAARKTWAAAAIlJrAAAAEak1AACAiNQaAABARGoNAAAgIrUGAAAQkVoDAACISK0BAABEpNYAAAAiUmsAAAARqTUAAICI1BoAAEBEag0AACAitQYAABCRWgMAAIhIrQEAAESk1gAAACJSawAAABGpNQAAgIjUGgAAQERqDQAAICK1BgAAEJFaAwAAiEitAQAARKTWAAAAIlJrAAAAEak1AACAiNQaAABARGoNAAAgIrUGAAAQkVoDAACISK0BAABEpNYAAAAiUmsAAAARqTUAAICI1BoAAEBEag0AACAitQYAABCRWgMAAIhIrQEAAESk1gAAACJSawAAABGpNQAAgIjUGgAAQERqDQAAICK1BgAAEJFaAwAAiEitAQAARKTWAAAAIlJrAAAAEak1AACAiNQaAABARGoNAAAgIrUGAAAQkVoDAACISK0BAABEpNYAAAAiUmsAAAARqTUAAICI1BoAAEBEag0AACAitQYAABCRWgMAAIhIrQEAAESk1gAAACJSawAAABGpNQAAgIjUGgAAQERqDQAAICK1BgAAEJFaAwAAiEitAQAARKTWAAAAIlJrAAAAEak1AACAiNQaAABARGoNAAAgIrUGAAAQkVoDAACISK0BAABEpNYAAAAiUmsAAAARqTUAAICI1BoAAEBEag0AACAitQYAABCRWgMAAIhIrQEAAESk1gAAACJSawAAABH9f7MGxRbz/GkNAAAAAElFTkSuQmCC;clipPath=inset(8.67% 9.67% 82.44% 13%);direction=north;" parent="PvffXtldvGFclzvf1Mkj-34" vertex="1">
          <mxGeometry x="257.82" y="365" width="7.18" height="52" as="geometry" />
        </mxCell>
        <mxCell id="PvffXtldvGFclzvf1Mkj-48" value="" style="shape=image;verticalLabelPosition=bottom;labelBackgroundColor=default;verticalAlign=top;imageAspect=0;image=data:image/png,iVBORw0KGgoAAAANSUhEUgAABI8AAANrCAIAAABA5S9PAAAACXBIWXMAABcSAAAXEgFnn9JSAAAAB3RJTUUH6AIcDAIakILqlAAAACR0RVh0U29mdHdhcmUATUFUTEFCLCBUaGUgTWF0aFdvcmtzLCBJbmMuPFjdGAAAACJ0RVh0Q3JlYXRpb24gVGltZQAyOC1GZWItMjAyNCAyMTowMjoyNrhQjsAAACAASURBVHic7d1NqB73fejxsTkGy+AiJdKmuGAdmQTbEtS1oI4XtlJEssumuSFa3oVf6Kb3NptSL2wvUrpxm26KX+5exqSb7HwRN44XjgtyfUGyTUIsGW7oRnZ9aMAK5IDuYnRGc+btmed55uU3M58PIRwfnXM0es7zzDPf+f/nP3fdunUrAQAAIJi7x94AAAAAKqg1AACAiNQaAABARGoNAAAgIrUGAAAQkVoDAACISK0BAABEpNYAAAAiUmsAAAARqTUAAICI1BoAAEBEag0AACAitQYAABCRWgMAAIhIrQEAAESk1gAAACJSawAAABGpNQAAgIjUGgAAQERqDQAAICK1BgAAEJFaAwAAiEitAQAARKTWAAAAIlJrAAAAEak1AACAiNQaAABARGoNAAAgIrUGAAAQkVoDAACISK0BAABEpNYAAAAiUmsAAAARqTUAAICI1BoAAEBEag0AACAitQYAABCRWgMAAIhIrQEAAESk1gAAACJSawAAABGpNQAAgIjUGgAAQERqDQAAICK1BgAAEJFaAwAAiEitAQAARKTWAAAAIlJrAAAAEak1AACAiNQaAABARGoNAAAgIrUGAAAQkVoDAACISK0BAABEpNYAAAAiUmsAAAARqTUAAICI1BoAAEBEag0AACAitQYAABCRWgMAAIhIrQEAAESk1gAAACJSawAAABGpNQAAgIjUGgAAQERqDQAAICK1BgAAEJFaAwAAiEitAQAARKTWAAAAIlJrAAAAEak1AACAiNQaAABARGoNAAAgIrUGAAAQkVoDAACISK0BAABEpNYAAAAiUmsAAAARqTUAAICI1BoAAEBEag0AACAitQYAABCRWgMAAIhoZ+wNAAjhyt7+m9dvXtnbT5LkzNGd08fuufDgvWNvFACwaHfdunVr7G0AGN8LH/4uTbW8CyePaDYGk50sGHtDAIjCTEiAWle//MPYm8CCvHn95tibAEAsTuABi1YeTwMACMJMSGDRvvfzL5u/IJ2W5jI2+nNlb//q3v7FwwNrP37sflMiAfBOACzXxc9+n//PM0d3Lpw8khwMuKVHz+nHV/b2Tx/dcfRMH1748HflT755/eaZx+4ffmMACMWRB7BchcvSTh+753Q6knZ0J0mSM0d3/i53GO3omT5crZmLe2Vv/8revhMEAAtnlRFguQoXrZ1uPDJOj5573iIWx5MKgAZqDVio8phGYRzD1EfGZYlIANQasFCFMY02YVY3aQ025i4RADRQawBJkiSnj92z8pMOrOlcw0xIkyQBUGsAtcyEBABGpNaAhdpgoMxYB91aObfWUw5g4dQasFBtFoQsf9LRMwAwGLUGAOMoL3Vj8i0AeWoNIEnqL1Fz9MyILEMKsHBqDViijQ+CHT3Tn8qFSQFYMrU2Ey98+LuxNwHmySL+DMnzDYA8tTYfTvlDexvcGhs6J8YAaKbWAAAqOA0KjM7p5Dl44cPfXdnbT67fTP/zhyePGCiArpw5unNx7G1gIU4f3bkrSTzfIkiH36/u7d9KkiQ3/F6+h4c3XKBXdjFzcPrYPVf29u+8hVy/eeax+0fdIpiY9qs7uN8aHfJ0iuniZ7+/eHACNPWzbx9LP7i6t5//ozNHd7zhAr0yE3IOLjx4b/4/D5UbUMX1QkyCnXkQfhHAWNTaTBRmYphqD105XZrm5LiNnphTF4SzOUAcam0mLpw8kv9P7zQAwTmtNgPO3QB9U2vzZDIkwBSVx3KJQFoDY1FrM3H66I4pNNBe4XSGQ2TCcupteOXHPJuxYuoKMDC1NltvHl7PCtiYUyH0wS3aAVjJe8N8XDh55MqHvxt7KwBmorBWe+JullQNu13Z2/esAPpj/zJbJs9AT646OFuMwo70h4P8pWeO7tiBA5BywDEf6aVr+fd4J/ygJa8UyiouXupzp9r+Fu1AZFf39v/u8Fyn7O7qsAHXrc2ZNaygkpcGEbRcr8LTNQKjncBY1NqsFE7NWroKANYij4FQ1NqsFKboOBcInXAehAG4jcREqTugV2ptVspv9oINYDN9Z3nd/tnZAbYkIKNxMMY21NrcWCwBVnKfKwLyPAzOATcwCu8NM2epcdjemaM7F8feBobX69G50Y8pqvytXf3yD8mD9w6/MZWu7O1f3du/+uUfshHaC2G2DdiM4/i5OX3snvwRRqh3EYhp3ZXTnWJnew3PImcHxjXpF/gLBwvHZ/8KtQZTZybk3FhoBFZa90Igyz+Q6u8SsoZJEHbjtHTxs9+XP+n5E4GxdLah1ubGQiMwAC+r2Rv46Mqtsacr+N5AJ8DUOWE8Q2eO7gR/85i9wuN/tTA3NUl+ePKI6wlHVPgFtRk6K7ysXBHKli5ev1n3R5Un3TzfIgvyC6oc+3VBBEzd+DsX+vbm9ZtnHrt/7K2Yg+xgPauv/FvjWoX8ww43izWVzzS3Ocy6cPLIlYMLQpKDQ20XhNAVz6U46ua7TnSQ6sre/sXPfu8JNiRnzOmWWpuhwmElbRRKbOMMayl71087oe6vaDg4GOYWTG1mZzUMTEU42ZyXPs5vHh7TuHDySJvvPX1058LJI/nxkIvXb168fvPM0Z3Tx+45fXQn2j+WLfV6vFW4vqj85DFFYmD5R3uDRz7IYHvtW4nhNZiy8XcudO50aaGRIJM0xlKYwJbkUmes46GGSVChDPD4DPDMbP5XtN+ACw/em37x3+XOhqSvr+xHpX0r3ljLytMipkise0qr4XxWLyfgAuTQRIf+FqLwDKk8KuvjUK38Mzf+WxZ+JDkuj/s8Fc7LzvudPmCM0d5Yv6MfP3b/Bm88zVe45cstEW/UuPjZ7wvna8qz1GYwRaLypV0oisqmCrLf/vvH7r94/Wbhjjh1XZ2+9q/u7Zdf7Nnn0/9PejtF1fC4ZbsmO6JoGhIoe8I0fKYTlT9Wm4XiNzFPhXf6IG9+m2m4Wiz+v6uwszt97J504+NvOQ1azlIrxFui3yalp8nGFalWNRe3PEVimEuPViZW5L7qVjr5+UrNQHrZm9dvpge4L+ztZ7Omsw/SnUb6qn/hcDhl7ws/PHmkULNp4+U/zv9/9vk3r9/Mfkgm+/np33v7a3InNLN9UeHr6cMsXyMMxotzntJjwcJE/FD74spVE/u+WqwT+YcxO8966JPNj/OD9yZVR2xMyI8fuz+97mjdX6LBt6nbeL90ZW8/vWAyP8Rx+tg9DQFWeZ1kcvgof+XfO/CEwJlJg61wii3fXWkjNTySzecWs0/e/uBgKC97+84/B/Lhl/9L0y8u/PwLJ49cePDe7I0m/dMre/vpP6cwYFjYKaX/usIxQ6EG0+feyjOnQXZrQZ7qFz/7ff4xfLP0QeHjss0O5Mo/s/lv2f4b86yA3Ym7bt26NfY20Iure/vZbjrd86a7721+ZvMurzxpvnCgEGSP2aBwGLRGg61pZa017N3Gui/TPA770gf2wskjXf1CN8u2Ovotju/9/MvKz//s28fafHt+SZvCgXX6QZuDmKsHB9lO7gwj+42UdxHZ8yF9kZ45upN9QfpH+TOk5dzK/+pX7jArvzj/o5LSXrfQkPn3+u/9/Mu6b0k/KNdawybBWrY/8iQxtjZjp4/upCfDsp14emp241fO1b39F6Z8HUV5TOxOmw1+WJytVzHK376hLXa4bS5/7+NQoDgTtYeHOn01XTgYMk1K56rX0jB5MpFwMbzw4e9+eDB3sXAQfHVvv3mq87pPjOwZe3GzbZ21utdC3fms2q9f/zXV8B6avuGePnZPXfMUvrLyg+x78z+n7nxZ/tsLGZn6+8fuT78ge2Qa4r+rp25Mlc+B/FjiysGr8hc3/H9v/w4Wxxv/nF148N6rpV1GNp0mvVhiTsd/dSNjMXMo5lb1pM0/dgYPyO1juAfvTZLk6kF3bRNvSc2lMobg+lY+v5BNIbuyt58cntPY/vebffECZweV/73lrKp8TILsGQoTUwt/lE47rPzT7NW6wfMkr64Ai39X+XE+upNd59Z+WK/l5yfkzNGdbMg0fwVgXa1la280f3Hz/6c/qjxQ//cHC78FeXoTnGfJzKW76ReqzsmV33jqLocY5tZezUKNjMFKp7PDpoPT8F31W1IzBJccXjZgaTHQlfwMxkx5ItnGv8H8IWNL2dVTwx8uNydWh6NV8V148N66IbU7A+wHZ2qSJEnXYT59dCfbA1zI7Qpuf+bgiXRn/PzYPYWVJ7MH+czRnau5l3nm9LF70iG1pPGRP33wBVf39pPDC9tMPcOmaJavEfrjurVFSK9tjblHbl60wx6Nueow3hqYSFmWn7iYtFtjNh08uXIwG7zyCqVmG0RapaulUK88m9Z8deuiKov2ykPKzc/t9vuTCIcf+aAt3FOhUuXY2mZ/dfkqkh/P96ZK9EGtLUV/ixC2vHigvxU7YB6G6bdUvuKS6QzHrXxYGm7ntcFDmp9ukA6MZAs2JC1mQna+pA0AC6TWlmWbQbb03HCitWAo+X5Lxjg/febwzKvRb81Ut05jTyrXZEp/KdmONL/GQ5IkbeakAUB7am2hNli87szRHWP3MK78UgERpjdXXuyaD5Vuuy5CrQHAkNQaSXL4EPDOJw9fDtF8I1dgLPlrmSIkXIM2CwM2GOa2Yw033QKAgak1gBkqjMIlMS70j2NaN/wAYLHUGsCCFAbSZxNy7dea12MATIhaA+CQbGXFaFHnlrIALI1aA2Bt5Ytdt1wuv42ffftYHz8WAMJyehKAtZ0ur1NfswpR4R5odSFXeZdnAFg4Y2sAAAAR3T32BgAAAFBBrQEAAESk1gAAACJSawAAABGpNQAAgIjUGgAAQERqDQAAICK1BgAAEJFaAwAAiEitAQAARKTWAAAAIlJrAAAAEak1AACAiNQaAABARGoNAAAgIrUGAAAQkVoDAACISK0BAABEpNYAAAAiUmsAAAARqTUAAICI1BoAAEBEag0AACAitQYAABCRWgMAAIhIrQEAAESk1gAAACJSawAAABGpNQAAgIjUGgAAQERqDQAAICK1BgAAEJFaAwAAiEitAQAARKTWAAAAIlJrAAAAEak1AACAiNQaAABARGoNAAAgIrUGAAAQkVoDAACISK0BAABEpNYAAAAiUmsAAAARqTUAAICI1BoAAEBEag0AACAitQYAABCRWgMAAIhIrQEAAES0M/YGAARy7cblazcupx+ff+T5cTcGAFi4u27dujX2NgCM79qNy6+/+0zhk+cffk6zAQBjMRMSIEmSJBtSO/TJzz8YfksAAFJqDQAAICIzIYFFu3bj8qVPXss+Ln/B7omzSZLsHn/clEgAYGBqDVi0v/3Xx/L/mbXZtc8/KMTbs0+9kf4pAMAwrAkJLNelj18tfObZp97IPn793WfywXbtxmW1BgAMyXVrALedf/i5sTcBAOAOtQYslyUfAYDI1BqwXIUr0woTHQtDbdIOABiYWgMWqrwCZPNlaZUrRgIA9EetAQvVPLBW+RnBBgAMSa0B1CoEm1oDAIak1gCSJEl2jz++8mtcukavnA4AoECtAQvVJr3aJBx05fV3nynfAxCAJVNrALXcDhsAGNHO2BsAMI6Vq4ys/BboxLUbl7On1rXPP7j08au7J846UwBAotYAGjhiZgCvv/tM9vHtcvvktd0TZ5996o0RtwqACMyEBEiS1mFmeI1u1V2olh9wA2Cx1BqwRI6Die/SJ6+NvQkAjEytATQxGZJeuS0EAA3UGsAaDMrRrYZnlCcbAGoNWKINFoSE4Qk2gIWzJuS0OeKEvu0efzz/QjNvjQ6JMQCaqbVpu3bjcv4ydCs+A0xI5Rk3CQdAxkzIWfEeD5vZPf742JsAFezVx+XxB0ZnbG3adk+cPZ8kSZJc+/wDbyrQh90TZxMLqTOI3eOPF6bamnkLsHBqbdp2T5xNZ868/u4zY28LTMnGB8FOi9Ch8vOwcJ0kY0nvWn7t8w92b1xOkuT8I89nn8//1naPP579EUAf1NrcZNl2/uHnLDoCAOu69PGr2TXh1w7XWuKUDTAs163NxLNPvXH+4eeSJLl243L6P6NtAMGVVxlxli0mhQaMRa3Nx/lHnk+DLSPYYHvlo2fHbQzGk20U7WdK+wUBfVNrs3L+kefzR5bpINuI2wNTYUCDCDwPAShQa3NTHl5LL5UG8pzIYHSVT0LBFpM9BjAWq4zMze6Js+cffi6dxZG+u1z65LVLn7yWVpyLIgCm5dqNy/bbAyu3WTY30j0VgIGptRlKl666duNy8vBz2aVrt5e3+uS15ODcbXo74NsfOxQAOKy8XNOzT73R4d6yvMRIVz+ZIclpoFdqbYnSQ4TbBwq52/7mKy4xEAcHdk+cNQ9qgfzSKfOsAAam1mZrg9A6VHHJnZAzFsfseUrTRq+jKPkzZZIApqs8LP8Pf/nhWBvDDKi1mTv/8HOXcqNnm2kYi8sSzsEuE7LlobCJT3Si5RVQnm8R6GdgLGpt5s4/8vz5R55Pl4W89vkH3b7f3LlDQG4UzkRKYB6sJ8FEKXyYE7W2COm6I6n8Tdh67Lfkzoomxt8AyupWGdk9/nj+j0TjwAyjAaGotcWpq6ZCxSUdvWM1jL/pNyCygY/a7Q8nKtRA1qWPX72d9+kJ0+OP50/XMpZQTxImR61xW8uK2/7wpdBv4o3ReeLRUofDXA370t0TZ5OtrzdmmQpXql+7cVmtwdSpNVaojKj8uiNbJpx4Y3jrPmPNTFugvgfW2t9szcS8IOIPj6TXqBfE32ygmVpjE5Xr+GfdtU2/iTdggbL1mYis8q3N6RugV2qNzpSDavt+E28MwIEyZX2PaBVmrOV3aJXTGezxBjPdwUzdGJaXMNtQa/So836rizfz8oEJKc9YK+wq3SCbrugEmDq1xqAK/dZVvF3KxZthN1Za9wy0VR86V/l6D/XKrXySdLZS7uEffv7h55q/5dInrz0b6cEhL05Xm6gZRJynBPOg1hhTuay2uZH37Xg7OKpOD4DEG2XtF3ho8+0zc2g9lTUP/rZ5ZHZPnA0VJHX/lksfv7rWYP6dNXVvXC7s2W5fAFy1xvr5h597/fAvYt2/l6VpePUZXoNJU2vEUjgc2Sbebl8W4oI3VpnxU6Lwwin+Z6675p2gK7X/51/7/IO//dfH8neyzj7f/mem3/7sU280fMH5h5/Lfua1G5cvffLapU9ey+/Kklk/dQNqaJ4IOVT3fLt24/K144+Pvnmd23iXVbfM9WY/qvCrX/iOlJ6oNULLx9s20yZd8EZmg3fT0Vd9aIiuQiRM+lihcv3xOpvN79r48Xn2qTcuffJaeeCxvwf8/CPPZ3/FoQG63K4slY3RFT8zuwP0YXQ7enztxuXX330m+x1lVySWD/TLmi9fzH7OpU9e2z3+eNNm57I/Lf/s56ffmP3/WlsyxdM9uyfO7h5MRc7/22//6cHH6UORf2QKj9Lt/7xx+drnHxR+YJJUrFyVfv71d5/ZPf54etolKb2PXLtxOZsUXfnbzP/8ul93+R9V+UeFf3X2lxb+ivw/pPCnhe0sfOX5h5+z/+mQWmMyOrzmrfKCt0S8LUPh2bLykqE+NqBhjCv7mgG3KITywxLH7SOPT15LuvvVtFmJNDuka/6yim4sXWZZHgw89MnFHFc1T/RNX4mbTeVYOY+38Ia1m37wyWuFfst/cP7h5y7l5vZnb1j5jUx/Tnl2d+Ez2amQ4vmd3Len8VB9Tel2N1YFtqHWmKq6eLu0/moQhe91wduM5c8rr6XDNfpef/eZTn4O28j/Qgsfpx+kR67Z3iA5uEn69s+E3RNnG+ZA9iQ/Onfns1WvhUP3EjiclOWFKzvcwmFsvAdIDsYWGn5y5RrIlw5HfufNU/6Bzz71xu6Js6+/+0zFkOyq712CLJjLpznKv6byV9Z9TV75OZZeelr3W7iz28mNguaz/PbHVc1c/TMrF0lKT0Yc/H/dN9bN3aj8/J3zC6VZHtkfTXFHEc1dt27dGnsboHvbXPBWIN5moHzMlDr/8HMtB1QvffzqpcNzzzY+4P7bf31ss28cUuWzve5QteVLY+WX5Vto98TZSx+/mr7uyq/i/J+mH6Tfnp89mH5c6Kvzjzyf7RzyM4LOP/zc7UlNhycLVV5Jeyk3HtJSuoX59ltL4ekXUDHkSk+V6mfU4DvVlo/k7esG10m79CmR/Yorv7dw/F33QeFntvk4P9Mye1Qvffxq82hhefC2dmzNLSXYSPs3WRoYW2OeurrgLTm8Wkli2uR0pL/3yl/6Bq1VWMT/2o3LaXRlz4fV2zP2OtoNx9OHhlOclThQfijSV/3tDmy8yKfhh2zg/CPPZ/GZdHQeqlvFyb3lzVunNts/aO1vbb/JfTuSNTY7/6s5v9Esj/xffbvfjj9+p8oOPm54cApnFdNzE8E7H1hJrTF/Hc6ZLH+71SbjyP9eOj+Wza/RV5g5M+Rxc/MIxgwmqiVVm103vFb3D6z8+vzplfQodvfE2TSBsh91ewSsxYmYUV7v5b+0YirXpldehdJ++3v9l+ZP62QTmLNRrOSg27NFRPI5XfhR+TG32z8nXaxi64UNd48/vnuw5GPd+YXyd2Wu3bjc6hLKunH13AqlvZri3iz75WZPHmtvsBkzIVm6LeOtLFu1Qr/1KjtO3eDwdMu5GZ1MZaxc9SGpaZXt/zqWqfLSmsI1J8tU8UJrvDVC9qpPT9zkvyC7o0M27TZbESR9Oxh9IkY2JdjOZBTZkye9pHDcjWGKjK2xdNkbWPqGun283fnGw4NviX7bwjZtllc+0hrYKCtMsFh3Tgq0W7Gw/HEyrzVLOzlcLvyENMlGn+rcwFvPuFz1x5aMrUGTzkfeksMTabyJFhxaxKzTOV0ddlo692njzVBrzEZD4yXlxeIDHLBuXGvZ8FRSn775dfDStwwvdmB7ag3W0Ee8pZYzBFe86KvPSVm7h1dg71bhirU2Z9YLK7YBSf1rv499wuiTEgHWpdZgcwMs0Ra24qpv1VI/gWqY0+pbrpMOABCKWoMupbdjSvpfYjs/nTKpvzK+P/lbr44lf4uhRJ4BALOj1qBHhQWdB8ubyvUGu70H1PC1ps0AgKVRazCo/MVOcW5xW1k+lTfYGWbt70KYJdoMAFgktQbji5lwvTo00KfKAACqqDUIqpBwSYz1ryutHJrrdhImAMBCqDWYmOw+0bf/c6SQ+4e//HDgvxEAYGl2xt4AYD0rb89a+CAZ6mIzAAC6pdZgVtpfAFa8N1pjyLW59TMAAN0yExIAACCiu8feAAAAACqoNQAAgIjUGgAAQERqDQAAICK1BgAAEJFaAwAAiEitAQAARKTWAAAAIlJrAAAAEak1AACAiNQaAABARGoNAAAgIrUGAAAQkVoDAACISK0BAABEpNYAAAAiUmsAAAARqTUAAICI1BoAAEBEag0AACAitQYAABCRWgMAAIhIrQEAAESk1gAAACJSawAAABGpNQAAgIjUGgAAQERqDQAAICK1BgAAEJFaAwAAiEitAQAARKTWAAAAIlJrAAAAEe2MvQEA0/DZ5d9+dvm31y//v4YvaPNzHjz7QN0fnTz7Jyu/vuHbAYCZuevWrVtjbwNAXJ9d/u3PX/1lyxIbWFZuhcxLP6/rAGDq1BpAtcidtq603LKoy0JO0QFAZGoNoGhOndZGoeXSzwg5ABidWgO4Y2md1kbluJyWA4ABqDWAJGnRaQeVcugKsZNbRMv1+r/rs8NrmYStx3LIqTgA6JBaA5auTad9+/lvxemQ/Kbmky9rvNHrTsUBQCfUGrAIdQHT3Gnnnv/Wt59/oreN6l32T8uibtyiU3EAsBa1NkPpQdjKCV3lj5m9lQfoK7+g4W5jW/7kaKbeaS2lv5fyAN3Av698xbkuDgAyam0m0kOrLVdHqLx3k5W+u9X8C9o+liYXRQE9ePaB//6//tvYWxFCoeWGD7kHzz5gII6YVp4Y3UC3z/Dtt63N9nhVQt/U2ky8+Kf/NPDfWN5BF+7PW/dldZ8MrvJtr/zJck3JpwmJdn1aZOOG3OyXqdysBFY+AnN6iDrU8DhbIbZbbZ6BlccSm/0oT3jmQa3NxPC11p+xdq/ekpdMp3Xos8u/HXE4Lpl4y8W5h8RUHrGyCI8eS1P5eik8FQd7TbUs3l6dW8ClBINRazMxp1qDwTx49oEHz/7JSVPsBjF6xaXKU76DzPeO02kAW3r5//7PsTdhPnbG3gB6Ub4x1FRu38Qo2k0pWeNc3TZ3IVuLypqQwxee3TntWqi4vvdOn935u1otxVT44vwflU9gF76x5fNTpwFQx9jaTLz4p/+UTuVK1j9+La/xnYy9zPeitPx9NcdScx1JGiYnf13ciANx0GCAXevGT/vSiYPas7e9bgaLZWytQ2qNNRT219erdt/lt4FZ7uVrVk85FFTlglJNsKXRl6kcTHmKRGrlofYsH41RZDOl6/504O2Jr/1zr/L4oeoHerZPlVrrkFpjTM372ZZ78y2tnLPnLRmmYh4tN8yaN+s+LMPskNe1zaRr+/blCLUTCPJS2mCIdS1uhNMhtQbAIpRnfUeb8r2Qe7ID0J5aA4DbKq/jLQzgFE6Nb7+GUzrjTqcBUKbWAKBHzf1mPh4ADdQaAABARHePvQEAAABUUGsAAAARqTUAAICI1BoAAEBEag0AACAitQYAABCRWgMAAIhIrQEAAESk1gAAACJSawAAABGpNQAAgIjUGgAAQERqDQAAICK1BgAAEJFaAwAAiEitAQAARKTWAAAAIlJrAAAAEak1AACAiNQaAABARGoNAAAgIrUGAAAQkVoDAACISK0BAABEpNYAAAAiUmsAAAARqTUAAICI1BoAAEBEag0AACAitQYAABCRWgMAAIhIrQEAAESk1gAAACJSawAAABGpNQAAgIjUGgAAQERqDQAAICK1BgAAEJFaAwAAiEitAQAARKTWAAAAIlJrAAAAEak1AACAiNQaAABARGoNebYZrQAAHRJJREFUAAAgIrUGAAAQkVoDAACISK0BAABEpNYAAAAiUmsAAAARqTUAAICI1BoAAEBEag0AACAitQYAABCRWgMAAIhIrQEAAESk1gAAACJSawAAABGpNQAAgIjUGgAAQERqDQAAICK1BgAAEJFaAwAAiEitAQAARKTWAAAAIlJrAAAAEak1AACAiNQaAABARGoNAAAgIrUGAAAQkVoDAACISK0BAABEpNYAAAAiUmsAAAARqTUAAICI1BoAAEBEag0AACAitQYAABCRWgMAAIhIrQEAAESk1gAAACJSawAAABGpNQAAgIjUGgAAQERqDQAAICK1BgAAEJFaAwAAiEitAQAARKTWAAAAIlJrAAAAEak1AACAiNQaAABARGoNAAAgIrUGAAAQkVoDAACISK0BAABEpNYAAAAiUmsAAAAR7Yy9AQAAQDj7n7+f/88/fPF+7uN/a/jir33veq8btihqDQAA5qlQXEljdJW/mNGpNQAACK0hupqHuZg6tQYAAANpP71QdJGoNQAAWFeb6JJbbE+tAQCwXAa7Vto5/kThM/d8/c9zHz/R/MVsQ60BADATdemlu5JSRzUUV/mLGYtaAwAgrnxZ1Q18Laq+2keX4poBtQYAwECMfWVEF22oNQAANiG9UpXdVZ5bWP5KWEmtAQAsUfN9k5Pl3cjLYBcBqTUAgFnZ//z9P3zxfrm1krnnVl5deukupkWtAQBMRsOAWJpnM+6xfFmpLxZCrQHAom18cO+wuPDQNTwgG8w5rPvG2TD2BW2oNQCYmLoFzZN4FxpVHmrnLwfKfTLiMXrdo/fVr/95xh21AekFPbnr1q1bY28DAFCUxkD+6qMl50HD8g/J4SToqgf2P39/UUlWftwaHuS6bwE6p9YAIJaldUKvNiiKGTzy6b+6PIZppAsmR60BQCA3f/WTm7/657G3gmkoDzmmPSbDYDZctwYAUUi1JWhzLZ8bKwMptQYAIWyQau2v5mr+xu01zB4srIOS+3ysBVHa2zn+xH3f+Ov2K0CqLGBjZkICwPgqUy1/9VGWXss59C80T7n68r3XR+kd+eZfH/nm/+j8xwK0p9YAYEzlNUVWDt2wUsNNDupYgQMISK0BwAjSnCiv/bhz/Ik/evLiSBsFQCyuWwOAXpSHd9KZew1z9ky9AyBPrQHAGiqn2HVyAZVUA6BArbEUddcwlBcla9Bwp1FXOMBc3fzVT/7wxb/1vVyhVAOgzHVrzEp6OPWHL97PGmz49aDza7glBzmn5SCm/gbK1iLVAKik1piqQphN4i49hcW4JRx0rm7N9+EDrI10J2D5RwDqqDWmYYpt1tLO8SeygTgn16Fs5fBXEnufkC+xe77+56ZPA9CeWiOobG3rJPZxWB+yfjP+xrxlL+38eonlP42p0GAHHzxR+QUAsBm1RiB1dx/qUOH4qbxqSBsDT6kSb0xaPslGvKB0G+m9qrOPx90YABZFrTGy/c/fT4/hujp6y46lhp9xlE3XzD7Txzpy4o1o6obIJpdk2cdWCQIgCLXGCLoaQ8sW7ZjEEVXapenH3dZp+ggE/+czXRONscr6SkxWBGBS1BrD2f/8/W2uQ5tWm7WUJVwn/ZYNu1mthDaaV+8IGGMrLxVL5rJnAICUWqNf2wyjZWtbJ0s6Auuq35Rb5/Kjo6k4ozTlp0rdLeAjN5i1OgCgQK3Ri42H0czrK7v5q58k28WbctvezV/95Oav/rn919dNw0tyKVJov7LCGol5AaOrWeFmg/lPAgB11Bpd2izSsvXWHLqttP3Imx7ezH/+7OTYmxDdiAv8AMBcqTU6sEGkaYZOZPG21rBP5sg3/zqxtmQ7aq0wX1GPAcAA1BqbWzfSsuvQHN71oZNyM1WyIHtu/9d7F8bdkl6V522KMQCIQK2xtnXvkGai4yjSq902KDfDnpnytWrlxyTg9WMNt4C3egcATItaYw3pYNpakeaIMIKNy23JA26FVNs5/sQfPXlx5XcVbk2WaVgvpE5hbZKDT1a8oLzKAGCu1BqribQ5UW5t7H/+fmHq49e+d32sjQEAFkutUWuty9JE2uSsO6M1s4SpkoU1RY58868XkqkAQChqjQrtB9NE2jxsfEu3Wd7JrTAHUqoBAGNRa9wh0ki2mCqZzGLYTaoBAHGoNZKkdaeJtEXZeKpkZnL3c9tsZREAgJ6otUVrH2mJ+6Qt2zYDbpng8WZlEQAgGrW2UAbT2MyW9+DOS+MtCXPNm5VFAIBo1NritOk0kUYbWbltM1syky1YMsrgm8vVAICA1NpSGEyjbx0Ou6Wyfkt6TjipBgDEpNbmz2Aao9j4rgDNCgmXHFxXuTEriwAAYam1OdNpxNFTvGXS53AWcslBy+X/tMzKIgBAZGptnlZ2WjpAYboXY0njLelu2mQn/ujJi85cAABxqLUZ+q/3LjR3msE0oul2wZJ1GU8DAGJSa7NSuAKnQKcxIUP2m1oDAGJSazPRPPXRGnfMQPr0zhIu+8z21BoAEJNam4nCjX1TBtNYgnzFpdKWS1rknNcIABCZWpuJcq1ZLwHyyuXmBQIABLcz9gbQPfMeoUybAQCTo9ZmxbQuAACYDbU2H4bUAABgTly3NhP7n79vSA0AAOZErQEAAER099gbAAAAQAW1BgAAEJFaAwAAiEitAQAARKTWAAAAIlJrAAAAEak1AACAiNQaAABARGoNAAAgIrUGAAAQkVoDAACISK0BAABEpNYAAAAiUmsAAAARqTUAAICI1BoAAEBEag0AACAitQYAABCRWgMAAIhIrQEAAESk1gAAACJSawAAABGpNQAAgIjUGgAAQERqDQAAICK1BgAAEJFaAwAAiEitAQAARKTWAAAAIlJrAAAAEak1AACAiNQaAABARGoNAAAgIrUGAAAQkVoDAACISK0BAABEpNYAAAAiUmsAAAARqTUAAICI1BoAAEBEag0AACAitQYAABCRWgMAAIhIrQEAAESk1gAAACJSawAAABGpNQAAgIjUGgAAQERqDQAAICK1BgAAEJFaAwAAiEitAQAARKTWAAAAIlJrAAAAEak1AACAiHbG3gCA+fjqo/eav+C+R58cZksAgBlQawDrSZPs5ke/vPnRL/OfWVdabkce/Vb6n0ce/ZaWAwDy7rp169bY2wAwAV999N5/vvWPm4XZWu579Mks4b7+gx/1/dcBAGGpNYBWvnjrlS/eemWUvzrrN/EGAItiJiRAdF999F46ppfmYtpsyg0AZs/YGkCTrz56L70+7eZHvxxgGuS6lBsAzJhaA2jy2xe/X460/AIh2TVmLdcIyX5atkhJ+sGWKZjOlrRUCQDMiVoDqFW4Vu3rP/hR3znUyVCeATcAmAe1BlDr19//4/x/PvDyT4cfucr6bYM1TmQbAEyaWgOoVh5Yi5A96SatO/I2wKggANA5tQZQrTCw9o2f/sdYW1Jng3IL0pwAQBtqDaBCzIG1BunWtpwtaYYkAEyCWgOoEH9grc662WaGJACEpdYAiiY3sFYpXZ6kTbalq/9P8d8IAPOm1gCKCgNrE621TPvRtqn/SwFgZtQawCHzGFir1DLbXNUGAEGoNYBDZjawVumLt15ps5LkLP/tADAhag3gjhkPrJW1vLBt3g8CAESm1gDuWMLAWlmboTbTIwFgeGoN4LbCwFoyqYX7t2eoDQCiUWsAty1zYK2sXK1li31wAGBIag0gSRY/sFbWZgFJzQYAvbp77A0AiEiEpCX2jZ/+R8ND8cVbr/z6+3/c5k5uAMAGjK0BGFhbbeX0SONsANA5Y2sARaqjLBtnu+/RJyu/wDgbAHTO2BpAcX0RA2vNVl7SZpwNADqxM/YGAIysUB0yY6X8Q1TZbOm0Sc0GAFsytgYsnYG1LTVf0qbZAGBjrlsDFs3A2vaal450PRsAbMzYGrBoBta6ZZwNADpkbA1YLgNrnTPOBgAdMrYGLJeBtV4ZZwOALak1YM6++ui98idvfvTL9P/zfyoeeqLZAGBjam3OsiPRurvZwgAaeqnNJ1v+wC3d9+iTD7z8085/LBnNBgAbUGvzVHlgdN+jTx559FuJi3PYQr6UsrgqVFYfNdWT+x598ms/+Jvs43E3Zgkami3dL9k7AUCeWpuh3774/ZWHy8qNgnKG5RtsQgG2FkNqo2hutiOPfks5QyeyXXfdzIX0SCDPqw+iUWtz0zzdqJJT2gtReNvO3rznWmJtqLWxpLuphmazR2JCutqLdlVKX3303n++9Y+dbFW2SYWuy/5T3UHf1NrcbFBrmXTAzYnt6cr3mBirkz29v/aDv/FUH5dmY7o6LKI2KndW5ZGxdM8/4m6/sJ0aD7an1uYj3Tvf/OiXndzLyIBbQPMYHKt7ky4fdrT/0/Z/CwFZgIQpanPRAW3kd9f5XX3+Y7t0lkytzUThbSNdOyG/d/vqo/fSg3vzJGOa1mVjdWdPXQLBxjQbMVVWWbpni7ZnXgiTM1katTYHhaOcNoc1zROQKqU/0zzJbWTjn5GHxQpvhM5uMiTNRjS//v4fj70JW1m53w74NtSh0d+2CmfSR9ySgbkmvENqbfI2SLW8dMytcJvgNrJVJfVbg3yeBXlHrIsxv0Ti0GyM7quP3kv3ipW1Fn9srTzFpr3KO7UU/jPyv50IvvHT/xh7E+ZDrU1bepVz/jPbnMzYYMAtT78Vhs7GejPL95gYY7pWNlsy60nadYtYVE4DSz/2Ml9Lw/zz7I/ue/TJyj15tihX0s/DXvf2UbcQf/ZHYy0V1ibwEo23JGqtQ2qNCltmWybfb8nsjiTGajODYyxHOvjfvC+a61Dblgv8ph9Urtkw731FYVecpUK3g0Ju/rE9I3jzptY6pNZo0uZQaV1ZwiXTGYUb8nozl41BQZvzR/Mbatum1tqrW46v7jMD7IXaDCuVh5j62CenJwK+eOsV6ydFUHenb2kXk1rrkFqjlY0vb2svffMrry448MFB34vj5/+ZSgza++KtV9rsgqY+1Jat3xvnYtfFmvpzackaBu6GlJ6SruvMefPa6ZBaYxNjHU80nwZuNsy52LIsz6YykAiRtRzwn+5Q29RXIJwTtQZEoNbohvPBmTTJvvaDv0mMmEFvWk4U/PoPfjShEyXlNX7Lp6UqJwQufK+7jcJJwIVc3QdMiFqjL0vot/y4WeLdHQbXckmk9HLZ+OMkhYG1DS78qJxztcyoq5yLYf45MDlqjeFka3Vk/z+hQ4fysvje6SGO9kNtSdQZklvePHMtLddbT2Lspcs728q1Luu+GGDS1Brjy1dcMmrIVa7H6L0fpqL93UcCZtv2A2tD6mMXbWcLUKbWmIDm9ZTaLLJUOPnqXCzMW/vl74Nc2DbkwBoAE6LWAJinte4YOW62FQbW1BoAKbUGwMy1nyGZVE2STG/1luTmSHcbdQbWAKij1gBYivYzJJODlSTrVrVN/zTp4uI3A2sA1FFrACzLWjMkW0r7aoNhNwNrADRQawAs1FozJNeSjbw1Ly371Ufv/fbF7+c/o9YAyFNrACxdf9lWkM+28gRLqQZAgVoDgNsqJ0lmA2VJktRdxraNDi+BA2Bm1BoAVEibrfJStDTqko6G4x54+aej3/ANgJjUGgBsZct4U2sA1FFrANClLN7aTJu879EnH3j5p4NsFwDTo9YAoHdptqUVl6xaKxIAUmoNAAAgorvH3gAAAAAqqDUAAICI1BoAAEBEag0AACAitQYAABCRWgMAAIhIrQEAAESk1gAAACJSawAAABGpNQAAgIjUGgAAQERqDQAAICK1BgAAEJFaAwAAiEitAQAARKTWAAAAIlJrAAAAEak1AACAiNQaAABARGoNAAAgIrUGAAAQkVoDAACISK0BAABEpNYAAAAiUmsAAAARqTUAAICI1BoAAEBEag0AACAitQYAABCRWgMAAIhIrQEAAESk1gAAACJSawAAABGpNQAAgIjUGgAAQERqDQAAICK1BgAAEJFaAwAAiEitAQAARKTWAAAAIlJrAAAAEak1AACAiNQaAABARGoNAAAgIrUGAAAQkVoDAACISK0BAABEpNYAAAAiUmsAAAARqTUAAICI1BoAAEBEag0AACAitQYAABCRWgMAAIhIrQEAAES0M/YGQF/e+XQv/5+/+PTL8tc8fepY9vG5U0d73yYAAGjtrlu3bo29DbC5NMl+8emX7/zmy/xntpSW27mHjiUHRaflAAAYmFpjStISe/nta0lHVbaWQsLpNwAAeqXWCG3cPFvp3Kmjaby9+J2TY28LAABzo9YIJyu0gHnW7KXvnkyUGwAAHVFrRPHOp3s9jaE1T1nsqQmVGwAAW1JrjKmTYbTbl5OdOpYkydMPHct/cuNN+sWdNUu+3DLnZBsAAJtRa4xgm0hLM+zF7+4mw67T+M6ne1smXHqRm2wDAKAltcag0umOa6XOWHm2UtZvL/3v62t9o2wDAKANtcYQ1o20c6eOnjt17OmHprRK/stvX0/WHHaTbQAANFBr9GitSMvG0CZUaHXScms/5ubaNgAAytQavWjfaedOHQ04y7Er6WzJ9gNuL333pGYDACCl1uhSGidtxpTSSJtlodVpP+BmqA0AgESt0ZWWg2kLjLSytbJNswEALJZaY1ttOm3e0x039vLb19tMknzpuyefPjWlBVcAAOiEWmNz7TtNaTR7+e3rK4faTI8EAFgatcYmVnaaSNtAyxmSpkcCACyEWmM9K0eBdNr2Wg61aTYAgHlTa7S1MiFe+s7Jad3POrg2Q22aDQBgxtQaqzV3msG0vq3uZM0GADBHao0mOi0OzQYAsDRqjWrN64jotLGsnB6p2QAAZkOtUaTT4tNsAABLoNa4Q6dNTvP0SM0GADBpao0k0WkTp9kAAGZJrdF0rK/TJkSzAQDMjFpbtHc+3fv2v/x75R/ptInSbAAAs6HWFqph6qNOmwHNBjOQ7qjz/9nmu8p773MPHcv/59OnjtV9JQDRqLXFab5E7aXvnHzxu47jZ6J5juu5h45pNgjrrh/9nyH/urTcsq5Li07OAYxOrS1Lw+G7Tpurpl/6d08+feqYAzIIaOBaa1ZuOfsNgGGotaUw9XHhmpvNIBtEE6rWGqQD9enHKg6gc2ptEeqO1HXaojTfU1uzQQRTibRmEg6gK2pt5upWfdRpi2UBEgjr2//y7/kZEOdOHT136liSJE8fXiZkpV/85svyJ9/59MuDD1qtVtK5LOH0G0B7am3O6o7LXaKGZoNoCq/KYXbUWbllgTdk1Ok3gJXU2jzVXaVmSI08F7NBEIUX47lTR3/+V3824vZk0veRQsv1F3L6DaBArc1Q3ezHn//Vn3nzo0yzwegKl6tNYnedD7n+Ku6lgwFG+yJgmdTa3FQeeZv6yEqabaX8Q2QEgA6NMgeyP+98utdfwnnpAUuj1malfMBt6iPtWTSyWWEFiLzsCHLhDxHrKs9an3qq1cknXIf9Jt6A2VNr81FOtbm+69Mrd9Ou01BrBeJtlto3xi8+rViS8fYP+U3TGh5xLlcbQE/9NuTMyXSzF7tLBIah1maifK3aJC57ICwTIzMvv319ywldabwtOXQnrW7Rpm7deuUvev35k9BHv20/+Ja+t2Y/JP2Zlc8Kd5mj7J1P9zwT2JJam4n8WX+zH+mKZmu+1cFm0tdm/qgu//m5KhzXZqNP71TdGSyUYe5OptbKsnhL6mdor6vw6ksaX4B1S3Zt8DfW/mnNnfSyrWr/o/LqYrLltx/6rjXv9TeWmHuSTn4FE7WcaQIDUGszkdXaoibSMIwlN1t5pb70gz5mcOVlb+qFQ6XCMdzw7/3lf29+1l/hgGmsuzBPjv12Sz1Nnpy6/H7Aw0IQzkB1SK3NRFpr3vLpycq7aSdzvEar5Up90Y4gO0y4CP+ceTt36ui5U8dcYLyZaC89IKPWOqTWZiKdrSHV6NWimq38j2353pMdQXY+hZI4NpxUdjA0+vRDi5j+OjyvPghCrXVIrc3Ey29fd3aWYay8lGse0yMLK0BuvMKqw8cZsL7uRHUy+JaOf5Z/SH4pr/yNwrf862Ae1FqH1BqwiXk328YDayvlF05459OmxdznqjCaVB5uisbw12zkX31Juxdg5erK7Vf5y37yL1atgfFO6a4P2+wW0sXG2nzlyg3LK2/kuM5VrcXSYJSdTPpUWdROPmXP2SG1Bmxurs1WWFxksKGVumO7/EFSnHf98ptx/uCpcGDknZtJiL+IX5s9QMDNBjam1oBttWm2ZDqXtLVcXCSOyqO3tU6ZF9SdgXYICAADU2tAN9rcmmwSQ21jDawBABSoNaBLL799PVm1okbkZpvcwBoAMGNqDehey2ZL4k2PNLAGAMSh1oAeTWt6pIE1ACAUtQb0rmWzJWMPtRlYAwBCUWvAQNpMj0zGG2ozsAYARKPWgEGlN6hd2WznTh0999CxIbPNwBoAEI1aA8bRZnpkMtQMSQNrAEBAag0YU8vpkUnP2VYYWLv1yl/08bcAAKxFrQEhtBxqS3rINgNrAEBMag0IpP1QW9JdthlYAwBiUmtARC+/ff2dT79859O9ll+/cbkZWAMAwlJrQGjtZ0im0sUkk9blZmANAAhLrQET0HLd/7J0zO3pU8fOnTpa/lMDawBAZGoNmJKNsy2VNls6+PbOb4ozLQ2sAQChqDVgqta9tq2ZgTUAIBq1BkzeWitJFrz0nZNJkjz9UPVUSQCAEak1YFbWLTezHwGAsNQaMFtpuTXPllRrAEBYag1YinSFkoOPv0yS5MXv7poACQCEpdYAAAAiunvsDQAAAKCCWgMAAIhIrQEAAESk1gAAACJSawAAABGpNQAAgIjUGgAAQERqDQAAICK1BgAAEJFaAwAAiEitAQAARKTWAAAAIlJrAAAAEak1AACAiNQaAABARGoNAAAgIrUGAAAQkVoDAACISK0BAABEpNYAAAAiUmsAAAARqTUAAICI1BoAAEBEag0AACAitQYAABCRWgMAAIhIrQEAAESk1gAAACJSawAAABGpNQAAgIjUGgAAQERqDQAAICK1BgAAEJFaAwAAiEitAQAARKTWAAAAIlJrAAAAEak1AACAiNQaAABARGoNAAAgIrUGAAAQkVoDAACISK0BAABEpNYAAAAiUmsAAAARqTUAAICI1BoAAEBEag0AACAitQYAABCRWgMAAIhIrQEAAESk1gAAACJSawAAABGpNQAAgIjUGgAAQERqDQAAICK1BgAAEJFaAwAAiEitAQAARKTWAAAAIlJrAAAAEak1AACAiNQaAABARGoNAAAgIrUGAAAQkVoDAACISK0BAABEpNYAAAAiUmsAAAARqTUAAICI1BoAAEBEag0AACAitQYAABCRWgMAAIhIrQEAAESk1gAAACJSawAAABGpNQAAgIjUGgAAQERqDQAAICK1BgAAEJFaAwAAiEitAQAARKTWAAAAIlJrAAAAEak1AACAiNQaAABARGoNAAAgIrUGAAAQkVoDAACISK0BAABEpNYAAAAiUmsAAAARqTUAAICI1BoAAEBEag0AACAitQYAABCRWgMAAIhIrQEAAESk1gAAACJSawAAABGpNQAAgIjUGgAAQERqDQAAICK1BgAAEJFaAwAAiEitAQAARKTWAAAAIlJrAAAAEak1AACAiNQaAABARGoNAAAgIrUGAAAQkVoDAACISK0BAABEpNYAAAAiUmsAAAARqTUAAICI1BoAAEBEag0AACAitQYAABCRWgMAAIhIrQEAAESk1gAAACJSawAAABGpNQAAgIjUGgAAQERqDQAAICK1BgAAEJFaAwAAiEitAQAARKTWAAAAIlJrAAAAEak1AACAiNQaAABARGoNAAAgIrUGAAAQkVoDAACISK0BAABEpNYAAAAiUmsAAAARqTUAAICI1BoAAEBEag0AACAitQYAABCRWgMAAIhIrQEAAESk1gAAACJSawAAABH9f7MGxRbz/GkNAAAAAElFTkSuQmCC;clipPath=inset(22% 9.33% 69.11% 11%);direction=north;" parent="PvffXtldvGFclzvf1Mkj-34" vertex="1">
          <mxGeometry x="264" y="362" width="6.18" height="53" as="geometry" />
        </mxCell>
        <mxCell id="PvffXtldvGFclzvf1Mkj-49" value="" style="shape=image;verticalLabelPosition=bottom;labelBackgroundColor=default;verticalAlign=top;imageAspect=0;image=data:image/png,iVBORw0KGgoAAAANSUhEUgAABI8AAANrCAIAAABA5S9PAAAACXBIWXMAABcSAAAXEgFnn9JSAAAAB3RJTUUH6AIcDAIakILqlAAAACR0RVh0U29mdHdhcmUATUFUTEFCLCBUaGUgTWF0aFdvcmtzLCBJbmMuPFjdGAAAACJ0RVh0Q3JlYXRpb24gVGltZQAyOC1GZWItMjAyNCAyMTowMjoyNrhQjsAAACAASURBVHic7d1NqB73fejxsTkGy+AiJdKmuGAdmQTbEtS1oI4XtlJEssumuSFa3oVf6Kb3NptSL2wvUrpxm26KX+5exqSb7HwRN44XjgtyfUGyTUIsGW7oRnZ9aMAK5IDuYnRGc+btmed55uU3M58PIRwfnXM0es7zzDPf+f/nP3fdunUrAQAAIJi7x94AAAAAKqg1AACAiNQaAABARGoNAAAgIrUGAAAQkVoDAACISK0BAABEpNYAAAAiUmsAAAARqTUAAICI1BoAAEBEag0AACAitQYAABCRWgMAAIhIrQEAAESk1gAAACJSawAAABGpNQAAgIjUGgAAQERqDQAAICK1BgAAEJFaAwAAiEitAQAARKTWAAAAIlJrAAAAEak1AACAiNQaAABARGoNAAAgIrUGAAAQkVoDAACISK0BAABEpNYAAAAiUmsAAAARqTUAAICI1BoAAEBEag0AACAitQYAABCRWgMAAIhIrQEAAESk1gAAACJSawAAABGpNQAAgIjUGgAAQERqDQAAICK1BgAAEJFaAwAAiEitAQAARKTWAAAAIlJrAAAAEak1AACAiNQaAABARGoNAAAgIrUGAAAQkVoDAACISK0BAABEpNYAAAAiUmsAAAARqTUAAICI1BoAAEBEag0AACAitQYAABCRWgMAAIhIrQEAAESk1gAAACJSawAAABGpNQAAgIjUGgAAQERqDQAAICK1BgAAEJFaAwAAiEitAQAARKTWAAAAIlJrAAAAEak1AACAiNQaAABARGoNAAAgIrUGAAAQkVoDAACISK0BAABEpNYAAAAiUmsAAAARqTUAAICI1BoAAEBEag0AACAitQYAABCRWgMAAIhoZ+wNAAjhyt7+m9dvXtnbT5LkzNGd08fuufDgvWNvFACwaHfdunVr7G0AGN8LH/4uTbW8CyePaDYGk50sGHtDAIjCTEiAWle//MPYm8CCvHn95tibAEAsTuABi1YeTwMACMJMSGDRvvfzL5u/IJ2W5jI2+nNlb//q3v7FwwNrP37sflMiAfBOACzXxc9+n//PM0d3Lpw8khwMuKVHz+nHV/b2Tx/dcfRMH1748HflT755/eaZx+4ffmMACMWRB7BchcvSTh+753Q6knZ0J0mSM0d3/i53GO3omT5crZmLe2Vv/8revhMEAAtnlRFguQoXrZ1uPDJOj5573iIWx5MKgAZqDVio8phGYRzD1EfGZYlIANQasFCFMY02YVY3aQ025i4RADRQawBJkiSnj92z8pMOrOlcw0xIkyQBUGsAtcyEBABGpNaAhdpgoMxYB91aObfWUw5g4dQasFBtFoQsf9LRMwAwGLUGAOMoL3Vj8i0AeWoNIEnqL1Fz9MyILEMKsHBqDViijQ+CHT3Tn8qFSQFYMrU2Ey98+LuxNwHmySL+DMnzDYA8tTYfTvlDexvcGhs6J8YAaKbWAAAqOA0KjM7p5Dl44cPfXdnbT67fTP/zhyePGCiArpw5unNx7G1gIU4f3bkrSTzfIkiH36/u7d9KkiQ3/F6+h4c3XKBXdjFzcPrYPVf29u+8hVy/eeax+0fdIpiY9qs7uN8aHfJ0iuniZ7+/eHACNPWzbx9LP7i6t5//ozNHd7zhAr0yE3IOLjx4b/4/D5UbUMX1QkyCnXkQfhHAWNTaTBRmYphqD105XZrm5LiNnphTF4SzOUAcam0mLpw8kv9P7zQAwTmtNgPO3QB9U2vzZDIkwBSVx3KJQFoDY1FrM3H66I4pNNBe4XSGQ2TCcupteOXHPJuxYuoKMDC1NltvHl7PCtiYUyH0wS3aAVjJe8N8XDh55MqHvxt7KwBmorBWe+JullQNu13Z2/esAPpj/zJbJs9AT646OFuMwo70h4P8pWeO7tiBA5BywDEf6aVr+fd4J/ygJa8UyiouXupzp9r+Fu1AZFf39v/u8Fyn7O7qsAHXrc2ZNaygkpcGEbRcr8LTNQKjncBY1NqsFE7NWroKANYij4FQ1NqsFKboOBcInXAehAG4jcREqTugV2ptVspv9oINYDN9Z3nd/tnZAbYkIKNxMMY21NrcWCwBVnKfKwLyPAzOATcwCu8NM2epcdjemaM7F8feBobX69G50Y8pqvytXf3yD8mD9w6/MZWu7O1f3du/+uUfshHaC2G2DdiM4/i5OX3snvwRRqh3EYhp3ZXTnWJnew3PImcHxjXpF/gLBwvHZ/8KtQZTZybk3FhoBFZa90Igyz+Q6u8SsoZJEHbjtHTxs9+XP+n5E4GxdLah1ubGQiMwAC+r2Rv46Mqtsacr+N5AJ8DUOWE8Q2eO7gR/85i9wuN/tTA3NUl+ePKI6wlHVPgFtRk6K7ysXBHKli5ev1n3R5Un3TzfIgvyC6oc+3VBBEzd+DsX+vbm9ZtnHrt/7K2Yg+xgPauv/FvjWoX8ww43izWVzzS3Ocy6cPLIlYMLQpKDQ20XhNAVz6U46ua7TnSQ6sre/sXPfu8JNiRnzOmWWpuhwmElbRRKbOMMayl71087oe6vaDg4GOYWTG1mZzUMTEU42ZyXPs5vHh7TuHDySJvvPX1058LJI/nxkIvXb168fvPM0Z3Tx+45fXQn2j+WLfV6vFW4vqj85DFFYmD5R3uDRz7IYHvtW4nhNZiy8XcudO50aaGRIJM0xlKYwJbkUmes46GGSVChDPD4DPDMbP5XtN+ACw/em37x3+XOhqSvr+xHpX0r3ljLytMipkise0qr4XxWLyfgAuTQRIf+FqLwDKk8KuvjUK38Mzf+WxZ+JDkuj/s8Fc7LzvudPmCM0d5Yv6MfP3b/Bm88zVe45cstEW/UuPjZ7wvna8qz1GYwRaLypV0oisqmCrLf/vvH7r94/Wbhjjh1XZ2+9q/u7Zdf7Nnn0/9PejtF1fC4ZbsmO6JoGhIoe8I0fKYTlT9Wm4XiNzFPhXf6IG9+m2m4Wiz+v6uwszt97J504+NvOQ1azlIrxFui3yalp8nGFalWNRe3PEVimEuPViZW5L7qVjr5+UrNQHrZm9dvpge4L+ztZ7Omsw/SnUb6qn/hcDhl7ws/PHmkULNp4+U/zv9/9vk3r9/Mfkgm+/np33v7a3InNLN9UeHr6cMsXyMMxotzntJjwcJE/FD74spVE/u+WqwT+YcxO8966JPNj/OD9yZVR2xMyI8fuz+97mjdX6LBt6nbeL90ZW8/vWAyP8Rx+tg9DQFWeZ1kcvgof+XfO/CEwJlJg61wii3fXWkjNTySzecWs0/e/uBgKC97+84/B/Lhl/9L0y8u/PwLJ49cePDe7I0m/dMre/vpP6cwYFjYKaX/usIxQ6EG0+feyjOnQXZrQZ7qFz/7ff4xfLP0QeHjss0O5Mo/s/lv2f4b86yA3Ym7bt26NfY20Iure/vZbjrd86a7721+ZvMurzxpvnCgEGSP2aBwGLRGg61pZa017N3Gui/TPA770gf2wskjXf1CN8u2Ovotju/9/MvKz//s28fafHt+SZvCgXX6QZuDmKsHB9lO7gwj+42UdxHZ8yF9kZ45upN9QfpH+TOk5dzK/+pX7jArvzj/o5LSXrfQkPn3+u/9/Mu6b0k/KNdawybBWrY/8iQxtjZjp4/upCfDsp14emp241fO1b39F6Z8HUV5TOxOmw1+WJytVzHK376hLXa4bS5/7+NQoDgTtYeHOn01XTgYMk1K56rX0jB5MpFwMbzw4e9+eDB3sXAQfHVvv3mq87pPjOwZe3GzbZ21utdC3fms2q9f/zXV8B6avuGePnZPXfMUvrLyg+x78z+n7nxZ/tsLGZn6+8fuT78ge2Qa4r+rp25Mlc+B/FjiysGr8hc3/H9v/w4Wxxv/nF148N6rpV1GNp0mvVhiTsd/dSNjMXMo5lb1pM0/dgYPyO1juAfvTZLk6kF3bRNvSc2lMobg+lY+v5BNIbuyt58cntPY/vebffECZweV/73lrKp8TILsGQoTUwt/lE47rPzT7NW6wfMkr64Ai39X+XE+upNd59Z+WK/l5yfkzNGdbMg0fwVgXa1la280f3Hz/6c/qjxQ//cHC78FeXoTnGfJzKW76ReqzsmV33jqLocY5tZezUKNjMFKp7PDpoPT8F31W1IzBJccXjZgaTHQlfwMxkx5ItnGv8H8IWNL2dVTwx8uNydWh6NV8V148N66IbU7A+wHZ2qSJEnXYT59dCfbA1zI7Qpuf+bgiXRn/PzYPYWVJ7MH+czRnau5l3nm9LF70iG1pPGRP33wBVf39pPDC9tMPcOmaJavEfrjurVFSK9tjblHbl60wx6Nueow3hqYSFmWn7iYtFtjNh08uXIwG7zyCqVmG0RapaulUK88m9Z8deuiKov2ykPKzc/t9vuTCIcf+aAt3FOhUuXY2mZ/dfkqkh/P96ZK9EGtLUV/ixC2vHigvxU7YB6G6bdUvuKS6QzHrXxYGm7ntcFDmp9ukA6MZAs2JC1mQna+pA0AC6TWlmWbQbb03HCitWAo+X5Lxjg/febwzKvRb81Ut05jTyrXZEp/KdmONL/GQ5IkbeakAUB7am2hNli87szRHWP3MK78UgERpjdXXuyaD5Vuuy5CrQHAkNQaSXL4EPDOJw9fDtF8I1dgLPlrmSIkXIM2CwM2GOa2Yw033QKAgak1gBkqjMIlMS70j2NaN/wAYLHUGsCCFAbSZxNy7dea12MATIhaA+CQbGXFaFHnlrIALI1aA2Bt5Ytdt1wuv42ffftYHz8WAMJyehKAtZ0ur1NfswpR4R5odSFXeZdnAFg4Y2sAAAAR3T32BgAAAFBBrQEAAESk1gAAACJSawAAABGpNQAAgIjUGgAAQERqDQAAICK1BgAAEJFaAwAAiEitAQAARKTWAAAAIlJrAAAAEak1AACAiNQaAABARGoNAAAgIrUGAAAQkVoDAACISK0BAABEpNYAAAAiUmsAAAARqTUAAICI1BoAAEBEag0AACAitQYAABCRWgMAAIhIrQEAAESk1gAAACJSawAAABGpNQAAgIjUGgAAQERqDQAAICK1BgAAEJFaAwAAiEitAQAARKTWAAAAIlJrAAAAEak1AACAiNQaAABARGoNAAAgIrUGAAAQkVoDAACISK0BAABEpNYAAAAiUmsAAAARqTUAAICI1BoAAEBEag0AACAitQYAABCRWgMAAIhIrQEAAES0M/YGAARy7cblazcupx+ff+T5cTcGAFi4u27dujX2NgCM79qNy6+/+0zhk+cffk6zAQBjMRMSIEmSJBtSO/TJzz8YfksAAFJqDQAAICIzIYFFu3bj8qVPXss+Ln/B7omzSZLsHn/clEgAYGBqDVi0v/3Xx/L/mbXZtc8/KMTbs0+9kf4pAMAwrAkJLNelj18tfObZp97IPn793WfywXbtxmW1BgAMyXVrALedf/i5sTcBAOAOtQYslyUfAYDI1BqwXIUr0woTHQtDbdIOABiYWgMWqrwCZPNlaZUrRgIA9EetAQvVPLBW+RnBBgAMSa0B1CoEm1oDAIak1gCSJEl2jz++8mtcukavnA4AoECtAQvVJr3aJBx05fV3nynfAxCAJVNrALXcDhsAGNHO2BsAMI6Vq4ys/BboxLUbl7On1rXPP7j08au7J846UwBAotYAGjhiZgCvv/tM9vHtcvvktd0TZ5996o0RtwqACMyEBEiS1mFmeI1u1V2olh9wA2Cx1BqwRI6Die/SJ6+NvQkAjEytATQxGZJeuS0EAA3UGsAaDMrRrYZnlCcbAGoNWKINFoSE4Qk2gIWzJuS0OeKEvu0efzz/QjNvjQ6JMQCaqbVpu3bjcv4ydCs+A0xI5Rk3CQdAxkzIWfEeD5vZPf742JsAFezVx+XxB0ZnbG3adk+cPZ8kSZJc+/wDbyrQh90TZxMLqTOI3eOPF6bamnkLsHBqbdp2T5xNZ868/u4zY28LTMnGB8FOi9Ch8vOwcJ0kY0nvWn7t8w92b1xOkuT8I89nn8//1naPP579EUAf1NrcZNl2/uHnLDoCAOu69PGr2TXh1w7XWuKUDTAs163NxLNPvXH+4eeSJLl243L6P6NtAMGVVxlxli0mhQaMRa3Nx/lHnk+DLSPYYHvlo2fHbQzGk20U7WdK+wUBfVNrs3L+kefzR5bpINuI2wNTYUCDCDwPAShQa3NTHl5LL5UG8pzIYHSVT0LBFpM9BjAWq4zMze6Js+cffi6dxZG+u1z65LVLn7yWVpyLIgCm5dqNy/bbAyu3WTY30j0VgIGptRlKl666duNy8vBz2aVrt5e3+uS15ODcbXo74NsfOxQAOKy8XNOzT73R4d6yvMRIVz+ZIclpoFdqbYnSQ4TbBwq52/7mKy4xEAcHdk+cNQ9qgfzSKfOsAAam1mZrg9A6VHHJnZAzFsfseUrTRq+jKPkzZZIApqs8LP8Pf/nhWBvDDKi1mTv/8HOXcqNnm2kYi8sSzsEuE7LlobCJT3Si5RVQnm8R6GdgLGpt5s4/8vz5R55Pl4W89vkH3b7f3LlDQG4UzkRKYB6sJ8FEKXyYE7W2COm6I6n8Tdh67Lfkzoomxt8AyupWGdk9/nj+j0TjwAyjAaGotcWpq6ZCxSUdvWM1jL/pNyCygY/a7Q8nKtRA1qWPX72d9+kJ0+OP50/XMpZQTxImR61xW8uK2/7wpdBv4o3ReeLRUofDXA370t0TZ5OtrzdmmQpXql+7cVmtwdSpNVaojKj8uiNbJpx4Y3jrPmPNTFugvgfW2t9szcS8IOIPj6TXqBfE32ygmVpjE5Xr+GfdtU2/iTdggbL1mYis8q3N6RugV2qNzpSDavt+E28MwIEyZX2PaBVmrOV3aJXTGezxBjPdwUzdGJaXMNtQa/So836rizfz8oEJKc9YK+wq3SCbrugEmDq1xqAK/dZVvF3KxZthN1Za9wy0VR86V/l6D/XKrXySdLZS7uEffv7h55q/5dInrz0b6cEhL05Xm6gZRJynBPOg1hhTuay2uZH37Xg7OKpOD4DEG2XtF3ho8+0zc2g9lTUP/rZ5ZHZPnA0VJHX/lksfv7rWYP6dNXVvXC7s2W5fAFy1xvr5h597/fAvYt2/l6VpePUZXoNJU2vEUjgc2Sbebl8W4oI3VpnxU6Lwwin+Z6675p2gK7X/51/7/IO//dfH8neyzj7f/mem3/7sU280fMH5h5/Lfua1G5cvffLapU9ey+/Kklk/dQNqaJ4IOVT3fLt24/K144+Pvnmd23iXVbfM9WY/qvCrX/iOlJ6oNULLx9s20yZd8EZmg3fT0Vd9aIiuQiRM+lihcv3xOpvN79r48Xn2qTcuffJaeeCxvwf8/CPPZ3/FoQG63K4slY3RFT8zuwP0YXQ7enztxuXX330m+x1lVySWD/TLmi9fzH7OpU9e2z3+eNNm57I/Lf/s56ffmP3/WlsyxdM9uyfO7h5MRc7/22//6cHH6UORf2QKj9Lt/7xx+drnHxR+YJJUrFyVfv71d5/ZPf54etolKb2PXLtxOZsUXfnbzP/8ul93+R9V+UeFf3X2lxb+ivw/pPCnhe0sfOX5h5+z/+mQWmMyOrzmrfKCt0S8LUPh2bLykqE+NqBhjCv7mgG3KITywxLH7SOPT15LuvvVtFmJNDuka/6yim4sXWZZHgw89MnFHFc1T/RNX4mbTeVYOY+38Ia1m37wyWuFfst/cP7h5y7l5vZnb1j5jUx/Tnl2d+Ez2amQ4vmd3Len8VB9Tel2N1YFtqHWmKq6eLu0/moQhe91wduM5c8rr6XDNfpef/eZTn4O28j/Qgsfpx+kR67Z3iA5uEn69s+E3RNnG+ZA9iQ/Onfns1WvhUP3EjiclOWFKzvcwmFsvAdIDsYWGn5y5RrIlw5HfufNU/6Bzz71xu6Js6+/+0zFkOyq712CLJjLpznKv6byV9Z9TV75OZZeelr3W7iz28mNguaz/PbHVc1c/TMrF0lKT0Yc/H/dN9bN3aj8/J3zC6VZHtkfTXFHEc1dt27dGnsboHvbXPBWIN5moHzMlDr/8HMtB1QvffzqpcNzzzY+4P7bf31ss28cUuWzve5QteVLY+WX5Vto98TZSx+/mr7uyq/i/J+mH6Tfnp89mH5c6Kvzjzyf7RzyM4LOP/zc7UlNhycLVV5Jeyk3HtJSuoX59ltL4ekXUDHkSk+V6mfU4DvVlo/k7esG10m79CmR/Yorv7dw/F33QeFntvk4P9Mye1Qvffxq82hhefC2dmzNLSXYSPs3WRoYW2OeurrgLTm8Wkli2uR0pL/3yl/6Bq1VWMT/2o3LaXRlz4fV2zP2OtoNx9OHhlOclThQfijSV/3tDmy8yKfhh2zg/CPPZ/GZdHQeqlvFyb3lzVunNts/aO1vbb/JfTuSNTY7/6s5v9Esj/xffbvfjj9+p8oOPm54cApnFdNzE8E7H1hJrTF/Hc6ZLH+71SbjyP9eOj+Wza/RV5g5M+Rxc/MIxgwmqiVVm103vFb3D6z8+vzplfQodvfE2TSBsh91ewSsxYmYUV7v5b+0YirXpldehdJ++3v9l+ZP62QTmLNRrOSg27NFRPI5XfhR+TG32z8nXaxi64UNd48/vnuw5GPd+YXyd2Wu3bjc6hLKunH13AqlvZri3iz75WZPHmtvsBkzIVm6LeOtLFu1Qr/1KjtO3eDwdMu5GZ1MZaxc9SGpaZXt/zqWqfLSmsI1J8tU8UJrvDVC9qpPT9zkvyC7o0M27TZbESR9Oxh9IkY2JdjOZBTZkye9pHDcjWGKjK2xdNkbWPqGun283fnGw4NviX7bwjZtllc+0hrYKCtMsFh3Tgq0W7Gw/HEyrzVLOzlcLvyENMlGn+rcwFvPuFz1x5aMrUGTzkfeksMTabyJFhxaxKzTOV0ddlo692njzVBrzEZD4yXlxeIDHLBuXGvZ8FRSn775dfDStwwvdmB7ag3W0Ee8pZYzBFe86KvPSVm7h1dg71bhirU2Z9YLK7YBSf1rv499wuiTEgHWpdZgcwMs0Ra24qpv1VI/gWqY0+pbrpMOABCKWoMupbdjSvpfYjs/nTKpvzK+P/lbr44lf4uhRJ4BALOj1qBHhQWdB8ubyvUGu70H1PC1ps0AgKVRazCo/MVOcW5xW1k+lTfYGWbt70KYJdoMAFgktQbji5lwvTo00KfKAACqqDUIqpBwSYz1ryutHJrrdhImAMBCqDWYmOw+0bf/c6SQ+4e//HDgvxEAYGl2xt4AYD0rb89a+CAZ6mIzAAC6pdZgVtpfAFa8N1pjyLW59TMAAN0yExIAACCiu8feAAAAACqoNQAAgIjUGgAAQERqDQAAICK1BgAAEJFaAwAAiEitAQAARKTWAAAAIlJrAAAAEak1AACAiNQaAABARGoNAAAgIrUGAAAQkVoDAACISK0BAABEpNYAAAAiUmsAAAARqTUAAICI1BoAAEBEag0AACAitQYAABCRWgMAAIhIrQEAAESk1gAAACJSawAAABGpNQAAgIjUGgAAQERqDQAAICK1BgAAEJFaAwAAiEitAQAARKTWAAAAIlJrAAAAEe2MvQEA0/DZ5d9+dvm31y//v4YvaPNzHjz7QN0fnTz7Jyu/vuHbAYCZuevWrVtjbwNAXJ9d/u3PX/1lyxIbWFZuhcxLP6/rAGDq1BpAtcidtq603LKoy0JO0QFAZGoNoGhOndZGoeXSzwg5ABidWgO4Y2md1kbluJyWA4ABqDWAJGnRaQeVcugKsZNbRMv1+r/rs8NrmYStx3LIqTgA6JBaA5auTad9+/lvxemQ/Kbmky9rvNHrTsUBQCfUGrAIdQHT3Gnnnv/Wt59/oreN6l32T8uibtyiU3EAsBa1NkPpQdjKCV3lj5m9lQfoK7+g4W5jW/7kaKbeaS2lv5fyAN3Av698xbkuDgAyam0m0kOrLVdHqLx3k5W+u9X8C9o+liYXRQE9ePaB//6//tvYWxFCoeWGD7kHzz5gII6YVp4Y3UC3z/Dtt63N9nhVQt/U2ky8+Kf/NPDfWN5BF+7PW/dldZ8MrvJtr/zJck3JpwmJdn1aZOOG3OyXqdysBFY+AnN6iDrU8DhbIbZbbZ6BlccSm/0oT3jmQa3NxPC11p+xdq/ekpdMp3Xos8u/HXE4Lpl4y8W5h8RUHrGyCI8eS1P5eik8FQd7TbUs3l6dW8ClBINRazMxp1qDwTx49oEHz/7JSVPsBjF6xaXKU76DzPeO02kAW3r5//7PsTdhPnbG3gB6Ub4x1FRu38Qo2k0pWeNc3TZ3IVuLypqQwxee3TntWqi4vvdOn935u1otxVT44vwflU9gF76x5fNTpwFQx9jaTLz4p/+UTuVK1j9+La/xnYy9zPeitPx9NcdScx1JGiYnf13ciANx0GCAXevGT/vSiYPas7e9bgaLZWytQ2qNNRT219erdt/lt4FZ7uVrVk85FFTlglJNsKXRl6kcTHmKRGrlofYsH41RZDOl6/504O2Jr/1zr/L4oeoHerZPlVrrkFpjTM372ZZ78y2tnLPnLRmmYh4tN8yaN+s+LMPskNe1zaRr+/blCLUTCPJS2mCIdS1uhNMhtQbAIpRnfUeb8r2Qe7ID0J5aA4DbKq/jLQzgFE6Nb7+GUzrjTqcBUKbWAKBHzf1mPh4ADdQaAABARHePvQEAAABUUGsAAAARqTUAAICI1BoAAEBEag0AACAitQYAABCRWgMAAIhIrQEAAESk1gAAACJSawAAABGpNQAAgIjUGgAAQERqDQAAICK1BgAAEJFaAwAAiEitAQAARKTWAAAAIlJrAAAAEak1AACAiNQaAABARGoNAAAgIrUGAAAQkVoDAACISK0BAABEpNYAAAAiUmsAAAARqTUAAICI1BoAAEBEag0AACAitQYAABCRWgMAAIhIrQEAAESk1gAAACJSawAAABGpNQAAgIjUGgAAQERqDQAAICK1BgAAEJFaAwAAiEitAQAARKTWAAAAIlJrAAAAEak1AACAiNQaAABARGoNebYZrQAAHRJJREFUAAAgIrUGAAAQkVoDAACISK0BAABEpNYAAAAiUmsAAAARqTUAAICI1BoAAEBEag0AACAitQYAABCRWgMAAIhIrQEAAESk1gAAACJSawAAABGpNQAAgIjUGgAAQERqDQAAICK1BgAAEJFaAwAAiEitAQAARKTWAAAAIlJrAAAAEak1AACAiNQaAABARGoNAAAgIrUGAAAQkVoDAACISK0BAABEpNYAAAAiUmsAAAARqTUAAICI1BoAAEBEag0AACAitQYAABCRWgMAAIhIrQEAAESk1gAAACJSawAAABGpNQAAgIjUGgAAQERqDQAAICK1BgAAEJFaAwAAiEitAQAARKTWAAAAIlJrAAAAEak1AACAiNQaAABARGoNAAAgIrUGAAAQkVoDAACISK0BAABEpNYAAAAiUmsAAAAR7Yy9AQAAQDj7n7+f/88/fPF+7uN/a/jir33veq8btihqDQAA5qlQXEljdJW/mNGpNQAACK0hupqHuZg6tQYAAANpP71QdJGoNQAAWFeb6JJbbE+tAQCwXAa7Vto5/kThM/d8/c9zHz/R/MVsQ60BADATdemlu5JSRzUUV/mLGYtaAwAgrnxZ1Q18Laq+2keX4poBtQYAwECMfWVEF22oNQAANiG9UpXdVZ5bWP5KWEmtAQAsUfN9k5Pl3cjLYBcBqTUAgFnZ//z9P3zxfrm1krnnVl5deukupkWtAQBMRsOAWJpnM+6xfFmpLxZCrQHAom18cO+wuPDQNTwgG8w5rPvG2TD2BW2oNQCYmLoFzZN4FxpVHmrnLwfKfTLiMXrdo/fVr/95xh21AekFPbnr1q1bY28DAFCUxkD+6qMl50HD8g/J4SToqgf2P39/UUlWftwaHuS6bwE6p9YAIJaldUKvNiiKGTzy6b+6PIZppAsmR60BQCA3f/WTm7/657G3gmkoDzmmPSbDYDZctwYAUUi1JWhzLZ8bKwMptQYAIWyQau2v5mr+xu01zB4srIOS+3ysBVHa2zn+xH3f+Ov2K0CqLGBjZkICwPgqUy1/9VGWXss59C80T7n68r3XR+kd+eZfH/nm/+j8xwK0p9YAYEzlNUVWDt2wUsNNDupYgQMISK0BwAjSnCiv/bhz/Ik/evLiSBsFQCyuWwOAXpSHd9KZew1z9ky9AyBPrQHAGiqn2HVyAZVUA6BArbEUddcwlBcla9Bwp1FXOMBc3fzVT/7wxb/1vVyhVAOgzHVrzEp6OPWHL97PGmz49aDza7glBzmn5SCm/gbK1iLVAKik1piqQphN4i49hcW4JRx0rm7N9+EDrI10J2D5RwDqqDWmYYpt1tLO8SeygTgn16Fs5fBXEnufkC+xe77+56ZPA9CeWiOobG3rJPZxWB+yfjP+xrxlL+38eonlP42p0GAHHzxR+QUAsBm1RiB1dx/qUOH4qbxqSBsDT6kSb0xaPslGvKB0G+m9qrOPx90YABZFrTGy/c/fT4/hujp6y46lhp9xlE3XzD7Txzpy4o1o6obIJpdk2cdWCQIgCLXGCLoaQ8sW7ZjEEVXapenH3dZp+ggE/+czXRONscr6SkxWBGBS1BrD2f/8/W2uQ5tWm7WUJVwn/ZYNu1mthDaaV+8IGGMrLxVL5rJnAICUWqNf2wyjZWtbJ0s6Auuq35Rb5/Kjo6k4ozTlp0rdLeAjN5i1OgCgQK3Ri42H0czrK7v5q58k28WbctvezV/95Oav/rn919dNw0tyKVJov7LCGol5AaOrWeFmg/lPAgB11Bpd2izSsvXWHLqttP3Imx7ezH/+7OTYmxDdiAv8AMBcqTU6sEGkaYZOZPG21rBP5sg3/zqxtmQ7aq0wX1GPAcAA1BqbWzfSsuvQHN71oZNyM1WyIHtu/9d7F8bdkl6V522KMQCIQK2xtnXvkGai4yjSq902KDfDnpnytWrlxyTg9WMNt4C3egcATItaYw3pYNpakeaIMIKNy23JA26FVNs5/sQfPXlx5XcVbk2WaVgvpE5hbZKDT1a8oLzKAGCu1BqribQ5UW5t7H/+fmHq49e+d32sjQEAFkutUWuty9JE2uSsO6M1s4SpkoU1RY58868XkqkAQChqjQrtB9NE2jxsfEu3Wd7JrTAHUqoBAGNRa9wh0ki2mCqZzGLYTaoBAHGoNZKkdaeJtEXZeKpkZnL3c9tsZREAgJ6otUVrH2mJ+6Qt2zYDbpng8WZlEQAgGrW2UAbT2MyW9+DOS+MtCXPNm5VFAIBo1NritOk0kUYbWbltM1syky1YMsrgm8vVAICA1NpSGEyjbx0Ou6Wyfkt6TjipBgDEpNbmz2Aao9j4rgDNCgmXHFxXuTEriwAAYam1OdNpxNFTvGXS53AWcslBy+X/tMzKIgBAZGptnlZ2WjpAYboXY0njLelu2mQn/ujJi85cAABxqLUZ+q/3LjR3msE0oul2wZJ1GU8DAGJSa7NSuAKnQKcxIUP2m1oDAGJSazPRPPXRGnfMQPr0zhIu+8z21BoAEJNam4nCjX1TBtNYgnzFpdKWS1rknNcIABCZWpuJcq1ZLwHyyuXmBQIABLcz9gbQPfMeoUybAQCTo9ZmxbQuAACYDbU2H4bUAABgTly3NhP7n79vSA0AAOZErQEAAER099gbAAAAQAW1BgAAEJFaAwAAiEitAQAARKTWAAAAIlJrAAAAEak1AACAiNQaAABARGoNAAAgIrUGAAAQkVoDAACISK0BAABEpNYAAAAiUmsAAAARqTUAAICI1BoAAEBEag0AACAitQYAABCRWgMAAIhIrQEAAESk1gAAACJSawAAABGpNQAAgIjUGgAAQERqDQAAICK1BgAAEJFaAwAAiEitAQAARKTWAAAAIlJrAAAAEak1AACAiNQaAABARGoNAAAgIrUGAAAQkVoDAACISK0BAABEpNYAAAAiUmsAAAARqTUAAICI1BoAAEBEag0AACAitQYAABCRWgMAAIhIrQEAAESk1gAAACJSawAAABGpNQAAgIjUGgAAQERqDQAAICK1BgAAEJFaAwAAiEitAQAARKTWAAAAIlJrAAAAEak1AACAiHbG3gCA+fjqo/eav+C+R58cZksAgBlQawDrSZPs5ke/vPnRL/OfWVdabkce/Vb6n0ce/ZaWAwDy7rp169bY2wAwAV999N5/vvWPm4XZWu579Mks4b7+gx/1/dcBAGGpNYBWvnjrlS/eemWUvzrrN/EGAItiJiRAdF999F46ppfmYtpsyg0AZs/YGkCTrz56L70+7eZHvxxgGuS6lBsAzJhaA2jy2xe/X460/AIh2TVmLdcIyX5atkhJ+sGWKZjOlrRUCQDMiVoDqFW4Vu3rP/hR3znUyVCeATcAmAe1BlDr19//4/x/PvDyT4cfucr6bYM1TmQbAEyaWgOoVh5Yi5A96SatO/I2wKggANA5tQZQrTCw9o2f/sdYW1Jng3IL0pwAQBtqDaBCzIG1BunWtpwtaYYkAEyCWgOoEH9grc662WaGJACEpdYAiiY3sFYpXZ6kTbalq/9P8d8IAPOm1gCKCgNrE621TPvRtqn/SwFgZtQawCHzGFir1DLbXNUGAEGoNYBDZjawVumLt15ps5LkLP/tADAhag3gjhkPrJW1vLBt3g8CAESm1gDuWMLAWlmboTbTIwFgeGoN4LbCwFoyqYX7t2eoDQCiUWsAty1zYK2sXK1li31wAGBIag0gSRY/sFbWZgFJzQYAvbp77A0AiEiEpCX2jZ/+R8ND8cVbr/z6+3/c5k5uAMAGjK0BGFhbbeX0SONsANA5Y2sARaqjLBtnu+/RJyu/wDgbAHTO2BpAcX0RA2vNVl7SZpwNADqxM/YGAIysUB0yY6X8Q1TZbOm0Sc0GAFsytgYsnYG1LTVf0qbZAGBjrlsDFs3A2vaal450PRsAbMzYGrBoBta6ZZwNADpkbA1YLgNrnTPOBgAdMrYGLJeBtV4ZZwOALak1YM6++ui98idvfvTL9P/zfyoeeqLZAGBjam3OsiPRurvZwgAaeqnNJ1v+wC3d9+iTD7z8085/LBnNBgAbUGvzVHlgdN+jTx559FuJi3PYQr6UsrgqVFYfNdWT+x598ms/+Jvs43E3Zgkami3dL9k7AUCeWpuh3774/ZWHy8qNgnKG5RtsQgG2FkNqo2hutiOPfks5QyeyXXfdzIX0SCDPqw+iUWtz0zzdqJJT2gtReNvO3rznWmJtqLWxpLuphmazR2JCutqLdlVKX3303n++9Y+dbFW2SYWuy/5T3UHf1NrcbFBrmXTAzYnt6cr3mBirkz29v/aDv/FUH5dmY7o6LKI2KndW5ZGxdM8/4m6/sJ0aD7an1uYj3Tvf/OiXndzLyIBbQPMYHKt7ky4fdrT/0/Z/CwFZgIQpanPRAW3kd9f5XX3+Y7t0lkytzUThbSNdOyG/d/vqo/fSg3vzJGOa1mVjdWdPXQLBxjQbMVVWWbpni7ZnXgiTM1katTYHhaOcNoc1zROQKqU/0zzJbWTjn5GHxQpvhM5uMiTNRjS//v4fj70JW1m53w74NtSh0d+2CmfSR9ySgbkmvENqbfI2SLW8dMytcJvgNrJVJfVbg3yeBXlHrIsxv0Ti0GyM7quP3kv3ipW1Fn9srTzFpr3KO7UU/jPyv50IvvHT/xh7E+ZDrU1bepVz/jPbnMzYYMAtT78Vhs7GejPL95gYY7pWNlsy60nadYtYVE4DSz/2Ml9Lw/zz7I/ue/TJyj15tihX0s/DXvf2UbcQf/ZHYy0V1ibwEo23JGqtQ2qNCltmWybfb8nsjiTGajODYyxHOvjfvC+a61Dblgv8ph9Urtkw731FYVecpUK3g0Ju/rE9I3jzptY6pNZo0uZQaV1ZwiXTGYUb8nozl41BQZvzR/Mbatum1tqrW46v7jMD7IXaDCuVh5j62CenJwK+eOsV6ydFUHenb2kXk1rrkFqjlY0vb2svffMrry448MFB34vj5/+ZSgza++KtV9rsgqY+1Jat3xvnYtfFmvpzackaBu6GlJ6SruvMefPa6ZBaYxNjHU80nwZuNsy52LIsz6YykAiRtRzwn+5Q29RXIJwTtQZEoNbohvPBmTTJvvaDv0mMmEFvWk4U/PoPfjShEyXlNX7Lp6UqJwQufK+7jcJJwIVc3QdMiFqjL0vot/y4WeLdHQbXckmk9HLZ+OMkhYG1DS78qJxztcyoq5yLYf45MDlqjeFka3Vk/z+hQ4fysvje6SGO9kNtSdQZklvePHMtLddbT2Lspcs728q1Luu+GGDS1Brjy1dcMmrIVa7H6L0fpqL93UcCZtv2A2tD6mMXbWcLUKbWmIDm9ZTaLLJUOPnqXCzMW/vl74Nc2DbkwBoAE6LWAJinte4YOW62FQbW1BoAKbUGwMy1nyGZVE2STG/1luTmSHcbdQbWAKij1gBYivYzJJODlSTrVrVN/zTp4uI3A2sA1FFrACzLWjMkW0r7aoNhNwNrADRQawAs1FozJNeSjbw1Ly371Ufv/fbF7+c/o9YAyFNrACxdf9lWkM+28gRLqQZAgVoDgNsqJ0lmA2VJktRdxraNDi+BA2Bm1BoAVEibrfJStDTqko6G4x54+aej3/ANgJjUGgBsZct4U2sA1FFrANClLN7aTJu879EnH3j5p4NsFwDTo9YAoHdptqUVl6xaKxIAUmoNAAAgorvH3gAAAAAqqDUAAICI1BoAAEBEag0AACAitQYAABCRWgMAAIhIrQEAAESk1gAAACJSawAAABGpNQAAgIjUGgAAQERqDQAAICK1BgAAEJFaAwAAiEitAQAARKTWAAAAIlJrAAAAEak1AACAiNQaAABARGoNAAAgIrUGAAAQkVoDAACISK0BAABEpNYAAAAiUmsAAAARqTUAAICI1BoAAEBEag0AACAitQYAABCRWgMAAIhIrQEAAESk1gAAACJSawAAABGpNQAAgIjUGgAAQERqDQAAICK1BgAAEJFaAwAAiEitAQAARKTWAAAAIlJrAAAAEak1AACAiNQaAABARGoNAAAgIrUGAAAQkVoDAACISK0BAABEpNYAAAAiUmsAAAARqTUAAICI1BoAAEBEag0AACAitQYAABCRWgMAAIhIrQEAAES0M/YGQF/e+XQv/5+/+PTL8tc8fepY9vG5U0d73yYAAGjtrlu3bo29DbC5NMl+8emX7/zmy/xntpSW27mHjiUHRaflAAAYmFpjStISe/nta0lHVbaWQsLpNwAAeqXWCG3cPFvp3Kmjaby9+J2TY28LAABzo9YIJyu0gHnW7KXvnkyUGwAAHVFrRPHOp3s9jaE1T1nsqQmVGwAAW1JrjKmTYbTbl5OdOpYkydMPHct/cuNN+sWdNUu+3DLnZBsAAJtRa4xgm0hLM+zF7+4mw67T+M6ne1smXHqRm2wDAKAltcag0umOa6XOWHm2UtZvL/3v62t9o2wDAKANtcYQ1o20c6eOnjt17OmHprRK/stvX0/WHHaTbQAANFBr9GitSMvG0CZUaHXScms/5ubaNgAAytQavWjfaedOHQ04y7Er6WzJ9gNuL333pGYDACCl1uhSGidtxpTSSJtlodVpP+BmqA0AgESt0ZWWg2kLjLSytbJNswEALJZaY1ttOm3e0x039vLb19tMknzpuyefPjWlBVcAAOiEWmNz7TtNaTR7+e3rK4faTI8EAFgatcYmVnaaSNtAyxmSpkcCACyEWmM9K0eBdNr2Wg61aTYAgHlTa7S1MiFe+s7Jad3POrg2Q22aDQBgxtQaqzV3msG0vq3uZM0GADBHao0mOi0OzQYAsDRqjWrN64jotLGsnB6p2QAAZkOtUaTT4tNsAABLoNa4Q6dNTvP0SM0GADBpao0k0WkTp9kAAGZJrdF0rK/TJkSzAQDMjFpbtHc+3fv2v/x75R/ptInSbAAAs6HWFqph6qNOmwHNBjOQ7qjz/9nmu8p773MPHcv/59OnjtV9JQDRqLXFab5E7aXvnHzxu47jZ6J5juu5h45pNgjrrh/9nyH/urTcsq5Li07OAYxOrS1Lw+G7Tpurpl/6d08+feqYAzIIaOBaa1ZuOfsNgGGotaUw9XHhmpvNIBtEE6rWGqQD9enHKg6gc2ptEeqO1HXaojTfU1uzQQRTibRmEg6gK2pt5upWfdRpi2UBEgjr2//y7/kZEOdOHT136liSJE8fXiZkpV/85svyJ9/59MuDD1qtVtK5LOH0G0B7am3O6o7LXaKGZoNoCq/KYXbUWbllgTdk1Ok3gJXU2jzVXaVmSI08F7NBEIUX47lTR3/+V3824vZk0veRQsv1F3L6DaBArc1Q3ezHn//Vn3nzo0yzwegKl6tNYnedD7n+Ku6lgwFG+yJgmdTa3FQeeZv6yEqabaX8Q2QEgA6NMgeyP+98utdfwnnpAUuj1malfMBt6iPtWTSyWWEFiLzsCHLhDxHrKs9an3qq1cknXIf9Jt6A2VNr81FOtbm+69Mrd9Ou01BrBeJtlto3xi8+rViS8fYP+U3TGh5xLlcbQE/9NuTMyXSzF7tLBIah1maifK3aJC57ICwTIzMvv319ywldabwtOXQnrW7Rpm7deuUvev35k9BHv20/+Ja+t2Y/JP2Zlc8Kd5mj7J1P9zwT2JJam4n8WX+zH+mKZmu+1cFm0tdm/qgu//m5KhzXZqNP71TdGSyUYe5OptbKsnhL6mdor6vw6ksaX4B1S3Zt8DfW/mnNnfSyrWr/o/LqYrLltx/6rjXv9TeWmHuSTn4FE7WcaQIDUGszkdXaoibSMIwlN1t5pb70gz5mcOVlb+qFQ6XCMdzw7/3lf29+1l/hgGmsuzBPjv12Sz1Nnpy6/H7Aw0IQzkB1SK3NRFpr3vLpycq7aSdzvEar5Up90Y4gO0y4CP+ceTt36ui5U8dcYLyZaC89IKPWOqTWZiKdrSHV6NWimq38j2353pMdQXY+hZI4NpxUdjA0+vRDi5j+OjyvPghCrXVIrc3Ey29fd3aWYay8lGse0yMLK0BuvMKqw8cZsL7uRHUy+JaOf5Z/SH4pr/yNwrf862Ae1FqH1BqwiXk328YDayvlF05459OmxdznqjCaVB5uisbw12zkX31Juxdg5erK7Vf5y37yL1atgfFO6a4P2+wW0sXG2nzlyg3LK2/kuM5VrcXSYJSdTPpUWdROPmXP2SG1Bmxurs1WWFxksKGVumO7/EFSnHf98ptx/uCpcGDknZtJiL+IX5s9QMDNBjam1oBttWm2ZDqXtLVcXCSOyqO3tU6ZF9SdgXYICAADU2tAN9rcmmwSQ21jDawBABSoNaBLL799PVm1okbkZpvcwBoAMGNqDehey2ZL4k2PNLAGAMSh1oAeTWt6pIE1ACAUtQb0rmWzJWMPtRlYAwBCUWvAQNpMj0zGG2ozsAYARKPWgEGlN6hd2WznTh0999CxIbPNwBoAEI1aA8bRZnpkMtQMSQNrAEBAag0YU8vpkUnP2VYYWLv1yl/08bcAAKxFrQEhtBxqS3rINgNrAEBMag0IpP1QW9JdthlYAwBiUmtARC+/ff2dT79859O9ll+/cbkZWAMAwlJrQGjtZ0im0sUkk9blZmANAAhLrQET0HLd/7J0zO3pU8fOnTpa/lMDawBAZGoNmJKNsy2VNls6+PbOb4ozLQ2sAQChqDVgqta9tq2ZgTUAIBq1BkzeWitJFrz0nZNJkjz9UPVUSQCAEak1YFbWLTezHwGAsNQaMFtpuTXPllRrAEBYag1YinSFkoOPv0yS5MXv7poACQCEpdYAAAAiunvsDQAAAKCCWgMAAIhIrQEAAESk1gAAACJSawAAABGpNQAAgIjUGgAAQERqDQAAICK1BgAAEJFaAwAAiEitAQAARKTWAAAAIlJrAAAAEak1AACAiNQaAABARGoNAAAgIrUGAAAQkVoDAACISK0BAABEpNYAAAAiUmsAAAARqTUAAICI1BoAAEBEag0AACAitQYAABCRWgMAAIhIrQEAAESk1gAAACJSawAAABGpNQAAgIjUGgAAQERqDQAAICK1BgAAEJFaAwAAiEitAQAARKTWAAAAIlJrAAAAEak1AACAiNQaAABARGoNAAAgIrUGAAAQkVoDAACISK0BAABEpNYAAAAiUmsAAAARqTUAAICI1BoAAEBEag0AACAitQYAABCRWgMAAIhIrQEAAESk1gAAACJSawAAABGpNQAAgIjUGgAAQERqDQAAICK1BgAAEJFaAwAAiEitAQAARKTWAAAAIlJrAAAAEak1AACAiNQaAABARGoNAAAgIrUGAAAQkVoDAACISK0BAABEpNYAAAAiUmsAAAARqTUAAICI1BoAAEBEag0AACAitQYAABCRWgMAAIhIrQEAAESk1gAAACJSawAAABGpNQAAgIjUGgAAQERqDQAAICK1BgAAEJFaAwAAiEitAQAARKTWAAAAIlJrAAAAEak1AACAiNQaAABARGoNAAAgIrUGAAAQkVoDAACISK0BAABEpNYAAAAiUmsAAAARqTUAAICI1BoAAEBEag0AACAitQYAABCRWgMAAIhIrQEAAESk1gAAACJSawAAABGpNQAAgIjUGgAAQERqDQAAICK1BgAAEJFaAwAAiEitAQAARKTWAAAAIlJrAAAAEak1AACAiNQaAABARGoNAAAgIrUGAAAQkVoDAACISK0BAABEpNYAAAAiUmsAAAARqTUAAICI1BoAAEBEag0AACAitQYAABCRWgMAAIhIrQEAAESk1gAAACJSawAAABGpNQAAgIjUGgAAQERqDQAAICK1BgAAEJFaAwAAiEitAQAARKTWAAAAIlJrAAAAEak1AACAiNQaAABARGoNAAAgIrUGAAAQkVoDAACISK0BAABEpNYAAAAiUmsAAAARqTUAAICI1BoAAEBEag0AACAitQYAABCRWgMAAIhIrQEAAESk1gAAACJSawAAABH9f7MGxRbz/GkNAAAAAElFTkSuQmCC;clipPath=inset(33.11% 8.67% 62% 12.67%);direction=north;" parent="PvffXtldvGFclzvf1Mkj-34" vertex="1">
          <mxGeometry x="276" y="361" width="4" height="52" as="geometry" />
        </mxCell>
        <mxCell id="PvffXtldvGFclzvf1Mkj-50" value="" style="shape=image;verticalLabelPosition=bottom;labelBackgroundColor=default;verticalAlign=top;imageAspect=0;image=data:image/png,iVBORw0KGgoAAAANSUhEUgAABI8AAANrCAIAAABA5S9PAAAACXBIWXMAABcSAAAXEgFnn9JSAAAAB3RJTUUH6AIcDAIakILqlAAAACR0RVh0U29mdHdhcmUATUFUTEFCLCBUaGUgTWF0aFdvcmtzLCBJbmMuPFjdGAAAACJ0RVh0Q3JlYXRpb24gVGltZQAyOC1GZWItMjAyNCAyMTowMjoyNrhQjsAAACAASURBVHic7d1NqB73fejxsTkGy+AiJdKmuGAdmQTbEtS1oI4XtlJEssumuSFa3oVf6Kb3NptSL2wvUrpxm26KX+5exqSb7HwRN44XjgtyfUGyTUIsGW7oRnZ9aMAK5IDuYnRGc+btmed55uU3M58PIRwfnXM0es7zzDPf+f/nP3fdunUrAQAAIJi7x94AAAAAKqg1AACAiNQaAABARGoNAAAgIrUGAAAQkVoDAACISK0BAABEpNYAAAAiUmsAAAARqTUAAICI1BoAAEBEag0AACAitQYAABCRWgMAAIhIrQEAAESk1gAAACJSawAAABGpNQAAgIjUGgAAQERqDQAAICK1BgAAEJFaAwAAiEitAQAARKTWAAAAIlJrAAAAEak1AACAiNQaAABARGoNAAAgIrUGAAAQkVoDAACISK0BAABEpNYAAAAiUmsAAAARqTUAAICI1BoAAEBEag0AACAitQYAABCRWgMAAIhIrQEAAESk1gAAACJSawAAABGpNQAAgIjUGgAAQERqDQAAICK1BgAAEJFaAwAAiEitAQAARKTWAAAAIlJrAAAAEak1AACAiNQaAABARGoNAAAgIrUGAAAQkVoDAACISK0BAABEpNYAAAAiUmsAAAARqTUAAICI1BoAAEBEag0AACAitQYAABCRWgMAAIhIrQEAAESk1gAAACJSawAAABGpNQAAgIjUGgAAQERqDQAAICK1BgAAEJFaAwAAiEitAQAARKTWAAAAIlJrAAAAEak1AACAiNQaAABARGoNAAAgIrUGAAAQkVoDAACISK0BAABEpNYAAAAiUmsAAAARqTUAAICI1BoAAEBEag0AACAitQYAABCRWgMAAIhoZ+wNAAjhyt7+m9dvXtnbT5LkzNGd08fuufDgvWNvFACwaHfdunVr7G0AGN8LH/4uTbW8CyePaDYGk50sGHtDAIjCTEiAWle//MPYm8CCvHn95tibAEAsTuABi1YeTwMACMJMSGDRvvfzL5u/IJ2W5jI2+nNlb//q3v7FwwNrP37sflMiAfBOACzXxc9+n//PM0d3Lpw8khwMuKVHz+nHV/b2Tx/dcfRMH1748HflT755/eaZx+4ffmMACMWRB7BchcvSTh+753Q6knZ0J0mSM0d3/i53GO3omT5crZmLe2Vv/8revhMEAAtnlRFguQoXrZ1uPDJOj5573iIWx5MKgAZqDVio8phGYRzD1EfGZYlIANQasFCFMY02YVY3aQ025i4RADRQawBJkiSnj92z8pMOrOlcw0xIkyQBUGsAtcyEBABGpNaAhdpgoMxYB91aObfWUw5g4dQasFBtFoQsf9LRMwAwGLUGAOMoL3Vj8i0AeWoNIEnqL1Fz9MyILEMKsHBqDViijQ+CHT3Tn8qFSQFYMrU2Ey98+LuxNwHmySL+DMnzDYA8tTYfTvlDexvcGhs6J8YAaKbWAAAqOA0KjM7p5Dl44cPfXdnbT67fTP/zhyePGCiArpw5unNx7G1gIU4f3bkrSTzfIkiH36/u7d9KkiQ3/F6+h4c3XKBXdjFzcPrYPVf29u+8hVy/eeax+0fdIpiY9qs7uN8aHfJ0iuniZ7+/eHACNPWzbx9LP7i6t5//ozNHd7zhAr0yE3IOLjx4b/4/D5UbUMX1QkyCnXkQfhHAWNTaTBRmYphqD105XZrm5LiNnphTF4SzOUAcam0mLpw8kv9P7zQAwTmtNgPO3QB9U2vzZDIkwBSVx3KJQFoDY1FrM3H66I4pNNBe4XSGQ2TCcupteOXHPJuxYuoKMDC1NltvHl7PCtiYUyH0wS3aAVjJe8N8XDh55MqHvxt7KwBmorBWe+JullQNu13Z2/esAPpj/zJbJs9AT646OFuMwo70h4P8pWeO7tiBA5BywDEf6aVr+fd4J/ygJa8UyiouXupzp9r+Fu1AZFf39v/u8Fyn7O7qsAHXrc2ZNaygkpcGEbRcr8LTNQKjncBY1NqsFE7NWroKANYij4FQ1NqsFKboOBcInXAehAG4jcREqTugV2ptVspv9oINYDN9Z3nd/tnZAbYkIKNxMMY21NrcWCwBVnKfKwLyPAzOATcwCu8NM2epcdjemaM7F8feBobX69G50Y8pqvytXf3yD8mD9w6/MZWu7O1f3du/+uUfshHaC2G2DdiM4/i5OX3snvwRRqh3EYhp3ZXTnWJnew3PImcHxjXpF/gLBwvHZ/8KtQZTZybk3FhoBFZa90Igyz+Q6u8SsoZJEHbjtHTxs9+XP+n5E4GxdLah1ubGQiMwAC+r2Rv46Mqtsacr+N5AJ8DUOWE8Q2eO7gR/85i9wuN/tTA3NUl+ePKI6wlHVPgFtRk6K7ysXBHKli5ev1n3R5Un3TzfIgvyC6oc+3VBBEzd+DsX+vbm9ZtnHrt/7K2Yg+xgPauv/FvjWoX8ww43izWVzzS3Ocy6cPLIlYMLQpKDQ20XhNAVz6U46ua7TnSQ6sre/sXPfu8JNiRnzOmWWpuhwmElbRRKbOMMayl71087oe6vaDg4GOYWTG1mZzUMTEU42ZyXPs5vHh7TuHDySJvvPX1058LJI/nxkIvXb168fvPM0Z3Tx+45fXQn2j+WLfV6vFW4vqj85DFFYmD5R3uDRz7IYHvtW4nhNZiy8XcudO50aaGRIJM0xlKYwJbkUmes46GGSVChDPD4DPDMbP5XtN+ACw/em37x3+XOhqSvr+xHpX0r3ljLytMipkise0qr4XxWLyfgAuTQRIf+FqLwDKk8KuvjUK38Mzf+WxZ+JDkuj/s8Fc7LzvudPmCM0d5Yv6MfP3b/Bm88zVe45cstEW/UuPjZ7wvna8qz1GYwRaLypV0oisqmCrLf/vvH7r94/Wbhjjh1XZ2+9q/u7Zdf7Nnn0/9PejtF1fC4ZbsmO6JoGhIoe8I0fKYTlT9Wm4XiNzFPhXf6IG9+m2m4Wiz+v6uwszt97J504+NvOQ1azlIrxFui3yalp8nGFalWNRe3PEVimEuPViZW5L7qVjr5+UrNQHrZm9dvpge4L+ztZ7Omsw/SnUb6qn/hcDhl7ws/PHmkULNp4+U/zv9/9vk3r9/Mfkgm+/np33v7a3InNLN9UeHr6cMsXyMMxotzntJjwcJE/FD74spVE/u+WqwT+YcxO8966JPNj/OD9yZVR2xMyI8fuz+97mjdX6LBt6nbeL90ZW8/vWAyP8Rx+tg9DQFWeZ1kcvgof+XfO/CEwJlJg61wii3fXWkjNTySzecWs0/e/uBgKC97+84/B/Lhl/9L0y8u/PwLJ49cePDe7I0m/dMre/vpP6cwYFjYKaX/usIxQ6EG0+feyjOnQXZrQZ7qFz/7ff4xfLP0QeHjss0O5Mo/s/lv2f4b86yA3Ym7bt26NfY20Iure/vZbjrd86a7721+ZvMurzxpvnCgEGSP2aBwGLRGg61pZa017N3Gui/TPA770gf2wskjXf1CN8u2Ovotju/9/MvKz//s28fafHt+SZvCgXX6QZuDmKsHB9lO7gwj+42UdxHZ8yF9kZ45upN9QfpH+TOk5dzK/+pX7jArvzj/o5LSXrfQkPn3+u/9/Mu6b0k/KNdawybBWrY/8iQxtjZjp4/upCfDsp14emp241fO1b39F6Z8HUV5TOxOmw1+WJytVzHK376hLXa4bS5/7+NQoDgTtYeHOn01XTgYMk1K56rX0jB5MpFwMbzw4e9+eDB3sXAQfHVvv3mq87pPjOwZe3GzbZ21utdC3fms2q9f/zXV8B6avuGePnZPXfMUvrLyg+x78z+n7nxZ/tsLGZn6+8fuT78ge2Qa4r+rp25Mlc+B/FjiysGr8hc3/H9v/w4Wxxv/nF148N6rpV1GNp0mvVhiTsd/dSNjMXMo5lb1pM0/dgYPyO1juAfvTZLk6kF3bRNvSc2lMobg+lY+v5BNIbuyt58cntPY/vebffECZweV/73lrKp8TILsGQoTUwt/lE47rPzT7NW6wfMkr64Ai39X+XE+upNd59Z+WK/l5yfkzNGdbMg0fwVgXa1la280f3Hz/6c/qjxQ//cHC78FeXoTnGfJzKW76ReqzsmV33jqLocY5tZezUKNjMFKp7PDpoPT8F31W1IzBJccXjZgaTHQlfwMxkx5ItnGv8H8IWNL2dVTwx8uNydWh6NV8V148N66IbU7A+wHZ2qSJEnXYT59dCfbA1zI7Qpuf+bgiXRn/PzYPYWVJ7MH+czRnau5l3nm9LF70iG1pPGRP33wBVf39pPDC9tMPcOmaJavEfrjurVFSK9tjblHbl60wx6Nueow3hqYSFmWn7iYtFtjNh08uXIwG7zyCqVmG0RapaulUK88m9Z8deuiKov2ykPKzc/t9vuTCIcf+aAt3FOhUuXY2mZ/dfkqkh/P96ZK9EGtLUV/ixC2vHigvxU7YB6G6bdUvuKS6QzHrXxYGm7ntcFDmp9ukA6MZAs2JC1mQna+pA0AC6TWlmWbQbb03HCitWAo+X5Lxjg/febwzKvRb81Ut05jTyrXZEp/KdmONL/GQ5IkbeakAUB7am2hNli87szRHWP3MK78UgERpjdXXuyaD5Vuuy5CrQHAkNQaSXL4EPDOJw9fDtF8I1dgLPlrmSIkXIM2CwM2GOa2Yw033QKAgak1gBkqjMIlMS70j2NaN/wAYLHUGsCCFAbSZxNy7dea12MATIhaA+CQbGXFaFHnlrIALI1aA2Bt5Ytdt1wuv42ffftYHz8WAMJyehKAtZ0ur1NfswpR4R5odSFXeZdnAFg4Y2sAAAAR3T32BgAAAFBBrQEAAESk1gAAACJSawAAABGpNQAAgIjUGgAAQERqDQAAICK1BgAAEJFaAwAAiEitAQAARKTWAAAAIlJrAAAAEak1AACAiNQaAABARGoNAAAgIrUGAAAQkVoDAACISK0BAABEpNYAAAAiUmsAAAARqTUAAICI1BoAAEBEag0AACAitQYAABCRWgMAAIhIrQEAAESk1gAAACJSawAAABGpNQAAgIjUGgAAQERqDQAAICK1BgAAEJFaAwAAiEitAQAARKTWAAAAIlJrAAAAEak1AACAiNQaAABARGoNAAAgIrUGAAAQkVoDAACISK0BAABEpNYAAAAiUmsAAAARqTUAAICI1BoAAEBEag0AACAitQYAABCRWgMAAIhIrQEAAES0M/YGAARy7cblazcupx+ff+T5cTcGAFi4u27dujX2NgCM79qNy6+/+0zhk+cffk6zAQBjMRMSIEmSJBtSO/TJzz8YfksAAFJqDQAAICIzIYFFu3bj8qVPXss+Ln/B7omzSZLsHn/clEgAYGBqDVi0v/3Xx/L/mbXZtc8/KMTbs0+9kf4pAMAwrAkJLNelj18tfObZp97IPn793WfywXbtxmW1BgAMyXVrALedf/i5sTcBAOAOtQYslyUfAYDI1BqwXIUr0woTHQtDbdIOABiYWgMWqrwCZPNlaZUrRgIA9EetAQvVPLBW+RnBBgAMSa0B1CoEm1oDAIak1gCSJEl2jz++8mtcukavnA4AoECtAQvVJr3aJBx05fV3nynfAxCAJVNrALXcDhsAGNHO2BsAMI6Vq4ys/BboxLUbl7On1rXPP7j08au7J846UwBAotYAGjhiZgCvv/tM9vHtcvvktd0TZ5996o0RtwqACMyEBEiS1mFmeI1u1V2olh9wA2Cx1BqwRI6Die/SJ6+NvQkAjEytATQxGZJeuS0EAA3UGsAaDMrRrYZnlCcbAGoNWKINFoSE4Qk2gIWzJuS0OeKEvu0efzz/QjNvjQ6JMQCaqbVpu3bjcv4ydCs+A0xI5Rk3CQdAxkzIWfEeD5vZPf742JsAFezVx+XxB0ZnbG3adk+cPZ8kSZJc+/wDbyrQh90TZxMLqTOI3eOPF6bamnkLsHBqbdp2T5xNZ868/u4zY28LTMnGB8FOi9Ch8vOwcJ0kY0nvWn7t8w92b1xOkuT8I89nn8//1naPP579EUAf1NrcZNl2/uHnLDoCAOu69PGr2TXh1w7XWuKUDTAs163NxLNPvXH+4eeSJLl243L6P6NtAMGVVxlxli0mhQaMRa3Nx/lHnk+DLSPYYHvlo2fHbQzGk20U7WdK+wUBfVNrs3L+kefzR5bpINuI2wNTYUCDCDwPAShQa3NTHl5LL5UG8pzIYHSVT0LBFpM9BjAWq4zMze6Js+cffi6dxZG+u1z65LVLn7yWVpyLIgCm5dqNy/bbAyu3WTY30j0VgIGptRlKl666duNy8vBz2aVrt5e3+uS15ODcbXo74NsfOxQAOKy8XNOzT73R4d6yvMRIVz+ZIclpoFdqbYnSQ4TbBwq52/7mKy4xEAcHdk+cNQ9qgfzSKfOsAAam1mZrg9A6VHHJnZAzFsfseUrTRq+jKPkzZZIApqs8LP8Pf/nhWBvDDKi1mTv/8HOXcqNnm2kYi8sSzsEuE7LlobCJT3Si5RVQnm8R6GdgLGpt5s4/8vz5R55Pl4W89vkH3b7f3LlDQG4UzkRKYB6sJ8FEKXyYE7W2COm6I6n8Tdh67Lfkzoomxt8AyupWGdk9/nj+j0TjwAyjAaGotcWpq6ZCxSUdvWM1jL/pNyCygY/a7Q8nKtRA1qWPX72d9+kJ0+OP50/XMpZQTxImR61xW8uK2/7wpdBv4o3ReeLRUofDXA370t0TZ5OtrzdmmQpXql+7cVmtwdSpNVaojKj8uiNbJpx4Y3jrPmPNTFugvgfW2t9szcS8IOIPj6TXqBfE32ygmVpjE5Xr+GfdtU2/iTdggbL1mYis8q3N6RugV2qNzpSDavt+E28MwIEyZX2PaBVmrOV3aJXTGezxBjPdwUzdGJaXMNtQa/So836rizfz8oEJKc9YK+wq3SCbrugEmDq1xqAK/dZVvF3KxZthN1Za9wy0VR86V/l6D/XKrXySdLZS7uEffv7h55q/5dInrz0b6cEhL05Xm6gZRJynBPOg1hhTuay2uZH37Xg7OKpOD4DEG2XtF3ho8+0zc2g9lTUP/rZ5ZHZPnA0VJHX/lksfv7rWYP6dNXVvXC7s2W5fAFy1xvr5h597/fAvYt2/l6VpePUZXoNJU2vEUjgc2Sbebl8W4oI3VpnxU6Lwwin+Z6675p2gK7X/51/7/IO//dfH8neyzj7f/mem3/7sU280fMH5h5/Lfua1G5cvffLapU9ey+/Kklk/dQNqaJ4IOVT3fLt24/K144+Pvnmd23iXVbfM9WY/qvCrX/iOlJ6oNULLx9s20yZd8EZmg3fT0Vd9aIiuQiRM+lihcv3xOpvN79r48Xn2qTcuffJaeeCxvwf8/CPPZ3/FoQG63K4slY3RFT8zuwP0YXQ7enztxuXX330m+x1lVySWD/TLmi9fzH7OpU9e2z3+eNNm57I/Lf/s56ffmP3/WlsyxdM9uyfO7h5MRc7/22//6cHH6UORf2QKj9Lt/7xx+drnHxR+YJJUrFyVfv71d5/ZPf54etolKb2PXLtxOZsUXfnbzP/8ul93+R9V+UeFf3X2lxb+ivw/pPCnhe0sfOX5h5+z/+mQWmMyOrzmrfKCt0S8LUPh2bLykqE+NqBhjCv7mgG3KITywxLH7SOPT15LuvvVtFmJNDuka/6yim4sXWZZHgw89MnFHFc1T/RNX4mbTeVYOY+38Ia1m37wyWuFfst/cP7h5y7l5vZnb1j5jUx/Tnl2d+Ez2amQ4vmd3Len8VB9Tel2N1YFtqHWmKq6eLu0/moQhe91wduM5c8rr6XDNfpef/eZTn4O28j/Qgsfpx+kR67Z3iA5uEn69s+E3RNnG+ZA9iQ/Onfns1WvhUP3EjiclOWFKzvcwmFsvAdIDsYWGn5y5RrIlw5HfufNU/6Bzz71xu6Js6+/+0zFkOyq712CLJjLpznKv6byV9Z9TV75OZZeelr3W7iz28mNguaz/PbHVc1c/TMrF0lKT0Yc/H/dN9bN3aj8/J3zC6VZHtkfTXFHEc1dt27dGnsboHvbXPBWIN5moHzMlDr/8HMtB1QvffzqpcNzzzY+4P7bf31ss28cUuWzve5QteVLY+WX5Vto98TZSx+/mr7uyq/i/J+mH6Tfnp89mH5c6Kvzjzyf7RzyM4LOP/zc7UlNhycLVV5Jeyk3HtJSuoX59ltL4ekXUDHkSk+V6mfU4DvVlo/k7esG10m79CmR/Yorv7dw/F33QeFntvk4P9Mye1Qvffxq82hhefC2dmzNLSXYSPs3WRoYW2OeurrgLTm8Wkli2uR0pL/3yl/6Bq1VWMT/2o3LaXRlz4fV2zP2OtoNx9OHhlOclThQfijSV/3tDmy8yKfhh2zg/CPPZ/GZdHQeqlvFyb3lzVunNts/aO1vbb/JfTuSNTY7/6s5v9Esj/xffbvfjj9+p8oOPm54cApnFdNzE8E7H1hJrTF/Hc6ZLH+71SbjyP9eOj+Wza/RV5g5M+Rxc/MIxgwmqiVVm103vFb3D6z8+vzplfQodvfE2TSBsh91ewSsxYmYUV7v5b+0YirXpldehdJ++3v9l+ZP62QTmLNRrOSg27NFRPI5XfhR+TG32z8nXaxi64UNd48/vnuw5GPd+YXyd2Wu3bjc6hLKunH13AqlvZri3iz75WZPHmtvsBkzIVm6LeOtLFu1Qr/1KjtO3eDwdMu5GZ1MZaxc9SGpaZXt/zqWqfLSmsI1J8tU8UJrvDVC9qpPT9zkvyC7o0M27TZbESR9Oxh9IkY2JdjOZBTZkye9pHDcjWGKjK2xdNkbWPqGun283fnGw4NviX7bwjZtllc+0hrYKCtMsFh3Tgq0W7Gw/HEyrzVLOzlcLvyENMlGn+rcwFvPuFz1x5aMrUGTzkfeksMTabyJFhxaxKzTOV0ddlo692njzVBrzEZD4yXlxeIDHLBuXGvZ8FRSn775dfDStwwvdmB7ag3W0Ee8pZYzBFe86KvPSVm7h1dg71bhirU2Z9YLK7YBSf1rv499wuiTEgHWpdZgcwMs0Ra24qpv1VI/gWqY0+pbrpMOABCKWoMupbdjSvpfYjs/nTKpvzK+P/lbr44lf4uhRJ4BALOj1qBHhQWdB8ubyvUGu70H1PC1ps0AgKVRazCo/MVOcW5xW1k+lTfYGWbt70KYJdoMAFgktQbji5lwvTo00KfKAACqqDUIqpBwSYz1ryutHJrrdhImAMBCqDWYmOw+0bf/c6SQ+4e//HDgvxEAYGl2xt4AYD0rb89a+CAZ6mIzAAC6pdZgVtpfAFa8N1pjyLW59TMAAN0yExIAACCiu8feAAAAACqoNQAAgIjUGgAAQERqDQAAICK1BgAAEJFaAwAAiEitAQAARKTWAAAAIlJrAAAAEak1AACAiNQaAABARGoNAAAgIrUGAAAQkVoDAACISK0BAABEpNYAAAAiUmsAAAARqTUAAICI1BoAAEBEag0AACAitQYAABCRWgMAAIhIrQEAAESk1gAAACJSawAAABGpNQAAgIjUGgAAQERqDQAAICK1BgAAEJFaAwAAiEitAQAARKTWAAAAIlJrAAAAEe2MvQEA0/DZ5d9+dvm31y//v4YvaPNzHjz7QN0fnTz7Jyu/vuHbAYCZuevWrVtjbwNAXJ9d/u3PX/1lyxIbWFZuhcxLP6/rAGDq1BpAtcidtq603LKoy0JO0QFAZGoNoGhOndZGoeXSzwg5ABidWgO4Y2md1kbluJyWA4ABqDWAJGnRaQeVcugKsZNbRMv1+r/rs8NrmYStx3LIqTgA6JBaA5auTad9+/lvxemQ/Kbmky9rvNHrTsUBQCfUGrAIdQHT3Gnnnv/Wt59/oreN6l32T8uibtyiU3EAsBa1NkPpQdjKCV3lj5m9lQfoK7+g4W5jW/7kaKbeaS2lv5fyAN3Av698xbkuDgAyam0m0kOrLVdHqLx3k5W+u9X8C9o+liYXRQE9ePaB//6//tvYWxFCoeWGD7kHzz5gII6YVp4Y3UC3z/Dtt63N9nhVQt/U2ky8+Kf/NPDfWN5BF+7PW/dldZ8MrvJtr/zJck3JpwmJdn1aZOOG3OyXqdysBFY+AnN6iDrU8DhbIbZbbZ6BlccSm/0oT3jmQa3NxPC11p+xdq/ekpdMp3Xos8u/HXE4Lpl4y8W5h8RUHrGyCI8eS1P5eik8FQd7TbUs3l6dW8ClBINRazMxp1qDwTx49oEHz/7JSVPsBjF6xaXKU76DzPeO02kAW3r5//7PsTdhPnbG3gB6Ub4x1FRu38Qo2k0pWeNc3TZ3IVuLypqQwxee3TntWqi4vvdOn935u1otxVT44vwflU9gF76x5fNTpwFQx9jaTLz4p/+UTuVK1j9+La/xnYy9zPeitPx9NcdScx1JGiYnf13ciANx0GCAXevGT/vSiYPas7e9bgaLZWytQ2qNNRT219erdt/lt4FZ7uVrVk85FFTlglJNsKXRl6kcTHmKRGrlofYsH41RZDOl6/504O2Jr/1zr/L4oeoHerZPlVrrkFpjTM372ZZ78y2tnLPnLRmmYh4tN8yaN+s+LMPskNe1zaRr+/blCLUTCPJS2mCIdS1uhNMhtQbAIpRnfUeb8r2Qe7ID0J5aA4DbKq/jLQzgFE6Nb7+GUzrjTqcBUKbWAKBHzf1mPh4ADdQaAABARHePvQEAAABUUGsAAAARqTUAAICI1BoAAEBEag0AACAitQYAABCRWgMAAIhIrQEAAESk1gAAACJSawAAABGpNQAAgIjUGgAAQERqDQAAICK1BgAAEJFaAwAAiEitAQAARKTWAAAAIlJrAAAAEak1AACAiNQaAABARGoNAAAgIrUGAAAQkVoDAACISK0BAABEpNYAAAAiUmsAAAARqTUAAICI1BoAAEBEag0AACAitQYAABCRWgMAAIhIrQEAAESk1gAAACJSawAAABGpNQAAgIjUGgAAQERqDQAAICK1BgAAEJFaAwAAiEitAQAARKTWAAAAIlJrAAAAEak1AACAiNQaAABARGoNebYZrQAAHRJJREFUAAAgIrUGAAAQkVoDAACISK0BAABEpNYAAAAiUmsAAAARqTUAAICI1BoAAEBEag0AACAitQYAABCRWgMAAIhIrQEAAESk1gAAACJSawAAABGpNQAAgIjUGgAAQERqDQAAICK1BgAAEJFaAwAAiEitAQAARKTWAAAAIlJrAAAAEak1AACAiNQaAABARGoNAAAgIrUGAAAQkVoDAACISK0BAABEpNYAAAAiUmsAAAARqTUAAICI1BoAAEBEag0AACAitQYAABCRWgMAAIhIrQEAAESk1gAAACJSawAAABGpNQAAgIjUGgAAQERqDQAAICK1BgAAEJFaAwAAiEitAQAARKTWAAAAIlJrAAAAEak1AACAiNQaAABARGoNAAAgIrUGAAAQkVoDAACISK0BAABEpNYAAAAiUmsAAAAR7Yy9AQAAQDj7n7+f/88/fPF+7uN/a/jir33veq8btihqDQAA5qlQXEljdJW/mNGpNQAACK0hupqHuZg6tQYAAANpP71QdJGoNQAAWFeb6JJbbE+tAQCwXAa7Vto5/kThM/d8/c9zHz/R/MVsQ60BADATdemlu5JSRzUUV/mLGYtaAwAgrnxZ1Q18Laq+2keX4poBtQYAwECMfWVEF22oNQAANiG9UpXdVZ5bWP5KWEmtAQAsUfN9k5Pl3cjLYBcBqTUAgFnZ//z9P3zxfrm1krnnVl5deukupkWtAQBMRsOAWJpnM+6xfFmpLxZCrQHAom18cO+wuPDQNTwgG8w5rPvG2TD2BW2oNQCYmLoFzZN4FxpVHmrnLwfKfTLiMXrdo/fVr/95xh21AekFPbnr1q1bY28DAFCUxkD+6qMl50HD8g/J4SToqgf2P39/UUlWftwaHuS6bwE6p9YAIJaldUKvNiiKGTzy6b+6PIZppAsmR60BQCA3f/WTm7/657G3gmkoDzmmPSbDYDZctwYAUUi1JWhzLZ8bKwMptQYAIWyQau2v5mr+xu01zB4srIOS+3ysBVHa2zn+xH3f+Ov2K0CqLGBjZkICwPgqUy1/9VGWXss59C80T7n68r3XR+kd+eZfH/nm/+j8xwK0p9YAYEzlNUVWDt2wUsNNDupYgQMISK0BwAjSnCiv/bhz/Ik/evLiSBsFQCyuWwOAXpSHd9KZew1z9ky9AyBPrQHAGiqn2HVyAZVUA6BArbEUddcwlBcla9Bwp1FXOMBc3fzVT/7wxb/1vVyhVAOgzHVrzEp6OPWHL97PGmz49aDza7glBzmn5SCm/gbK1iLVAKik1piqQphN4i49hcW4JRx0rm7N9+EDrI10J2D5RwDqqDWmYYpt1tLO8SeygTgn16Fs5fBXEnufkC+xe77+56ZPA9CeWiOobG3rJPZxWB+yfjP+xrxlL+38eonlP42p0GAHHzxR+QUAsBm1RiB1dx/qUOH4qbxqSBsDT6kSb0xaPslGvKB0G+m9qrOPx90YABZFrTGy/c/fT4/hujp6y46lhp9xlE3XzD7Txzpy4o1o6obIJpdk2cdWCQIgCLXGCLoaQ8sW7ZjEEVXapenH3dZp+ggE/+czXRONscr6SkxWBGBS1BrD2f/8/W2uQ5tWm7WUJVwn/ZYNu1mthDaaV+8IGGMrLxVL5rJnAICUWqNf2wyjZWtbJ0s6Auuq35Rb5/Kjo6k4ozTlp0rdLeAjN5i1OgCgQK3Ri42H0czrK7v5q58k28WbctvezV/95Oav/rn919dNw0tyKVJov7LCGol5AaOrWeFmg/lPAgB11Bpd2izSsvXWHLqttP3Imx7ezH/+7OTYmxDdiAv8AMBcqTU6sEGkaYZOZPG21rBP5sg3/zqxtmQ7aq0wX1GPAcAA1BqbWzfSsuvQHN71oZNyM1WyIHtu/9d7F8bdkl6V522KMQCIQK2xtnXvkGai4yjSq902KDfDnpnytWrlxyTg9WMNt4C3egcATItaYw3pYNpakeaIMIKNy23JA26FVNs5/sQfPXlx5XcVbk2WaVgvpE5hbZKDT1a8oLzKAGCu1BqribQ5UW5t7H/+fmHq49e+d32sjQEAFkutUWuty9JE2uSsO6M1s4SpkoU1RY58868XkqkAQChqjQrtB9NE2jxsfEu3Wd7JrTAHUqoBAGNRa9wh0ki2mCqZzGLYTaoBAHGoNZKkdaeJtEXZeKpkZnL3c9tsZREAgJ6otUVrH2mJ+6Qt2zYDbpng8WZlEQAgGrW2UAbT2MyW9+DOS+MtCXPNm5VFAIBo1NritOk0kUYbWbltM1syky1YMsrgm8vVAICA1NpSGEyjbx0Ou6Wyfkt6TjipBgDEpNbmz2Aao9j4rgDNCgmXHFxXuTEriwAAYam1OdNpxNFTvGXS53AWcslBy+X/tMzKIgBAZGptnlZ2WjpAYboXY0njLelu2mQn/ujJi85cAABxqLUZ+q/3LjR3msE0oul2wZJ1GU8DAGJSa7NSuAKnQKcxIUP2m1oDAGJSazPRPPXRGnfMQPr0zhIu+8z21BoAEJNam4nCjX1TBtNYgnzFpdKWS1rknNcIABCZWpuJcq1ZLwHyyuXmBQIABLcz9gbQPfMeoUybAQCTo9ZmxbQuAACYDbU2H4bUAABgTly3NhP7n79vSA0AAOZErQEAAER099gbAAAAQAW1BgAAEJFaAwAAiEitAQAARKTWAAAAIlJrAAAAEak1AACAiNQaAABARGoNAAAgIrUGAAAQkVoDAACISK0BAABEpNYAAAAiUmsAAAARqTUAAICI1BoAAEBEag0AACAitQYAABCRWgMAAIhIrQEAAESk1gAAACJSawAAABGpNQAAgIjUGgAAQERqDQAAICK1BgAAEJFaAwAAiEitAQAARKTWAAAAIlJrAAAAEak1AACAiNQaAABARGoNAAAgIrUGAAAQkVoDAACISK0BAABEpNYAAAAiUmsAAAARqTUAAICI1BoAAEBEag0AACAitQYAABCRWgMAAIhIrQEAAESk1gAAACJSawAAABGpNQAAgIjUGgAAQERqDQAAICK1BgAAEJFaAwAAiEitAQAARKTWAAAAIlJrAAAAEak1AACAiHbG3gCA+fjqo/eav+C+R58cZksAgBlQawDrSZPs5ke/vPnRL/OfWVdabkce/Vb6n0ce/ZaWAwDy7rp169bY2wAwAV999N5/vvWPm4XZWu579Mks4b7+gx/1/dcBAGGpNYBWvnjrlS/eemWUvzrrN/EGAItiJiRAdF999F46ppfmYtpsyg0AZs/YGkCTrz56L70+7eZHvxxgGuS6lBsAzJhaA2jy2xe/X460/AIh2TVmLdcIyX5atkhJ+sGWKZjOlrRUCQDMiVoDqFW4Vu3rP/hR3znUyVCeATcAmAe1BlDr19//4/x/PvDyT4cfucr6bYM1TmQbAEyaWgOoVh5Yi5A96SatO/I2wKggANA5tQZQrTCw9o2f/sdYW1Jng3IL0pwAQBtqDaBCzIG1BunWtpwtaYYkAEyCWgOoEH9grc662WaGJACEpdYAiiY3sFYpXZ6kTbalq/9P8d8IAPOm1gCKCgNrE621TPvRtqn/SwFgZtQawCHzGFir1DLbXNUGAEGoNYBDZjawVumLt15ps5LkLP/tADAhag3gjhkPrJW1vLBt3g8CAESm1gDuWMLAWlmboTbTIwFgeGoN4LbCwFoyqYX7t2eoDQCiUWsAty1zYK2sXK1li31wAGBIag0gSRY/sFbWZgFJzQYAvbp77A0AiEiEpCX2jZ/+R8ND8cVbr/z6+3/c5k5uAMAGjK0BGFhbbeX0SONsANA5Y2sARaqjLBtnu+/RJyu/wDgbAHTO2BpAcX0RA2vNVl7SZpwNADqxM/YGAIysUB0yY6X8Q1TZbOm0Sc0GAFsytgYsnYG1LTVf0qbZAGBjrlsDFs3A2vaal450PRsAbMzYGrBoBta6ZZwNADpkbA1YLgNrnTPOBgAdMrYGLJeBtV4ZZwOALak1YM6++ui98idvfvTL9P/zfyoeeqLZAGBjam3OsiPRurvZwgAaeqnNJ1v+wC3d9+iTD7z8085/LBnNBgAbUGvzVHlgdN+jTx559FuJi3PYQr6UsrgqVFYfNdWT+x598ms/+Jvs43E3Zgkami3dL9k7AUCeWpuh3774/ZWHy8qNgnKG5RtsQgG2FkNqo2hutiOPfks5QyeyXXfdzIX0SCDPqw+iUWtz0zzdqJJT2gtReNvO3rznWmJtqLWxpLuphmazR2JCutqLdlVKX3303n++9Y+dbFW2SYWuy/5T3UHf1NrcbFBrmXTAzYnt6cr3mBirkz29v/aDv/FUH5dmY7o6LKI2KndW5ZGxdM8/4m6/sJ0aD7an1uYj3Tvf/OiXndzLyIBbQPMYHKt7ky4fdrT/0/Z/CwFZgIQpanPRAW3kd9f5XX3+Y7t0lkytzUThbSNdOyG/d/vqo/fSg3vzJGOa1mVjdWdPXQLBxjQbMVVWWbpni7ZnXgiTM1katTYHhaOcNoc1zROQKqU/0zzJbWTjn5GHxQpvhM5uMiTNRjS//v4fj70JW1m53w74NtSh0d+2CmfSR9ySgbkmvENqbfI2SLW8dMytcJvgNrJVJfVbg3yeBXlHrIsxv0Ti0GyM7quP3kv3ipW1Fn9srTzFpr3KO7UU/jPyv50IvvHT/xh7E+ZDrU1bepVz/jPbnMzYYMAtT78Vhs7GejPL95gYY7pWNlsy60nadYtYVE4DSz/2Ml9Lw/zz7I/ue/TJyj15tihX0s/DXvf2UbcQf/ZHYy0V1ibwEo23JGqtQ2qNCltmWybfb8nsjiTGajODYyxHOvjfvC+a61Dblgv8ph9Urtkw731FYVecpUK3g0Ju/rE9I3jzptY6pNZo0uZQaV1ZwiXTGYUb8nozl41BQZvzR/Mbatum1tqrW46v7jMD7IXaDCuVh5j62CenJwK+eOsV6ydFUHenb2kXk1rrkFqjlY0vb2svffMrry448MFB34vj5/+ZSgza++KtV9rsgqY+1Jat3xvnYtfFmvpzackaBu6GlJ6SruvMefPa6ZBaYxNjHU80nwZuNsy52LIsz6YykAiRtRzwn+5Q29RXIJwTtQZEoNbohvPBmTTJvvaDv0mMmEFvWk4U/PoPfjShEyXlNX7Lp6UqJwQufK+7jcJJwIVc3QdMiFqjL0vot/y4WeLdHQbXckmk9HLZ+OMkhYG1DS78qJxztcyoq5yLYf45MDlqjeFka3Vk/z+hQ4fysvje6SGO9kNtSdQZklvePHMtLddbT2Lspcs728q1Luu+GGDS1Brjy1dcMmrIVa7H6L0fpqL93UcCZtv2A2tD6mMXbWcLUKbWmIDm9ZTaLLJUOPnqXCzMW/vl74Nc2DbkwBoAE6LWAJinte4YOW62FQbW1BoAKbUGwMy1nyGZVE2STG/1luTmSHcbdQbWAKij1gBYivYzJJODlSTrVrVN/zTp4uI3A2sA1FFrACzLWjMkW0r7aoNhNwNrADRQawAs1FozJNeSjbw1Ly371Ufv/fbF7+c/o9YAyFNrACxdf9lWkM+28gRLqQZAgVoDgNsqJ0lmA2VJktRdxraNDi+BA2Bm1BoAVEibrfJStDTqko6G4x54+aej3/ANgJjUGgBsZct4U2sA1FFrANClLN7aTJu879EnH3j5p4NsFwDTo9YAoHdptqUVl6xaKxIAUmoNAAAgorvH3gAAAAAqqDUAAICI1BoAAEBEag0AACAitQYAABCRWgMAAIhIrQEAAESk1gAAACJSawAAABGpNQAAgIjUGgAAQERqDQAAICK1BgAAEJFaAwAAiEitAQAARKTWAAAAIlJrAAAAEak1AACAiNQaAABARGoNAAAgIrUGAAAQkVoDAACISK0BAABEpNYAAAAiUmsAAAARqTUAAICI1BoAAEBEag0AACAitQYAABCRWgMAAIhIrQEAAESk1gAAACJSawAAABGpNQAAgIjUGgAAQERqDQAAICK1BgAAEJFaAwAAiEitAQAARKTWAAAAIlJrAAAAEak1AACAiNQaAABARGoNAAAgIrUGAAAQkVoDAACISK0BAABEpNYAAAAiUmsAAAARqTUAAICI1BoAAEBEag0AACAitQYAABCRWgMAAIhIrQEAAES0M/YGQF/e+XQv/5+/+PTL8tc8fepY9vG5U0d73yYAAGjtrlu3bo29DbC5NMl+8emX7/zmy/xntpSW27mHjiUHRaflAAAYmFpjStISe/nta0lHVbaWQsLpNwAAeqXWCG3cPFvp3Kmjaby9+J2TY28LAABzo9YIJyu0gHnW7KXvnkyUGwAAHVFrRPHOp3s9jaE1T1nsqQmVGwAAW1JrjKmTYbTbl5OdOpYkydMPHct/cuNN+sWdNUu+3DLnZBsAAJtRa4xgm0hLM+zF7+4mw67T+M6ne1smXHqRm2wDAKAltcag0umOa6XOWHm2UtZvL/3v62t9o2wDAKANtcYQ1o20c6eOnjt17OmHprRK/stvX0/WHHaTbQAANFBr9GitSMvG0CZUaHXScms/5ubaNgAAytQavWjfaedOHQ04y7Er6WzJ9gNuL333pGYDACCl1uhSGidtxpTSSJtlodVpP+BmqA0AgESt0ZWWg2kLjLSytbJNswEALJZaY1ttOm3e0x039vLb19tMknzpuyefPjWlBVcAAOiEWmNz7TtNaTR7+e3rK4faTI8EAFgatcYmVnaaSNtAyxmSpkcCACyEWmM9K0eBdNr2Wg61aTYAgHlTa7S1MiFe+s7Jad3POrg2Q22aDQBgxtQaqzV3msG0vq3uZM0GADBHao0mOi0OzQYAsDRqjWrN64jotLGsnB6p2QAAZkOtUaTT4tNsAABLoNa4Q6dNTvP0SM0GADBpao0k0WkTp9kAAGZJrdF0rK/TJkSzAQDMjFpbtHc+3fv2v/x75R/ptInSbAAAs6HWFqph6qNOmwHNBjOQ7qjz/9nmu8p773MPHcv/59OnjtV9JQDRqLXFab5E7aXvnHzxu47jZ6J5juu5h45pNgjrrh/9nyH/urTcsq5Li07OAYxOrS1Lw+G7Tpurpl/6d08+feqYAzIIaOBaa1ZuOfsNgGGotaUw9XHhmpvNIBtEE6rWGqQD9enHKg6gc2ptEeqO1HXaojTfU1uzQQRTibRmEg6gK2pt5upWfdRpi2UBEgjr2//y7/kZEOdOHT136liSJE8fXiZkpV/85svyJ9/59MuDD1qtVtK5LOH0G0B7am3O6o7LXaKGZoNoCq/KYXbUWbllgTdk1Ok3gJXU2jzVXaVmSI08F7NBEIUX47lTR3/+V3824vZk0veRQsv1F3L6DaBArc1Q3ezHn//Vn3nzo0yzwegKl6tNYnedD7n+Ku6lgwFG+yJgmdTa3FQeeZv6yEqabaX8Q2QEgA6NMgeyP+98utdfwnnpAUuj1malfMBt6iPtWTSyWWEFiLzsCHLhDxHrKs9an3qq1cknXIf9Jt6A2VNr81FOtbm+69Mrd9Ou01BrBeJtlto3xi8+rViS8fYP+U3TGh5xLlcbQE/9NuTMyXSzF7tLBIah1maifK3aJC57ICwTIzMvv319ywldabwtOXQnrW7Rpm7deuUvev35k9BHv20/+Ja+t2Y/JP2Zlc8Kd5mj7J1P9zwT2JJam4n8WX+zH+mKZmu+1cFm0tdm/qgu//m5KhzXZqNP71TdGSyUYe5OptbKsnhL6mdor6vw6ksaX4B1S3Zt8DfW/mnNnfSyrWr/o/LqYrLltx/6rjXv9TeWmHuSTn4FE7WcaQIDUGszkdXaoibSMIwlN1t5pb70gz5mcOVlb+qFQ6XCMdzw7/3lf29+1l/hgGmsuzBPjv12Sz1Nnpy6/H7Aw0IQzkB1SK3NRFpr3vLpycq7aSdzvEar5Up90Y4gO0y4CP+ceTt36ui5U8dcYLyZaC89IKPWOqTWZiKdrSHV6NWimq38j2353pMdQXY+hZI4NpxUdjA0+vRDi5j+OjyvPghCrXVIrc3Ey29fd3aWYay8lGse0yMLK0BuvMKqw8cZsL7uRHUy+JaOf5Z/SH4pr/yNwrf862Ae1FqH1BqwiXk328YDayvlF05459OmxdznqjCaVB5uisbw12zkX31Juxdg5erK7Vf5y37yL1atgfFO6a4P2+wW0sXG2nzlyg3LK2/kuM5VrcXSYJSdTPpUWdROPmXP2SG1Bmxurs1WWFxksKGVumO7/EFSnHf98ptx/uCpcGDknZtJiL+IX5s9QMDNBjam1oBttWm2ZDqXtLVcXCSOyqO3tU6ZF9SdgXYICAADU2tAN9rcmmwSQ21jDawBABSoNaBLL799PVm1okbkZpvcwBoAMGNqDehey2ZL4k2PNLAGAMSh1oAeTWt6pIE1ACAUtQb0rmWzJWMPtRlYAwBCUWvAQNpMj0zGG2ozsAYARKPWgEGlN6hd2WznTh0999CxIbPNwBoAEI1aA8bRZnpkMtQMSQNrAEBAag0YU8vpkUnP2VYYWLv1yl/08bcAAKxFrQEhtBxqS3rINgNrAEBMag0IpP1QW9JdthlYAwBiUmtARC+/ff2dT79859O9ll+/cbkZWAMAwlJrQGjtZ0im0sUkk9blZmANAAhLrQET0HLd/7J0zO3pU8fOnTpa/lMDawBAZGoNmJKNsy2VNls6+PbOb4ozLQ2sAQChqDVgqta9tq2ZgTUAIBq1BkzeWitJFrz0nZNJkjz9UPVUSQCAEak1YFbWLTezHwGAsNQaMFtpuTXPllRrAEBYag1YinSFkoOPv0yS5MXv7poACQCEpdYAAAAiunvsDQAAAKCCWgMAAIhIrQEAAESk1gAAACJSawAAABGpNQAAgIjUGgAAQERqDQAAICK1BgAAEJFaAwAAiEitAQAARKTWAAAAIlJrAAAAEak1AACAiNQaAABARGoNAAAgIrUGAAAQkVoDAACISK0BAABEpNYAAAAiUmsAAAARqTUAAICI1BoAAEBEag0AACAitQYAABCRWgMAAIhIrQEAAESk1gAAACJSawAAABGpNQAAgIjUGgAAQERqDQAAICK1BgAAEJFaAwAAiEitAQAARKTWAAAAIlJrAAAAEak1AACAiNQaAABARGoNAAAgIrUGAAAQkVoDAACISK0BAABEpNYAAAAiUmsAAAARqTUAAICI1BoAAEBEag0AACAitQYAABCRWgMAAIhIrQEAAESk1gAAACJSawAAABGpNQAAgIjUGgAAQERqDQAAICK1BgAAEJFaAwAAiEitAQAARKTWAAAAIlJrAAAAEak1AACAiNQaAABARGoNAAAgIrUGAAAQkVoDAACISK0BAABEpNYAAAAiUmsAAAARqTUAAICI1BoAAEBEag0AACAitQYAABCRWgMAAIhIrQEAAESk1gAAACJSawAAABGpNQAAgIjUGgAAQERqDQAAICK1BgAAEJFaAwAAiEitAQAARKTWAAAAIlJrAAAAEak1AACAiNQaAABARGoNAAAgIrUGAAAQkVoDAACISK0BAABEpNYAAAAiUmsAAAARqTUAAICI1BoAAEBEag0AACAitQYAABCRWgMAAIhIrQEAAESk1gAAACJSawAAABGpNQAAgIjUGgAAQERqDQAAICK1BgAAEJFaAwAAiEitAQAARKTWAAAAIlJrAAAAEak1AACAiNQaAABARGoNAAAgIrUGAAAQkVoDAACISK0BAABEpNYAAAAiUmsAAAARqTUAAICI1BoAAEBEag0AACAitQYAABCRWgMAAIhIrQEAAESk1gAAACJSawAAABGpNQAAgIjUGgAAQERqDQAAICK1BgAAEJFaAwAAiEitAQAARKTWAAAAIlJrAAAAEak1AACAiNQaAABARGoNAAAgIrUGAAAQkVoDAACISK0BAABEpNYAAAAiUmsAAAARqTUAAICI1BoAAEBEag0AACAitQYAABCRWgMAAIhIrQEAAESk1gAAACJSawAAABH9f7MGxRbz/GkNAAAAAElFTkSuQmCC;clipPath=inset(46.89% 9.33% 45.11% 11.67%);direction=north;" parent="PvffXtldvGFclzvf1Mkj-34" vertex="1">
          <mxGeometry x="284" y="358" width="5" height="52" as="geometry" />
        </mxCell>
        <mxCell id="PvffXtldvGFclzvf1Mkj-51" value="" style="shape=image;verticalLabelPosition=bottom;labelBackgroundColor=default;verticalAlign=top;imageAspect=0;image=data:image/png,iVBORw0KGgoAAAANSUhEUgAABI8AAANrCAIAAABA5S9PAAAACXBIWXMAABcSAAAXEgFnn9JSAAAAB3RJTUUH6AIcDAIakILqlAAAACR0RVh0U29mdHdhcmUATUFUTEFCLCBUaGUgTWF0aFdvcmtzLCBJbmMuPFjdGAAAACJ0RVh0Q3JlYXRpb24gVGltZQAyOC1GZWItMjAyNCAyMTowMjoyNrhQjsAAACAASURBVHic7d1NqB73fejxsTkGy+AiJdKmuGAdmQTbEtS1oI4XtlJEssumuSFa3oVf6Kb3NptSL2wvUrpxm26KX+5exqSb7HwRN44XjgtyfUGyTUIsGW7oRnZ9aMAK5IDuYnRGc+btmed55uU3M58PIRwfnXM0es7zzDPf+f/nP3fdunUrAQAAIJi7x94AAAAAKqg1AACAiNQaAABARGoNAAAgIrUGAAAQkVoDAACISK0BAABEpNYAAAAiUmsAAAARqTUAAICI1BoAAEBEag0AACAitQYAABCRWgMAAIhIrQEAAESk1gAAACJSawAAABGpNQAAgIjUGgAAQERqDQAAICK1BgAAEJFaAwAAiEitAQAARKTWAAAAIlJrAAAAEak1AACAiNQaAABARGoNAAAgIrUGAAAQkVoDAACISK0BAABEpNYAAAAiUmsAAAARqTUAAICI1BoAAEBEag0AACAitQYAABCRWgMAAIhIrQEAAESk1gAAACJSawAAABGpNQAAgIjUGgAAQERqDQAAICK1BgAAEJFaAwAAiEitAQAARKTWAAAAIlJrAAAAEak1AACAiNQaAABARGoNAAAgIrUGAAAQkVoDAACISK0BAABEpNYAAAAiUmsAAAARqTUAAICI1BoAAEBEag0AACAitQYAABCRWgMAAIhIrQEAAESk1gAAACJSawAAABGpNQAAgIjUGgAAQERqDQAAICK1BgAAEJFaAwAAiEitAQAARKTWAAAAIlJrAAAAEak1AACAiNQaAABARGoNAAAgIrUGAAAQkVoDAACISK0BAABEpNYAAAAiUmsAAAARqTUAAICI1BoAAEBEag0AACAitQYAABCRWgMAAIhoZ+wNAAjhyt7+m9dvXtnbT5LkzNGd08fuufDgvWNvFACwaHfdunVr7G0AGN8LH/4uTbW8CyePaDYGk50sGHtDAIjCTEiAWle//MPYm8CCvHn95tibAEAsTuABi1YeTwMACMJMSGDRvvfzL5u/IJ2W5jI2+nNlb//q3v7FwwNrP37sflMiAfBOACzXxc9+n//PM0d3Lpw8khwMuKVHz+nHV/b2Tx/dcfRMH1748HflT755/eaZx+4ffmMACMWRB7BchcvSTh+753Q6knZ0J0mSM0d3/i53GO3omT5crZmLe2Vv/8revhMEAAtnlRFguQoXrZ1uPDJOj5573iIWx5MKgAZqDVio8phGYRzD1EfGZYlIANQasFCFMY02YVY3aQ025i4RADRQawBJkiSnj92z8pMOrOlcw0xIkyQBUGsAtcyEBABGpNaAhdpgoMxYB91aObfWUw5g4dQasFBtFoQsf9LRMwAwGLUGAOMoL3Vj8i0AeWoNIEnqL1Fz9MyILEMKsHBqDViijQ+CHT3Tn8qFSQFYMrU2Ey98+LuxNwHmySL+DMnzDYA8tTYfTvlDexvcGhs6J8YAaKbWAAAqOA0KjM7p5Dl44cPfXdnbT67fTP/zhyePGCiArpw5unNx7G1gIU4f3bkrSTzfIkiH36/u7d9KkiQ3/F6+h4c3XKBXdjFzcPrYPVf29u+8hVy/eeax+0fdIpiY9qs7uN8aHfJ0iuniZ7+/eHACNPWzbx9LP7i6t5//ozNHd7zhAr0yE3IOLjx4b/4/D5UbUMX1QkyCnXkQfhHAWNTaTBRmYphqD105XZrm5LiNnphTF4SzOUAcam0mLpw8kv9P7zQAwTmtNgPO3QB9U2vzZDIkwBSVx3KJQFoDY1FrM3H66I4pNNBe4XSGQ2TCcupteOXHPJuxYuoKMDC1NltvHl7PCtiYUyH0wS3aAVjJe8N8XDh55MqHvxt7KwBmorBWe+JullQNu13Z2/esAPpj/zJbJs9AT646OFuMwo70h4P8pWeO7tiBA5BywDEf6aVr+fd4J/ygJa8UyiouXupzp9r+Fu1AZFf39v/u8Fyn7O7qsAHXrc2ZNaygkpcGEbRcr8LTNQKjncBY1NqsFE7NWroKANYij4FQ1NqsFKboOBcInXAehAG4jcREqTugV2ptVspv9oINYDN9Z3nd/tnZAbYkIKNxMMY21NrcWCwBVnKfKwLyPAzOATcwCu8NM2epcdjemaM7F8feBobX69G50Y8pqvytXf3yD8mD9w6/MZWu7O1f3du/+uUfshHaC2G2DdiM4/i5OX3snvwRRqh3EYhp3ZXTnWJnew3PImcHxjXpF/gLBwvHZ/8KtQZTZybk3FhoBFZa90Igyz+Q6u8SsoZJEHbjtHTxs9+XP+n5E4GxdLah1ubGQiMwAC+r2Rv46Mqtsacr+N5AJ8DUOWE8Q2eO7gR/85i9wuN/tTA3NUl+ePKI6wlHVPgFtRk6K7ysXBHKli5ev1n3R5Un3TzfIgvyC6oc+3VBBEzd+DsX+vbm9ZtnHrt/7K2Yg+xgPauv/FvjWoX8ww43izWVzzS3Ocy6cPLIlYMLQpKDQ20XhNAVz6U46ua7TnSQ6sre/sXPfu8JNiRnzOmWWpuhwmElbRRKbOMMayl71087oe6vaDg4GOYWTG1mZzUMTEU42ZyXPs5vHh7TuHDySJvvPX1058LJI/nxkIvXb168fvPM0Z3Tx+45fXQn2j+WLfV6vFW4vqj85DFFYmD5R3uDRz7IYHvtW4nhNZiy8XcudO50aaGRIJM0xlKYwJbkUmes46GGSVChDPD4DPDMbP5XtN+ACw/em37x3+XOhqSvr+xHpX0r3ljLytMipkise0qr4XxWLyfgAuTQRIf+FqLwDKk8KuvjUK38Mzf+WxZ+JDkuj/s8Fc7LzvudPmCM0d5Yv6MfP3b/Bm88zVe45cstEW/UuPjZ7wvna8qz1GYwRaLypV0oisqmCrLf/vvH7r94/Wbhjjh1XZ2+9q/u7Zdf7Nnn0/9PejtF1fC4ZbsmO6JoGhIoe8I0fKYTlT9Wm4XiNzFPhXf6IG9+m2m4Wiz+v6uwszt97J504+NvOQ1azlIrxFui3yalp8nGFalWNRe3PEVimEuPViZW5L7qVjr5+UrNQHrZm9dvpge4L+ztZ7Omsw/SnUb6qn/hcDhl7ws/PHmkULNp4+U/zv9/9vk3r9/Mfkgm+/np33v7a3InNLN9UeHr6cMsXyMMxotzntJjwcJE/FD74spVE/u+WqwT+YcxO8966JPNj/OD9yZVR2xMyI8fuz+97mjdX6LBt6nbeL90ZW8/vWAyP8Rx+tg9DQFWeZ1kcvgof+XfO/CEwJlJg61wii3fXWkjNTySzecWs0/e/uBgKC97+84/B/Lhl/9L0y8u/PwLJ49cePDe7I0m/dMre/vpP6cwYFjYKaX/usIxQ6EG0+feyjOnQXZrQZ7qFz/7ff4xfLP0QeHjss0O5Mo/s/lv2f4b86yA3Ym7bt26NfY20Iure/vZbjrd86a7721+ZvMurzxpvnCgEGSP2aBwGLRGg61pZa017N3Gui/TPA770gf2wskjXf1CN8u2Ovotju/9/MvKz//s28fafHt+SZvCgXX6QZuDmKsHB9lO7gwj+42UdxHZ8yF9kZ45upN9QfpH+TOk5dzK/+pX7jArvzj/o5LSXrfQkPn3+u/9/Mu6b0k/KNdawybBWrY/8iQxtjZjp4/upCfDsp14emp241fO1b39F6Z8HUV5TOxOmw1+WJytVzHK376hLXa4bS5/7+NQoDgTtYeHOn01XTgYMk1K56rX0jB5MpFwMbzw4e9+eDB3sXAQfHVvv3mq87pPjOwZe3GzbZ21utdC3fms2q9f/zXV8B6avuGePnZPXfMUvrLyg+x78z+n7nxZ/tsLGZn6+8fuT78ge2Qa4r+rp25Mlc+B/FjiysGr8hc3/H9v/w4Wxxv/nF148N6rpV1GNp0mvVhiTsd/dSNjMXMo5lb1pM0/dgYPyO1juAfvTZLk6kF3bRNvSc2lMobg+lY+v5BNIbuyt58cntPY/vebffECZweV/73lrKp8TILsGQoTUwt/lE47rPzT7NW6wfMkr64Ai39X+XE+upNd59Z+WK/l5yfkzNGdbMg0fwVgXa1la280f3Hz/6c/qjxQ//cHC78FeXoTnGfJzKW76ReqzsmV33jqLocY5tZezUKNjMFKp7PDpoPT8F31W1IzBJccXjZgaTHQlfwMxkx5ItnGv8H8IWNL2dVTwx8uNydWh6NV8V148N66IbU7A+wHZ2qSJEnXYT59dCfbA1zI7Qpuf+bgiXRn/PzYPYWVJ7MH+czRnau5l3nm9LF70iG1pPGRP33wBVf39pPDC9tMPcOmaJavEfrjurVFSK9tjblHbl60wx6Nueow3hqYSFmWn7iYtFtjNh08uXIwG7zyCqVmG0RapaulUK88m9Z8deuiKov2ykPKzc/t9vuTCIcf+aAt3FOhUuXY2mZ/dfkqkh/P96ZK9EGtLUV/ixC2vHigvxU7YB6G6bdUvuKS6QzHrXxYGm7ntcFDmp9ukA6MZAs2JC1mQna+pA0AC6TWlmWbQbb03HCitWAo+X5Lxjg/febwzKvRb81Ut05jTyrXZEp/KdmONL/GQ5IkbeakAUB7am2hNli87szRHWP3MK78UgERpjdXXuyaD5Vuuy5CrQHAkNQaSXL4EPDOJw9fDtF8I1dgLPlrmSIkXIM2CwM2GOa2Yw033QKAgak1gBkqjMIlMS70j2NaN/wAYLHUGsCCFAbSZxNy7dea12MATIhaA+CQbGXFaFHnlrIALI1aA2Bt5Ytdt1wuv42ffftYHz8WAMJyehKAtZ0ur1NfswpR4R5odSFXeZdnAFg4Y2sAAAAR3T32BgAAAFBBrQEAAESk1gAAACJSawAAABGpNQAAgIjUGgAAQERqDQAAICK1BgAAEJFaAwAAiEitAQAARKTWAAAAIlJrAAAAEak1AACAiNQaAABARGoNAAAgIrUGAAAQkVoDAACISK0BAABEpNYAAAAiUmsAAAARqTUAAICI1BoAAEBEag0AACAitQYAABCRWgMAAIhIrQEAAESk1gAAACJSawAAABGpNQAAgIjUGgAAQERqDQAAICK1BgAAEJFaAwAAiEitAQAARKTWAAAAIlJrAAAAEak1AACAiNQaAABARGoNAAAgIrUGAAAQkVoDAACISK0BAABEpNYAAAAiUmsAAAARqTUAAICI1BoAAEBEag0AACAitQYAABCRWgMAAIhIrQEAAES0M/YGAARy7cblazcupx+ff+T5cTcGAFi4u27dujX2NgCM79qNy6+/+0zhk+cffk6zAQBjMRMSIEmSJBtSO/TJzz8YfksAAFJqDQAAICIzIYFFu3bj8qVPXss+Ln/B7omzSZLsHn/clEgAYGBqDVi0v/3Xx/L/mbXZtc8/KMTbs0+9kf4pAMAwrAkJLNelj18tfObZp97IPn793WfywXbtxmW1BgAMyXVrALedf/i5sTcBAOAOtQYslyUfAYDI1BqwXIUr0woTHQtDbdIOABiYWgMWqrwCZPNlaZUrRgIA9EetAQvVPLBW+RnBBgAMSa0B1CoEm1oDAIak1gCSJEl2jz++8mtcukavnA4AoECtAQvVJr3aJBx05fV3nynfAxCAJVNrALXcDhsAGNHO2BsAMI6Vq4ys/BboxLUbl7On1rXPP7j08au7J846UwBAotYAGjhiZgCvv/tM9vHtcvvktd0TZ5996o0RtwqACMyEBEiS1mFmeI1u1V2olh9wA2Cx1BqwRI6Die/SJ6+NvQkAjEytATQxGZJeuS0EAA3UGsAaDMrRrYZnlCcbAGoNWKINFoSE4Qk2gIWzJuS0OeKEvu0efzz/QjNvjQ6JMQCaqbVpu3bjcv4ydCs+A0xI5Rk3CQdAxkzIWfEeD5vZPf742JsAFezVx+XxB0ZnbG3adk+cPZ8kSZJc+/wDbyrQh90TZxMLqTOI3eOPF6bamnkLsHBqbdp2T5xNZ868/u4zY28LTMnGB8FOi9Ch8vOwcJ0kY0nvWn7t8w92b1xOkuT8I89nn8//1naPP579EUAf1NrcZNl2/uHnLDoCAOu69PGr2TXh1w7XWuKUDTAs163NxLNPvXH+4eeSJLl243L6P6NtAMGVVxlxli0mhQaMRa3Nx/lHnk+DLSPYYHvlo2fHbQzGk20U7WdK+wUBfVNrs3L+kefzR5bpINuI2wNTYUCDCDwPAShQa3NTHl5LL5UG8pzIYHSVT0LBFpM9BjAWq4zMze6Js+cffi6dxZG+u1z65LVLn7yWVpyLIgCm5dqNy/bbAyu3WTY30j0VgIGptRlKl666duNy8vBz2aVrt5e3+uS15ODcbXo74NsfOxQAOKy8XNOzT73R4d6yvMRIVz+ZIclpoFdqbYnSQ4TbBwq52/7mKy4xEAcHdk+cNQ9qgfzSKfOsAAam1mZrg9A6VHHJnZAzFsfseUrTRq+jKPkzZZIApqs8LP8Pf/nhWBvDDKi1mTv/8HOXcqNnm2kYi8sSzsEuE7LlobCJT3Si5RVQnm8R6GdgLGpt5s4/8vz5R55Pl4W89vkH3b7f3LlDQG4UzkRKYB6sJ8FEKXyYE7W2COm6I6n8Tdh67Lfkzoomxt8AyupWGdk9/nj+j0TjwAyjAaGotcWpq6ZCxSUdvWM1jL/pNyCygY/a7Q8nKtRA1qWPX72d9+kJ0+OP50/XMpZQTxImR61xW8uK2/7wpdBv4o3ReeLRUofDXA370t0TZ5OtrzdmmQpXql+7cVmtwdSpNVaojKj8uiNbJpx4Y3jrPmPNTFugvgfW2t9szcS8IOIPj6TXqBfE32ygmVpjE5Xr+GfdtU2/iTdggbL1mYis8q3N6RugV2qNzpSDavt+E28MwIEyZX2PaBVmrOV3aJXTGezxBjPdwUzdGJaXMNtQa/So836rizfz8oEJKc9YK+wq3SCbrugEmDq1xqAK/dZVvF3KxZthN1Za9wy0VR86V/l6D/XKrXySdLZS7uEffv7h55q/5dInrz0b6cEhL05Xm6gZRJynBPOg1hhTuay2uZH37Xg7OKpOD4DEG2XtF3ho8+0zc2g9lTUP/rZ5ZHZPnA0VJHX/lksfv7rWYP6dNXVvXC7s2W5fAFy1xvr5h597/fAvYt2/l6VpePUZXoNJU2vEUjgc2Sbebl8W4oI3VpnxU6Lwwin+Z6675p2gK7X/51/7/IO//dfH8neyzj7f/mem3/7sU280fMH5h5/Lfua1G5cvffLapU9ey+/Kklk/dQNqaJ4IOVT3fLt24/K144+Pvnmd23iXVbfM9WY/qvCrX/iOlJ6oNULLx9s20yZd8EZmg3fT0Vd9aIiuQiRM+lihcv3xOpvN79r48Xn2qTcuffJaeeCxvwf8/CPPZ3/FoQG63K4slY3RFT8zuwP0YXQ7enztxuXX330m+x1lVySWD/TLmi9fzH7OpU9e2z3+eNNm57I/Lf/s56ffmP3/WlsyxdM9uyfO7h5MRc7/22//6cHH6UORf2QKj9Lt/7xx+drnHxR+YJJUrFyVfv71d5/ZPf54etolKb2PXLtxOZsUXfnbzP/8ul93+R9V+UeFf3X2lxb+ivw/pPCnhe0sfOX5h5+z/+mQWmMyOrzmrfKCt0S8LUPh2bLykqE+NqBhjCv7mgG3KITywxLH7SOPT15LuvvVtFmJNDuka/6yim4sXWZZHgw89MnFHFc1T/RNX4mbTeVYOY+38Ia1m37wyWuFfst/cP7h5y7l5vZnb1j5jUx/Tnl2d+Ez2amQ4vmd3Len8VB9Tel2N1YFtqHWmKq6eLu0/moQhe91wduM5c8rr6XDNfpef/eZTn4O28j/Qgsfpx+kR67Z3iA5uEn69s+E3RNnG+ZA9iQ/Onfns1WvhUP3EjiclOWFKzvcwmFsvAdIDsYWGn5y5RrIlw5HfufNU/6Bzz71xu6Js6+/+0zFkOyq712CLJjLpznKv6byV9Z9TV75OZZeelr3W7iz28mNguaz/PbHVc1c/TMrF0lKT0Yc/H/dN9bN3aj8/J3zC6VZHtkfTXFHEc1dt27dGnsboHvbXPBWIN5moHzMlDr/8HMtB1QvffzqpcNzzzY+4P7bf31ss28cUuWzve5QteVLY+WX5Vto98TZSx+/mr7uyq/i/J+mH6Tfnp89mH5c6Kvzjzyf7RzyM4LOP/zc7UlNhycLVV5Jeyk3HtJSuoX59ltL4ekXUDHkSk+V6mfU4DvVlo/k7esG10m79CmR/Yorv7dw/F33QeFntvk4P9Mye1Qvffxq82hhefC2dmzNLSXYSPs3WRoYW2OeurrgLTm8Wkli2uR0pL/3yl/6Bq1VWMT/2o3LaXRlz4fV2zP2OtoNx9OHhlOclThQfijSV/3tDmy8yKfhh2zg/CPPZ/GZdHQeqlvFyb3lzVunNts/aO1vbb/JfTuSNTY7/6s5v9Esj/xffbvfjj9+p8oOPm54cApnFdNzE8E7H1hJrTF/Hc6ZLH+71SbjyP9eOj+Wza/RV5g5M+Rxc/MIxgwmqiVVm103vFb3D6z8+vzplfQodvfE2TSBsh91ewSsxYmYUV7v5b+0YirXpldehdJ++3v9l+ZP62QTmLNRrOSg27NFRPI5XfhR+TG32z8nXaxi64UNd48/vnuw5GPd+YXyd2Wu3bjc6hLKunH13AqlvZri3iz75WZPHmtvsBkzIVm6LeOtLFu1Qr/1KjtO3eDwdMu5GZ1MZaxc9SGpaZXt/zqWqfLSmsI1J8tU8UJrvDVC9qpPT9zkvyC7o0M27TZbESR9Oxh9IkY2JdjOZBTZkye9pHDcjWGKjK2xdNkbWPqGun283fnGw4NviX7bwjZtllc+0hrYKCtMsFh3Tgq0W7Gw/HEyrzVLOzlcLvyENMlGn+rcwFvPuFz1x5aMrUGTzkfeksMTabyJFhxaxKzTOV0ddlo692njzVBrzEZD4yXlxeIDHLBuXGvZ8FRSn775dfDStwwvdmB7ag3W0Ee8pZYzBFe86KvPSVm7h1dg71bhirU2Z9YLK7YBSf1rv499wuiTEgHWpdZgcwMs0Ra24qpv1VI/gWqY0+pbrpMOABCKWoMupbdjSvpfYjs/nTKpvzK+P/lbr44lf4uhRJ4BALOj1qBHhQWdB8ubyvUGu70H1PC1ps0AgKVRazCo/MVOcW5xW1k+lTfYGWbt70KYJdoMAFgktQbji5lwvTo00KfKAACqqDUIqpBwSYz1ryutHJrrdhImAMBCqDWYmOw+0bf/c6SQ+4e//HDgvxEAYGl2xt4AYD0rb89a+CAZ6mIzAAC6pdZgVtpfAFa8N1pjyLW59TMAAN0yExIAACCiu8feAAAAACqoNQAAgIjUGgAAQERqDQAAICK1BgAAEJFaAwAAiEitAQAARKTWAAAAIlJrAAAAEak1AACAiNQaAABARGoNAAAgIrUGAAAQkVoDAACISK0BAABEpNYAAAAiUmsAAAARqTUAAICI1BoAAEBEag0AACAitQYAABCRWgMAAIhIrQEAAESk1gAAACJSawAAABGpNQAAgIjUGgAAQERqDQAAICK1BgAAEJFaAwAAiEitAQAARKTWAAAAIlJrAAAAEe2MvQEA0/DZ5d9+dvm31y//v4YvaPNzHjz7QN0fnTz7Jyu/vuHbAYCZuevWrVtjbwNAXJ9d/u3PX/1lyxIbWFZuhcxLP6/rAGDq1BpAtcidtq603LKoy0JO0QFAZGoNoGhOndZGoeXSzwg5ABidWgO4Y2md1kbluJyWA4ABqDWAJGnRaQeVcugKsZNbRMv1+r/rs8NrmYStx3LIqTgA6JBaA5auTad9+/lvxemQ/Kbmky9rvNHrTsUBQCfUGrAIdQHT3Gnnnv/Wt59/oreN6l32T8uibtyiU3EAsBa1NkPpQdjKCV3lj5m9lQfoK7+g4W5jW/7kaKbeaS2lv5fyAN3Av698xbkuDgAyam0m0kOrLVdHqLx3k5W+u9X8C9o+liYXRQE9ePaB//6//tvYWxFCoeWGD7kHzz5gII6YVp4Y3UC3z/Dtt63N9nhVQt/U2ky8+Kf/NPDfWN5BF+7PW/dldZ8MrvJtr/zJck3JpwmJdn1aZOOG3OyXqdysBFY+AnN6iDrU8DhbIbZbbZ6BlccSm/0oT3jmQa3NxPC11p+xdq/ekpdMp3Xos8u/HXE4Lpl4y8W5h8RUHrGyCI8eS1P5eik8FQd7TbUs3l6dW8ClBINRazMxp1qDwTx49oEHz/7JSVPsBjF6xaXKU76DzPeO02kAW3r5//7PsTdhPnbG3gB6Ub4x1FRu38Qo2k0pWeNc3TZ3IVuLypqQwxee3TntWqi4vvdOn935u1otxVT44vwflU9gF76x5fNTpwFQx9jaTLz4p/+UTuVK1j9+La/xnYy9zPeitPx9NcdScx1JGiYnf13ciANx0GCAXevGT/vSiYPas7e9bgaLZWytQ2qNNRT219erdt/lt4FZ7uVrVk85FFTlglJNsKXRl6kcTHmKRGrlofYsH41RZDOl6/504O2Jr/1zr/L4oeoHerZPlVrrkFpjTM372ZZ78y2tnLPnLRmmYh4tN8yaN+s+LMPskNe1zaRr+/blCLUTCPJS2mCIdS1uhNMhtQbAIpRnfUeb8r2Qe7ID0J5aA4DbKq/jLQzgFE6Nb7+GUzrjTqcBUKbWAKBHzf1mPh4ADdQaAABARHePvQEAAABUUGsAAAARqTUAAICI1BoAAEBEag0AACAitQYAABCRWgMAAIhIrQEAAESk1gAAACJSawAAABGpNQAAgIjUGgAAQERqDQAAICK1BgAAEJFaAwAAiEitAQAARKTWAAAAIlJrAAAAEak1AACAiNQaAABARGoNAAAgIrUGAAAQkVoDAACISK0BAABEpNYAAAAiUmsAAAARqTUAAICI1BoAAEBEag0AACAitQYAABCRWgMAAIhIrQEAAESk1gAAACJSawAAABGpNQAAgIjUGgAAQERqDQAAICK1BgAAEJFaAwAAiEitAQAARKTWAAAAIlJrAAAAEak1AACAiNQaAABARGoNebYZrQAAHRJJREFUAAAgIrUGAAAQkVoDAACISK0BAABEpNYAAAAiUmsAAAARqTUAAICI1BoAAEBEag0AACAitQYAABCRWgMAAIhIrQEAAESk1gAAACJSawAAABGpNQAAgIjUGgAAQERqDQAAICK1BgAAEJFaAwAAiEitAQAARKTWAAAAIlJrAAAAEak1AACAiNQaAABARGoNAAAgIrUGAAAQkVoDAACISK0BAABEpNYAAAAiUmsAAAARqTUAAICI1BoAAEBEag0AACAitQYAABCRWgMAAIhIrQEAAESk1gAAACJSawAAABGpNQAAgIjUGgAAQERqDQAAICK1BgAAEJFaAwAAiEitAQAARKTWAAAAIlJrAAAAEak1AACAiNQaAABARGoNAAAgIrUGAAAQkVoDAACISK0BAABEpNYAAAAiUmsAAAAR7Yy9AQAAQDj7n7+f/88/fPF+7uN/a/jir33veq8btihqDQAA5qlQXEljdJW/mNGpNQAACK0hupqHuZg6tQYAAANpP71QdJGoNQAAWFeb6JJbbE+tAQCwXAa7Vto5/kThM/d8/c9zHz/R/MVsQ60BADATdemlu5JSRzUUV/mLGYtaAwAgrnxZ1Q18Laq+2keX4poBtQYAwECMfWVEF22oNQAANiG9UpXdVZ5bWP5KWEmtAQAsUfN9k5Pl3cjLYBcBqTUAgFnZ//z9P3zxfrm1krnnVl5deukupkWtAQBMRsOAWJpnM+6xfFmpLxZCrQHAom18cO+wuPDQNTwgG8w5rPvG2TD2BW2oNQCYmLoFzZN4FxpVHmrnLwfKfTLiMXrdo/fVr/95xh21AekFPbnr1q1bY28DAFCUxkD+6qMl50HD8g/J4SToqgf2P39/UUlWftwaHuS6bwE6p9YAIJaldUKvNiiKGTzy6b+6PIZppAsmR60BQCA3f/WTm7/657G3gmkoDzmmPSbDYDZctwYAUUi1JWhzLZ8bKwMptQYAIWyQau2v5mr+xu01zB4srIOS+3ysBVHa2zn+xH3f+Ov2K0CqLGBjZkICwPgqUy1/9VGWXss59C80T7n68r3XR+kd+eZfH/nm/+j8xwK0p9YAYEzlNUVWDt2wUsNNDupYgQMISK0BwAjSnCiv/bhz/Ik/evLiSBsFQCyuWwOAXpSHd9KZew1z9ky9AyBPrQHAGiqn2HVyAZVUA6BArbEUddcwlBcla9Bwp1FXOMBc3fzVT/7wxb/1vVyhVAOgzHVrzEp6OPWHL97PGmz49aDza7glBzmn5SCm/gbK1iLVAKik1piqQphN4i49hcW4JRx0rm7N9+EDrI10J2D5RwDqqDWmYYpt1tLO8SeygTgn16Fs5fBXEnufkC+xe77+56ZPA9CeWiOobG3rJPZxWB+yfjP+xrxlL+38eonlP42p0GAHHzxR+QUAsBm1RiB1dx/qUOH4qbxqSBsDT6kSb0xaPslGvKB0G+m9qrOPx90YABZFrTGy/c/fT4/hujp6y46lhp9xlE3XzD7Txzpy4o1o6obIJpdk2cdWCQIgCLXGCLoaQ8sW7ZjEEVXapenH3dZp+ggE/+czXRONscr6SkxWBGBS1BrD2f/8/W2uQ5tWm7WUJVwn/ZYNu1mthDaaV+8IGGMrLxVL5rJnAICUWqNf2wyjZWtbJ0s6Auuq35Rb5/Kjo6k4ozTlp0rdLeAjN5i1OgCgQK3Ri42H0czrK7v5q58k28WbctvezV/95Oav/rn919dNw0tyKVJov7LCGol5AaOrWeFmg/lPAgB11Bpd2izSsvXWHLqttP3Imx7ezH/+7OTYmxDdiAv8AMBcqTU6sEGkaYZOZPG21rBP5sg3/zqxtmQ7aq0wX1GPAcAA1BqbWzfSsuvQHN71oZNyM1WyIHtu/9d7F8bdkl6V522KMQCIQK2xtnXvkGai4yjSq902KDfDnpnytWrlxyTg9WMNt4C3egcATItaYw3pYNpakeaIMIKNy23JA26FVNs5/sQfPXlx5XcVbk2WaVgvpE5hbZKDT1a8oLzKAGCu1BqribQ5UW5t7H/+fmHq49e+d32sjQEAFkutUWuty9JE2uSsO6M1s4SpkoU1RY58868XkqkAQChqjQrtB9NE2jxsfEu3Wd7JrTAHUqoBAGNRa9wh0ki2mCqZzGLYTaoBAHGoNZKkdaeJtEXZeKpkZnL3c9tsZREAgJ6otUVrH2mJ+6Qt2zYDbpng8WZlEQAgGrW2UAbT2MyW9+DOS+MtCXPNm5VFAIBo1NritOk0kUYbWbltM1syky1YMsrgm8vVAICA1NpSGEyjbx0Ou6Wyfkt6TjipBgDEpNbmz2Aao9j4rgDNCgmXHFxXuTEriwAAYam1OdNpxNFTvGXS53AWcslBy+X/tMzKIgBAZGptnlZ2WjpAYboXY0njLelu2mQn/ujJi85cAABxqLUZ+q/3LjR3msE0oul2wZJ1GU8DAGJSa7NSuAKnQKcxIUP2m1oDAGJSazPRPPXRGnfMQPr0zhIu+8z21BoAEJNam4nCjX1TBtNYgnzFpdKWS1rknNcIABCZWpuJcq1ZLwHyyuXmBQIABLcz9gbQPfMeoUybAQCTo9ZmxbQuAACYDbU2H4bUAABgTly3NhP7n79vSA0AAOZErQEAAER099gbAAAAQAW1BgAAEJFaAwAAiEitAQAARKTWAAAAIlJrAAAAEak1AACAiNQaAABARGoNAAAgIrUGAAAQkVoDAACISK0BAABEpNYAAAAiUmsAAAARqTUAAICI1BoAAEBEag0AACAitQYAABCRWgMAAIhIrQEAAESk1gAAACJSawAAABGpNQAAgIjUGgAAQERqDQAAICK1BgAAEJFaAwAAiEitAQAARKTWAAAAIlJrAAAAEak1AACAiNQaAABARGoNAAAgIrUGAAAQkVoDAACISK0BAABEpNYAAAAiUmsAAAARqTUAAICI1BoAAEBEag0AACAitQYAABCRWgMAAIhIrQEAAESk1gAAACJSawAAABGpNQAAgIjUGgAAQERqDQAAICK1BgAAEJFaAwAAiEitAQAARKTWAAAAIlJrAAAAEak1AACAiHbG3gCA+fjqo/eav+C+R58cZksAgBlQawDrSZPs5ke/vPnRL/OfWVdabkce/Vb6n0ce/ZaWAwDy7rp169bY2wAwAV999N5/vvWPm4XZWu579Mks4b7+gx/1/dcBAGGpNYBWvnjrlS/eemWUvzrrN/EGAItiJiRAdF999F46ppfmYtpsyg0AZs/YGkCTrz56L70+7eZHvxxgGuS6lBsAzJhaA2jy2xe/X460/AIh2TVmLdcIyX5atkhJ+sGWKZjOlrRUCQDMiVoDqFW4Vu3rP/hR3znUyVCeATcAmAe1BlDr19//4/x/PvDyT4cfucr6bYM1TmQbAEyaWgOoVh5Yi5A96SatO/I2wKggANA5tQZQrTCw9o2f/sdYW1Jng3IL0pwAQBtqDaBCzIG1BunWtpwtaYYkAEyCWgOoEH9grc662WaGJACEpdYAiiY3sFYpXZ6kTbalq/9P8d8IAPOm1gCKCgNrE621TPvRtqn/SwFgZtQawCHzGFir1DLbXNUGAEGoNYBDZjawVumLt15ps5LkLP/tADAhag3gjhkPrJW1vLBt3g8CAESm1gDuWMLAWlmboTbTIwFgeGoN4LbCwFoyqYX7t2eoDQCiUWsAty1zYK2sXK1li31wAGBIag0gSRY/sFbWZgFJzQYAvbp77A0AiEiEpCX2jZ/+R8ND8cVbr/z6+3/c5k5uAMAGjK0BGFhbbeX0SONsANA5Y2sARaqjLBtnu+/RJyu/wDgbAHTO2BpAcX0RA2vNVl7SZpwNADqxM/YGAIysUB0yY6X8Q1TZbOm0Sc0GAFsytgYsnYG1LTVf0qbZAGBjrlsDFs3A2vaal450PRsAbMzYGrBoBta6ZZwNADpkbA1YLgNrnTPOBgAdMrYGLJeBtV4ZZwOALak1YM6++ui98idvfvTL9P/zfyoeeqLZAGBjam3OsiPRurvZwgAaeqnNJ1v+wC3d9+iTD7z8085/LBnNBgAbUGvzVHlgdN+jTx559FuJi3PYQr6UsrgqVFYfNdWT+x598ms/+Jvs43E3Zgkami3dL9k7AUCeWpuh3774/ZWHy8qNgnKG5RtsQgG2FkNqo2hutiOPfks5QyeyXXfdzIX0SCDPqw+iUWtz0zzdqJJT2gtReNvO3rznWmJtqLWxpLuphmazR2JCutqLdlVKX3303n++9Y+dbFW2SYWuy/5T3UHf1NrcbFBrmXTAzYnt6cr3mBirkz29v/aDv/FUH5dmY7o6LKI2KndW5ZGxdM8/4m6/sJ0aD7an1uYj3Tvf/OiXndzLyIBbQPMYHKt7ky4fdrT/0/Z/CwFZgIQpanPRAW3kd9f5XX3+Y7t0lkytzUThbSNdOyG/d/vqo/fSg3vzJGOa1mVjdWdPXQLBxjQbMVVWWbpni7ZnXgiTM1katTYHhaOcNoc1zROQKqU/0zzJbWTjn5GHxQpvhM5uMiTNRjS//v4fj70JW1m53w74NtSh0d+2CmfSR9ySgbkmvENqbfI2SLW8dMytcJvgNrJVJfVbg3yeBXlHrIsxv0Ti0GyM7quP3kv3ipW1Fn9srTzFpr3KO7UU/jPyv50IvvHT/xh7E+ZDrU1bepVz/jPbnMzYYMAtT78Vhs7GejPL95gYY7pWNlsy60nadYtYVE4DSz/2Ml9Lw/zz7I/ue/TJyj15tihX0s/DXvf2UbcQf/ZHYy0V1ibwEo23JGqtQ2qNCltmWybfb8nsjiTGajODYyxHOvjfvC+a61Dblgv8ph9Urtkw731FYVecpUK3g0Ju/rE9I3jzptY6pNZo0uZQaV1ZwiXTGYUb8nozl41BQZvzR/Mbatum1tqrW46v7jMD7IXaDCuVh5j62CenJwK+eOsV6ydFUHenb2kXk1rrkFqjlY0vb2svffMrry448MFB34vj5/+ZSgza++KtV9rsgqY+1Jat3xvnYtfFmvpzackaBu6GlJ6SruvMefPa6ZBaYxNjHU80nwZuNsy52LIsz6YykAiRtRzwn+5Q29RXIJwTtQZEoNbohvPBmTTJvvaDv0mMmEFvWk4U/PoPfjShEyXlNX7Lp6UqJwQufK+7jcJJwIVc3QdMiFqjL0vot/y4WeLdHQbXckmk9HLZ+OMkhYG1DS78qJxztcyoq5yLYf45MDlqjeFka3Vk/z+hQ4fysvje6SGO9kNtSdQZklvePHMtLddbT2Lspcs728q1Luu+GGDS1Brjy1dcMmrIVa7H6L0fpqL93UcCZtv2A2tD6mMXbWcLUKbWmIDm9ZTaLLJUOPnqXCzMW/vl74Nc2DbkwBoAE6LWAJinte4YOW62FQbW1BoAKbUGwMy1nyGZVE2STG/1luTmSHcbdQbWAKij1gBYivYzJJODlSTrVrVN/zTp4uI3A2sA1FFrACzLWjMkW0r7aoNhNwNrADRQawAs1FozJNeSjbw1Ly371Ufv/fbF7+c/o9YAyFNrACxdf9lWkM+28gRLqQZAgVoDgNsqJ0lmA2VJktRdxraNDi+BA2Bm1BoAVEibrfJStDTqko6G4x54+aej3/ANgJjUGgBsZct4U2sA1FFrANClLN7aTJu879EnH3j5p4NsFwDTo9YAoHdptqUVl6xaKxIAUmoNAAAgorvH3gAAAAAqqDUAAICI1BoAAEBEag0AACAitQYAABCRWgMAAIhIrQEAAESk1gAAACJSawAAABGpNQAAgIjUGgAAQERqDQAAICK1BgAAEJFaAwAAiEitAQAARKTWAAAAIlJrAAAAEak1AACAiNQaAABARGoNAAAgIrUGAAAQkVoDAACISK0BAABEpNYAAAAiUmsAAAARqTUAAICI1BoAAEBEag0AACAitQYAABCRWgMAAIhIrQEAAESk1gAAACJSawAAABGpNQAAgIjUGgAAQERqDQAAICK1BgAAEJFaAwAAiEitAQAARKTWAAAAIlJrAAAAEak1AACAiNQaAABARGoNAAAgIrUGAAAQkVoDAACISK0BAABEpNYAAAAiUmsAAAARqTUAAICI1BoAAEBEag0AACAitQYAABCRWgMAAIhIrQEAAES0M/YGQF/e+XQv/5+/+PTL8tc8fepY9vG5U0d73yYAAGjtrlu3bo29DbC5NMl+8emX7/zmy/xntpSW27mHjiUHRaflAAAYmFpjStISe/nta0lHVbaWQsLpNwAAeqXWCG3cPFvp3Kmjaby9+J2TY28LAABzo9YIJyu0gHnW7KXvnkyUGwAAHVFrRPHOp3s9jaE1T1nsqQmVGwAAW1JrjKmTYbTbl5OdOpYkydMPHct/cuNN+sWdNUu+3DLnZBsAAJtRa4xgm0hLM+zF7+4mw67T+M6ne1smXHqRm2wDAKAltcag0umOa6XOWHm2UtZvL/3v62t9o2wDAKANtcYQ1o20c6eOnjt17OmHprRK/stvX0/WHHaTbQAANFBr9GitSMvG0CZUaHXScms/5ubaNgAAytQavWjfaedOHQ04y7Er6WzJ9gNuL333pGYDACCl1uhSGidtxpTSSJtlodVpP+BmqA0AgESt0ZWWg2kLjLSytbJNswEALJZaY1ttOm3e0x039vLb19tMknzpuyefPjWlBVcAAOiEWmNz7TtNaTR7+e3rK4faTI8EAFgatcYmVnaaSNtAyxmSpkcCACyEWmM9K0eBdNr2Wg61aTYAgHlTa7S1MiFe+s7Jad3POrg2Q22aDQBgxtQaqzV3msG0vq3uZM0GADBHao0mOi0OzQYAsDRqjWrN64jotLGsnB6p2QAAZkOtUaTT4tNsAABLoNa4Q6dNTvP0SM0GADBpao0k0WkTp9kAAGZJrdF0rK/TJkSzAQDMjFpbtHc+3fv2v/x75R/ptInSbAAAs6HWFqph6qNOmwHNBjOQ7qjz/9nmu8p773MPHcv/59OnjtV9JQDRqLXFab5E7aXvnHzxu47jZ6J5juu5h45pNgjrrh/9nyH/urTcsq5Li07OAYxOrS1Lw+G7Tpurpl/6d08+feqYAzIIaOBaa1ZuOfsNgGGotaUw9XHhmpvNIBtEE6rWGqQD9enHKg6gc2ptEeqO1HXaojTfU1uzQQRTibRmEg6gK2pt5upWfdRpi2UBEgjr2//y7/kZEOdOHT136liSJE8fXiZkpV/85svyJ9/59MuDD1qtVtK5LOH0G0B7am3O6o7LXaKGZoNoCq/KYXbUWbllgTdk1Ok3gJXU2jzVXaVmSI08F7NBEIUX47lTR3/+V3824vZk0veRQsv1F3L6DaBArc1Q3ezHn//Vn3nzo0yzwegKl6tNYnedD7n+Ku6lgwFG+yJgmdTa3FQeeZv6yEqabaX8Q2QEgA6NMgeyP+98utdfwnnpAUuj1malfMBt6iPtWTSyWWEFiLzsCHLhDxHrKs9an3qq1cknXIf9Jt6A2VNr81FOtbm+69Mrd9Ou01BrBeJtlto3xi8+rViS8fYP+U3TGh5xLlcbQE/9NuTMyXSzF7tLBIah1maifK3aJC57ICwTIzMvv319ywldabwtOXQnrW7Rpm7deuUvev35k9BHv20/+Ja+t2Y/JP2Zlc8Kd5mj7J1P9zwT2JJam4n8WX+zH+mKZmu+1cFm0tdm/qgu//m5KhzXZqNP71TdGSyUYe5OptbKsnhL6mdor6vw6ksaX4B1S3Zt8DfW/mnNnfSyrWr/o/LqYrLltx/6rjXv9TeWmHuSTn4FE7WcaQIDUGszkdXaoibSMIwlN1t5pb70gz5mcOVlb+qFQ6XCMdzw7/3lf29+1l/hgGmsuzBPjv12Sz1Nnpy6/H7Aw0IQzkB1SK3NRFpr3vLpycq7aSdzvEar5Up90Y4gO0y4CP+ceTt36ui5U8dcYLyZaC89IKPWOqTWZiKdrSHV6NWimq38j2353pMdQXY+hZI4NpxUdjA0+vRDi5j+OjyvPghCrXVIrc3Ey29fd3aWYay8lGse0yMLK0BuvMKqw8cZsL7uRHUy+JaOf5Z/SH4pr/yNwrf862Ae1FqH1BqwiXk328YDayvlF05459OmxdznqjCaVB5uisbw12zkX31Juxdg5erK7Vf5y37yL1atgfFO6a4P2+wW0sXG2nzlyg3LK2/kuM5VrcXSYJSdTPpUWdROPmXP2SG1Bmxurs1WWFxksKGVumO7/EFSnHf98ptx/uCpcGDknZtJiL+IX5s9QMDNBjam1oBttWm2ZDqXtLVcXCSOyqO3tU6ZF9SdgXYICAADU2tAN9rcmmwSQ21jDawBABSoNaBLL799PVm1okbkZpvcwBoAMGNqDehey2ZL4k2PNLAGAMSh1oAeTWt6pIE1ACAUtQb0rmWzJWMPtRlYAwBCUWvAQNpMj0zGG2ozsAYARKPWgEGlN6hd2WznTh0999CxIbPNwBoAEI1aA8bRZnpkMtQMSQNrAEBAag0YU8vpkUnP2VYYWLv1yl/08bcAAKxFrQEhtBxqS3rINgNrAEBMag0IpP1QW9JdthlYAwBiUmtARC+/ff2dT79859O9ll+/cbkZWAMAwlJrQGjtZ0im0sUkk9blZmANAAhLrQET0HLd/7J0zO3pU8fOnTpa/lMDawBAZGoNmJKNsy2VNls6+PbOb4ozLQ2sAQChqDVgqta9tq2ZgTUAIBq1BkzeWitJFrz0nZNJkjz9UPVUSQCAEak1YFbWLTezHwGAsNQaMFtpuTXPllRrAEBYag1YinSFkoOPv0yS5MXv7poACQCEpdYAAAAiunvsDQAAAKCCWgMAAIhIrQEAAESk1gAAACJSawAAABGpNQAAgIjUGgAAQERqDQAAICK1BgAAEJFaAwAAiEitAQAARKTWAAAAIlJrAAAAEak1AACAiNQaAABARGoNAAAgIrUGAAAQkVoDAACISK0BAABEpNYAAAAiUmsAAAARqTUAAICI1BoAAEBEag0AACAitQYAABCRWgMAAIhIrQEAAESk1gAAACJSawAAABGpNQAAgIjUGgAAQERqDQAAICK1BgAAEJFaAwAAiEitAQAARKTWAAAAIlJrAAAAEak1AACAiNQaAABARGoNAAAgIrUGAAAQkVoDAACISK0BAABEpNYAAAAiUmsAAAARqTUAAICI1BoAAEBEag0AACAitQYAABCRWgMAAIhIrQEAAESk1gAAACJSawAAABGpNQAAgIjUGgAAQERqDQAAICK1BgAAEJFaAwAAiEitAQAARKTWAAAAIlJrAAAAEak1AACAiNQaAABARGoNAAAgIrUGAAAQkVoDAACISK0BAABEpNYAAAAiUmsAAAARqTUAAICI1BoAAEBEag0AACAitQYAABCRWgMAAIhIrQEAAESk1gAAACJSawAAABGpNQAAgIjUGgAAQERqDQAAICK1BgAAEJFaAwAAiEitAQAARKTWAAAAIlJrAAAAEak1AACAiNQaAABARGoNAAAgIrUGAAAQkVoDAACISK0BAABEpNYAAAAiUmsAAAARqTUAAICI1BoAAEBEag0AACAitQYAABCRWgMAAIhIrQEAAESk1gAAACJSawAAABGpNQAAgIjUGgAAQERqDQAAICK1BgAAEJFaAwAAiEitAQAARKTWAAAAIlJrAAAAEak1AACAiNQaAABARGoNAAAgIrUGAAAQkVoDAACISK0BAABEpNYAAAAiUmsAAAARqTUAAICI1BoAAEBEag0AACAitQYAABCRWgMAAIhIrQEAAESk1gAAACJSawAAABGpNQAAgIjUGgAAQERqDQAAICK1BgAAEJFaAwAAiEitAQAARKTWAAAAIlJrAAAAEak1AACAiNQaAABARGoNAAAgIrUGAAAQkVoDAACISK0BAABEpNYAAAAiUmsAAAARqTUAAICI1BoAAEBEag0AACAitQYAABCRWgMAAIhIrQEAAESk1gAAACJSawAAABH9f7MGxRbz/GkNAAAAAElFTkSuQmCC;clipPath=inset(60.22% 9% 30% 12.33%);direction=north;" parent="PvffXtldvGFclzvf1Mkj-34" vertex="1">
          <mxGeometry x="279" y="360" width="5" height="51" as="geometry" />
        </mxCell>
        <mxCell id="PvffXtldvGFclzvf1Mkj-46" value="" style="shape=image;verticalLabelPosition=bottom;labelBackgroundColor=default;verticalAlign=top;imageAspect=0;image=data:image/png,iVBORw0KGgoAAAANSUhEUgAABI8AAANrCAIAAABA5S9PAAAACXBIWXMAABcSAAAXEgFnn9JSAAAAB3RJTUUH6AIcDAIakILqlAAAACR0RVh0U29mdHdhcmUATUFUTEFCLCBUaGUgTWF0aFdvcmtzLCBJbmMuPFjdGAAAACJ0RVh0Q3JlYXRpb24gVGltZQAyOC1GZWItMjAyNCAyMTowMjoyNrhQjsAAACAASURBVHic7d1NqB73fejxsTkGy+AiJdKmuGAdmQTbEtS1oI4XtlJEssumuSFa3oVf6Kb3NptSL2wvUrpxm26KX+5exqSb7HwRN44XjgtyfUGyTUIsGW7oRnZ9aMAK5IDuYnRGc+btmed55uU3M58PIRwfnXM0es7zzDPf+f/nP3fdunUrAQAAIJi7x94AAAAAKqg1AACAiNQaAABARGoNAAAgIrUGAAAQkVoDAACISK0BAABEpNYAAAAiUmsAAAARqTUAAICI1BoAAEBEag0AACAitQYAABCRWgMAAIhIrQEAAESk1gAAACJSawAAABGpNQAAgIjUGgAAQERqDQAAICK1BgAAEJFaAwAAiEitAQAARKTWAAAAIlJrAAAAEak1AACAiNQaAABARGoNAAAgIrUGAAAQkVoDAACISK0BAABEpNYAAAAiUmsAAAARqTUAAICI1BoAAEBEag0AACAitQYAABCRWgMAAIhIrQEAAESk1gAAACJSawAAABGpNQAAgIjUGgAAQERqDQAAICK1BgAAEJFaAwAAiEitAQAARKTWAAAAIlJrAAAAEak1AACAiNQaAABARGoNAAAgIrUGAAAQkVoDAACISK0BAABEpNYAAAAiUmsAAAARqTUAAICI1BoAAEBEag0AACAitQYAABCRWgMAAIhIrQEAAESk1gAAACJSawAAABGpNQAAgIjUGgAAQERqDQAAICK1BgAAEJFaAwAAiEitAQAARKTWAAAAIlJrAAAAEak1AACAiNQaAABARGoNAAAgIrUGAAAQkVoDAACISK0BAABEpNYAAAAiUmsAAAARqTUAAICI1BoAAEBEag0AACAitQYAABCRWgMAAIhoZ+wNAAjhyt7+m9dvXtnbT5LkzNGd08fuufDgvWNvFACwaHfdunVr7G0AGN8LH/4uTbW8CyePaDYGk50sGHtDAIjCTEiAWle//MPYm8CCvHn95tibAEAsTuABi1YeTwMACMJMSGDRvvfzL5u/IJ2W5jI2+nNlb//q3v7FwwNrP37sflMiAfBOACzXxc9+n//PM0d3Lpw8khwMuKVHz+nHV/b2Tx/dcfRMH1748HflT755/eaZx+4ffmMACMWRB7BchcvSTh+753Q6knZ0J0mSM0d3/i53GO3omT5crZmLe2Vv/8revhMEAAtnlRFguQoXrZ1uPDJOj5573iIWx5MKgAZqDVio8phGYRzD1EfGZYlIANQasFCFMY02YVY3aQ025i4RADRQawBJkiSnj92z8pMOrOlcw0xIkyQBUGsAtcyEBABGpNaAhdpgoMxYB91aObfWUw5g4dQasFBtFoQsf9LRMwAwGLUGAOMoL3Vj8i0AeWoNIEnqL1Fz9MyILEMKsHBqDViijQ+CHT3Tn8qFSQFYMrU2Ey98+LuxNwHmySL+DMnzDYA8tTYfTvlDexvcGhs6J8YAaKbWAAAqOA0KjM7p5Dl44cPfXdnbT67fTP/zhyePGCiArpw5unNx7G1gIU4f3bkrSTzfIkiH36/u7d9KkiQ3/F6+h4c3XKBXdjFzcPrYPVf29u+8hVy/eeax+0fdIpiY9qs7uN8aHfJ0iuniZ7+/eHACNPWzbx9LP7i6t5//ozNHd7zhAr0yE3IOLjx4b/4/D5UbUMX1QkyCnXkQfhHAWNTaTBRmYphqD105XZrm5LiNnphTF4SzOUAcam0mLpw8kv9P7zQAwTmtNgPO3QB9U2vzZDIkwBSVx3KJQFoDY1FrM3H66I4pNNBe4XSGQ2TCcupteOXHPJuxYuoKMDC1NltvHl7PCtiYUyH0wS3aAVjJe8N8XDh55MqHvxt7KwBmorBWe+JullQNu13Z2/esAPpj/zJbJs9AT646OFuMwo70h4P8pWeO7tiBA5BywDEf6aVr+fd4J/ygJa8UyiouXupzp9r+Fu1AZFf39v/u8Fyn7O7qsAHXrc2ZNaygkpcGEbRcr8LTNQKjncBY1NqsFE7NWroKANYij4FQ1NqsFKboOBcInXAehAG4jcREqTugV2ptVspv9oINYDN9Z3nd/tnZAbYkIKNxMMY21NrcWCwBVnKfKwLyPAzOATcwCu8NM2epcdjemaM7F8feBobX69G50Y8pqvytXf3yD8mD9w6/MZWu7O1f3du/+uUfshHaC2G2DdiM4/i5OX3snvwRRqh3EYhp3ZXTnWJnew3PImcHxjXpF/gLBwvHZ/8KtQZTZybk3FhoBFZa90Igyz+Q6u8SsoZJEHbjtHTxs9+XP+n5E4GxdLah1ubGQiMwAC+r2Rv46Mqtsacr+N5AJ8DUOWE8Q2eO7gR/85i9wuN/tTA3NUl+ePKI6wlHVPgFtRk6K7ysXBHKli5ev1n3R5Un3TzfIgvyC6oc+3VBBEzd+DsX+vbm9ZtnHrt/7K2Yg+xgPauv/FvjWoX8ww43izWVzzS3Ocy6cPLIlYMLQpKDQ20XhNAVz6U46ua7TnSQ6sre/sXPfu8JNiRnzOmWWpuhwmElbRRKbOMMayl71087oe6vaDg4GOYWTG1mZzUMTEU42ZyXPs5vHh7TuHDySJvvPX1058LJI/nxkIvXb168fvPM0Z3Tx+45fXQn2j+WLfV6vFW4vqj85DFFYmD5R3uDRz7IYHvtW4nhNZiy8XcudO50aaGRIJM0xlKYwJbkUmes46GGSVChDPD4DPDMbP5XtN+ACw/em37x3+XOhqSvr+xHpX0r3ljLytMipkise0qr4XxWLyfgAuTQRIf+FqLwDKk8KuvjUK38Mzf+WxZ+JDkuj/s8Fc7LzvudPmCM0d5Yv6MfP3b/Bm88zVe45cstEW/UuPjZ7wvna8qz1GYwRaLypV0oisqmCrLf/vvH7r94/Wbhjjh1XZ2+9q/u7Zdf7Nnn0/9PejtF1fC4ZbsmO6JoGhIoe8I0fKYTlT9Wm4XiNzFPhXf6IG9+m2m4Wiz+v6uwszt97J504+NvOQ1azlIrxFui3yalp8nGFalWNRe3PEVimEuPViZW5L7qVjr5+UrNQHrZm9dvpge4L+ztZ7Omsw/SnUb6qn/hcDhl7ws/PHmkULNp4+U/zv9/9vk3r9/Mfkgm+/np33v7a3InNLN9UeHr6cMsXyMMxotzntJjwcJE/FD74spVE/u+WqwT+YcxO8966JPNj/OD9yZVR2xMyI8fuz+97mjdX6LBt6nbeL90ZW8/vWAyP8Rx+tg9DQFWeZ1kcvgof+XfO/CEwJlJg61wii3fXWkjNTySzecWs0/e/uBgKC97+84/B/Lhl/9L0y8u/PwLJ49cePDe7I0m/dMre/vpP6cwYFjYKaX/usIxQ6EG0+feyjOnQXZrQZ7qFz/7ff4xfLP0QeHjss0O5Mo/s/lv2f4b86yA3Ym7bt26NfY20Iure/vZbjrd86a7721+ZvMurzxpvnCgEGSP2aBwGLRGg61pZa017N3Gui/TPA770gf2wskjXf1CN8u2Ovotju/9/MvKz//s28fafHt+SZvCgXX6QZuDmKsHB9lO7gwj+42UdxHZ8yF9kZ45upN9QfpH+TOk5dzK/+pX7jArvzj/o5LSXrfQkPn3+u/9/Mu6b0k/KNdawybBWrY/8iQxtjZjp4/upCfDsp14emp241fO1b39F6Z8HUV5TOxOmw1+WJytVzHK376hLXa4bS5/7+NQoDgTtYeHOn01XTgYMk1K56rX0jB5MpFwMbzw4e9+eDB3sXAQfHVvv3mq87pPjOwZe3GzbZ21utdC3fms2q9f/zXV8B6avuGePnZPXfMUvrLyg+x78z+n7nxZ/tsLGZn6+8fuT78ge2Qa4r+rp25Mlc+B/FjiysGr8hc3/H9v/w4Wxxv/nF148N6rpV1GNp0mvVhiTsd/dSNjMXMo5lb1pM0/dgYPyO1juAfvTZLk6kF3bRNvSc2lMobg+lY+v5BNIbuyt58cntPY/vebffECZweV/73lrKp8TILsGQoTUwt/lE47rPzT7NW6wfMkr64Ai39X+XE+upNd59Z+WK/l5yfkzNGdbMg0fwVgXa1la280f3Hz/6c/qjxQ//cHC78FeXoTnGfJzKW76ReqzsmV33jqLocY5tZezUKNjMFKp7PDpoPT8F31W1IzBJccXjZgaTHQlfwMxkx5ItnGv8H8IWNL2dVTwx8uNydWh6NV8V148N66IbU7A+wHZ2qSJEnXYT59dCfbA1zI7Qpuf+bgiXRn/PzYPYWVJ7MH+czRnau5l3nm9LF70iG1pPGRP33wBVf39pPDC9tMPcOmaJavEfrjurVFSK9tjblHbl60wx6Nueow3hqYSFmWn7iYtFtjNh08uXIwG7zyCqVmG0RapaulUK88m9Z8deuiKov2ykPKzc/t9vuTCIcf+aAt3FOhUuXY2mZ/dfkqkh/P96ZK9EGtLUV/ixC2vHigvxU7YB6G6bdUvuKS6QzHrXxYGm7ntcFDmp9ukA6MZAs2JC1mQna+pA0AC6TWlmWbQbb03HCitWAo+X5Lxjg/febwzKvRb81Ut05jTyrXZEp/KdmONL/GQ5IkbeakAUB7am2hNli87szRHWP3MK78UgERpjdXXuyaD5Vuuy5CrQHAkNQaSXL4EPDOJw9fDtF8I1dgLPlrmSIkXIM2CwM2GOa2Yw033QKAgak1gBkqjMIlMS70j2NaN/wAYLHUGsCCFAbSZxNy7dea12MATIhaA+CQbGXFaFHnlrIALI1aA2Bt5Ytdt1wuv42ffftYHz8WAMJyehKAtZ0ur1NfswpR4R5odSFXeZdnAFg4Y2sAAAAR3T32BgAAAFBBrQEAAESk1gAAACJSawAAABGpNQAAgIjUGgAAQERqDQAAICK1BgAAEJFaAwAAiEitAQAARKTWAAAAIlJrAAAAEak1AACAiNQaAABARGoNAAAgIrUGAAAQkVoDAACISK0BAABEpNYAAAAiUmsAAAARqTUAAICI1BoAAEBEag0AACAitQYAABCRWgMAAIhIrQEAAESk1gAAACJSawAAABGpNQAAgIjUGgAAQERqDQAAICK1BgAAEJFaAwAAiEitAQAARKTWAAAAIlJrAAAAEak1AACAiNQaAABARGoNAAAgIrUGAAAQkVoDAACISK0BAABEpNYAAAAiUmsAAAARqTUAAICI1BoAAEBEag0AACAitQYAABCRWgMAAIhIrQEAAES0M/YGAARy7cblazcupx+ff+T5cTcGAFi4u27dujX2NgCM79qNy6+/+0zhk+cffk6zAQBjMRMSIEmSJBtSO/TJzz8YfksAAFJqDQAAICIzIYFFu3bj8qVPXss+Ln/B7omzSZLsHn/clEgAYGBqDVi0v/3Xx/L/mbXZtc8/KMTbs0+9kf4pAMAwrAkJLNelj18tfObZp97IPn793WfywXbtxmW1BgAMyXVrALedf/i5sTcBAOAOtQYslyUfAYDI1BqwXIUr0woTHQtDbdIOABiYWgMWqrwCZPNlaZUrRgIA9EetAQvVPLBW+RnBBgAMSa0B1CoEm1oDAIak1gCSJEl2jz++8mtcukavnA4AoECtAQvVJr3aJBx05fV3nynfAxCAJVNrALXcDhsAGNHO2BsAMI6Vq4ys/BboxLUbl7On1rXPP7j08au7J846UwBAotYAGjhiZgCvv/tM9vHtcvvktd0TZ5996o0RtwqACMyEBEiS1mFmeI1u1V2olh9wA2Cx1BqwRI6Die/SJ6+NvQkAjEytATQxGZJeuS0EAA3UGsAaDMrRrYZnlCcbAGoNWKINFoSE4Qk2gIWzJuS0OeKEvu0efzz/QjNvjQ6JMQCaqbVpu3bjcv4ydCs+A0xI5Rk3CQdAxkzIWfEeD5vZPf742JsAFezVx+XxB0ZnbG3adk+cPZ8kSZJc+/wDbyrQh90TZxMLqTOI3eOPF6bamnkLsHBqbdp2T5xNZ868/u4zY28LTMnGB8FOi9Ch8vOwcJ0kY0nvWn7t8w92b1xOkuT8I89nn8//1naPP579EUAf1NrcZNl2/uHnLDoCAOu69PGr2TXh1w7XWuKUDTAs163NxLNPvXH+4eeSJLl243L6P6NtAMGVVxlxli0mhQaMRa3Nx/lHnk+DLSPYYHvlo2fHbQzGk20U7WdK+wUBfVNrs3L+kefzR5bpINuI2wNTYUCDCDwPAShQa3NTHl5LL5UG8pzIYHSVT0LBFpM9BjAWq4zMze6Js+cffi6dxZG+u1z65LVLn7yWVpyLIgCm5dqNy/bbAyu3WTY30j0VgIGptRlKl666duNy8vBz2aVrt5e3+uS15ODcbXo74NsfOxQAOKy8XNOzT73R4d6yvMRIVz+ZIclpoFdqbYnSQ4TbBwq52/7mKy4xEAcHdk+cNQ9qgfzSKfOsAAam1mZrg9A6VHHJnZAzFsfseUrTRq+jKPkzZZIApqs8LP8Pf/nhWBvDDKi1mTv/8HOXcqNnm2kYi8sSzsEuE7LlobCJT3Si5RVQnm8R6GdgLGpt5s4/8vz5R55Pl4W89vkH3b7f3LlDQG4UzkRKYB6sJ8FEKXyYE7W2COm6I6n8Tdh67Lfkzoomxt8AyupWGdk9/nj+j0TjwAyjAaGotcWpq6ZCxSUdvWM1jL/pNyCygY/a7Q8nKtRA1qWPX72d9+kJ0+OP50/XMpZQTxImR61xW8uK2/7wpdBv4o3ReeLRUofDXA370t0TZ5OtrzdmmQpXql+7cVmtwdSpNVaojKj8uiNbJpx4Y3jrPmPNTFugvgfW2t9szcS8IOIPj6TXqBfE32ygmVpjE5Xr+GfdtU2/iTdggbL1mYis8q3N6RugV2qNzpSDavt+E28MwIEyZX2PaBVmrOV3aJXTGezxBjPdwUzdGJaXMNtQa/So836rizfz8oEJKc9YK+wq3SCbrugEmDq1xqAK/dZVvF3KxZthN1Za9wy0VR86V/l6D/XKrXySdLZS7uEffv7h55q/5dInrz0b6cEhL05Xm6gZRJynBPOg1hhTuay2uZH37Xg7OKpOD4DEG2XtF3ho8+0zc2g9lTUP/rZ5ZHZPnA0VJHX/lksfv7rWYP6dNXVvXC7s2W5fAFy1xvr5h597/fAvYt2/l6VpePUZXoNJU2vEUjgc2Sbebl8W4oI3VpnxU6Lwwin+Z6675p2gK7X/51/7/IO//dfH8neyzj7f/mem3/7sU280fMH5h5/Lfua1G5cvffLapU9ey+/Kklk/dQNqaJ4IOVT3fLt24/K144+Pvnmd23iXVbfM9WY/qvCrX/iOlJ6oNULLx9s20yZd8EZmg3fT0Vd9aIiuQiRM+lihcv3xOpvN79r48Xn2qTcuffJaeeCxvwf8/CPPZ3/FoQG63K4slY3RFT8zuwP0YXQ7enztxuXX330m+x1lVySWD/TLmi9fzH7OpU9e2z3+eNNm57I/Lf/s56ffmP3/WlsyxdM9uyfO7h5MRc7/22//6cHH6UORf2QKj9Lt/7xx+drnHxR+YJJUrFyVfv71d5/ZPf54etolKb2PXLtxOZsUXfnbzP/8ul93+R9V+UeFf3X2lxb+ivw/pPCnhe0sfOX5h5+z/+mQWmMyOrzmrfKCt0S8LUPh2bLykqE+NqBhjCv7mgG3KITywxLH7SOPT15LuvvVtFmJNDuka/6yim4sXWZZHgw89MnFHFc1T/RNX4mbTeVYOY+38Ia1m37wyWuFfst/cP7h5y7l5vZnb1j5jUx/Tnl2d+Ez2amQ4vmd3Len8VB9Tel2N1YFtqHWmKq6eLu0/moQhe91wduM5c8rr6XDNfpef/eZTn4O28j/Qgsfpx+kR67Z3iA5uEn69s+E3RNnG+ZA9iQ/Onfns1WvhUP3EjiclOWFKzvcwmFsvAdIDsYWGn5y5RrIlw5HfufNU/6Bzz71xu6Js6+/+0zFkOyq712CLJjLpznKv6byV9Z9TV75OZZeelr3W7iz28mNguaz/PbHVc1c/TMrF0lKT0Yc/H/dN9bN3aj8/J3zC6VZHtkfTXFHEc1dt27dGnsboHvbXPBWIN5moHzMlDr/8HMtB1QvffzqpcNzzzY+4P7bf31ss28cUuWzve5QteVLY+WX5Vto98TZSx+/mr7uyq/i/J+mH6Tfnp89mH5c6Kvzjzyf7RzyM4LOP/zc7UlNhycLVV5Jeyk3HtJSuoX59ltL4ekXUDHkSk+V6mfU4DvVlo/k7esG10m79CmR/Yorv7dw/F33QeFntvk4P9Mye1Qvffxq82hhefC2dmzNLSXYSPs3WRoYW2OeurrgLTm8Wkli2uR0pL/3yl/6Bq1VWMT/2o3LaXRlz4fV2zP2OtoNx9OHhlOclThQfijSV/3tDmy8yKfhh2zg/CPPZ/GZdHQeqlvFyb3lzVunNts/aO1vbb/JfTuSNTY7/6s5v9Esj/xffbvfjj9+p8oOPm54cApnFdNzE8E7H1hJrTF/Hc6ZLH+71SbjyP9eOj+Wza/RV5g5M+Rxc/MIxgwmqiVVm103vFb3D6z8+vzplfQodvfE2TSBsh91ewSsxYmYUV7v5b+0YirXpldehdJ++3v9l+ZP62QTmLNRrOSg27NFRPI5XfhR+TG32z8nXaxi64UNd48/vnuw5GPd+YXyd2Wu3bjc6hLKunH13AqlvZri3iz75WZPHmtvsBkzIVm6LeOtLFu1Qr/1KjtO3eDwdMu5GZ1MZaxc9SGpaZXt/zqWqfLSmsI1J8tU8UJrvDVC9qpPT9zkvyC7o0M27TZbESR9Oxh9IkY2JdjOZBTZkye9pHDcjWGKjK2xdNkbWPqGun283fnGw4NviX7bwjZtllc+0hrYKCtMsFh3Tgq0W7Gw/HEyrzVLOzlcLvyENMlGn+rcwFvPuFz1x5aMrUGTzkfeksMTabyJFhxaxKzTOV0ddlo692njzVBrzEZD4yXlxeIDHLBuXGvZ8FRSn775dfDStwwvdmB7ag3W0Ee8pZYzBFe86KvPSVm7h1dg71bhirU2Z9YLK7YBSf1rv499wuiTEgHWpdZgcwMs0Ra24qpv1VI/gWqY0+pbrpMOABCKWoMupbdjSvpfYjs/nTKpvzK+P/lbr44lf4uhRJ4BALOj1qBHhQWdB8ubyvUGu70H1PC1ps0AgKVRazCo/MVOcW5xW1k+lTfYGWbt70KYJdoMAFgktQbji5lwvTo00KfKAACqqDUIqpBwSYz1ryutHJrrdhImAMBCqDWYmOw+0bf/c6SQ+4e//HDgvxEAYGl2xt4AYD0rb89a+CAZ6mIzAAC6pdZgVtpfAFa8N1pjyLW59TMAAN0yExIAACCiu8feAAAAACqoNQAAgIjUGgAAQERqDQAAICK1BgAAEJFaAwAAiEitAQAARKTWAAAAIlJrAAAAEak1AACAiNQaAABARGoNAAAgIrUGAAAQkVoDAACISK0BAABEpNYAAAAiUmsAAAARqTUAAICI1BoAAEBEag0AACAitQYAABCRWgMAAIhIrQEAAESk1gAAACJSawAAABGpNQAAgIjUGgAAQERqDQAAICK1BgAAEJFaAwAAiEitAQAARKTWAAAAIlJrAAAAEe2MvQEA0/DZ5d9+dvm31y//v4YvaPNzHjz7QN0fnTz7Jyu/vuHbAYCZuevWrVtjbwNAXJ9d/u3PX/1lyxIbWFZuhcxLP6/rAGDq1BpAtcidtq603LKoy0JO0QFAZGoNoGhOndZGoeXSzwg5ABidWgO4Y2md1kbluJyWA4ABqDWAJGnRaQeVcugKsZNbRMv1+r/rs8NrmYStx3LIqTgA6JBaA5auTad9+/lvxemQ/Kbmky9rvNHrTsUBQCfUGrAIdQHT3Gnnnv/Wt59/oreN6l32T8uibtyiU3EAsBa1NkPpQdjKCV3lj5m9lQfoK7+g4W5jW/7kaKbeaS2lv5fyAN3Av698xbkuDgAyam0m0kOrLVdHqLx3k5W+u9X8C9o+liYXRQE9ePaB//6//tvYWxFCoeWGD7kHzz5gII6YVp4Y3UC3z/Dtt63N9nhVQt/U2ky8+Kf/NPDfWN5BF+7PW/dldZ8MrvJtr/zJck3JpwmJdn1aZOOG3OyXqdysBFY+AnN6iDrU8DhbIbZbbZ6BlccSm/0oT3jmQa3NxPC11p+xdq/ekpdMp3Xos8u/HXE4Lpl4y8W5h8RUHrGyCI8eS1P5eik8FQd7TbUs3l6dW8ClBINRazMxp1qDwTx49oEHz/7JSVPsBjF6xaXKU76DzPeO02kAW3r5//7PsTdhPnbG3gB6Ub4x1FRu38Qo2k0pWeNc3TZ3IVuLypqQwxee3TntWqi4vvdOn935u1otxVT44vwflU9gF76x5fNTpwFQx9jaTLz4p/+UTuVK1j9+La/xnYy9zPeitPx9NcdScx1JGiYnf13ciANx0GCAXevGT/vSiYPas7e9bgaLZWytQ2qNNRT219erdt/lt4FZ7uVrVk85FFTlglJNsKXRl6kcTHmKRGrlofYsH41RZDOl6/504O2Jr/1zr/L4oeoHerZPlVrrkFpjTM372ZZ78y2tnLPnLRmmYh4tN8yaN+s+LMPskNe1zaRr+/blCLUTCPJS2mCIdS1uhNMhtQbAIpRnfUeb8r2Qe7ID0J5aA4DbKq/jLQzgFE6Nb7+GUzrjTqcBUKbWAKBHzf1mPh4ADdQaAABARHePvQEAAABUUGsAAAARqTUAAICI1BoAAEBEag0AACAitQYAABCRWgMAAIhIrQEAAESk1gAAACJSawAAABGpNQAAgIjUGgAAQERqDQAAICK1BgAAEJFaAwAAiEitAQAARKTWAAAAIlJrAAAAEak1AACAiNQaAABARGoNAAAgIrUGAAAQkVoDAACISK0BAABEpNYAAAAiUmsAAAARqTUAAICI1BoAAEBEag0AACAitQYAABCRWgMAAIhIrQEAAESk1gAAACJSawAAABGpNQAAgIjUGgAAQERqDQAAICK1BgAAEJFaAwAAiEitAQAARKTWAAAAIlJrAAAAEak1AACAiNQaAABARGoNebYZrQAAHRJJREFUAAAgIrUGAAAQkVoDAACISK0BAABEpNYAAAAiUmsAAAARqTUAAICI1BoAAEBEag0AACAitQYAABCRWgMAAIhIrQEAAESk1gAAACJSawAAABGpNQAAgIjUGgAAQERqDQAAICK1BgAAEJFaAwAAiEitAQAARKTWAAAAIlJrAAAAEak1AACAiNQaAABARGoNAAAgIrUGAAAQkVoDAACISK0BAABEpNYAAAAiUmsAAAARqTUAAICI1BoAAEBEag0AACAitQYAABCRWgMAAIhIrQEAAESk1gAAACJSawAAABGpNQAAgIjUGgAAQERqDQAAICK1BgAAEJFaAwAAiEitAQAARKTWAAAAIlJrAAAAEak1AACAiNQaAABARGoNAAAgIrUGAAAQkVoDAACISK0BAABEpNYAAAAiUmsAAAAR7Yy9AQAAQDj7n7+f/88/fPF+7uN/a/jir33veq8btihqDQAA5qlQXEljdJW/mNGpNQAACK0hupqHuZg6tQYAAANpP71QdJGoNQAAWFeb6JJbbE+tAQCwXAa7Vto5/kThM/d8/c9zHz/R/MVsQ60BADATdemlu5JSRzUUV/mLGYtaAwAgrnxZ1Q18Laq+2keX4poBtQYAwECMfWVEF22oNQAANiG9UpXdVZ5bWP5KWEmtAQAsUfN9k5Pl3cjLYBcBqTUAgFnZ//z9P3zxfrm1krnnVl5deukupkWtAQBMRsOAWJpnM+6xfFmpLxZCrQHAom18cO+wuPDQNTwgG8w5rPvG2TD2BW2oNQCYmLoFzZN4FxpVHmrnLwfKfTLiMXrdo/fVr/95xh21AekFPbnr1q1bY28DAFCUxkD+6qMl50HD8g/J4SToqgf2P39/UUlWftwaHuS6bwE6p9YAIJaldUKvNiiKGTzy6b+6PIZppAsmR60BQCA3f/WTm7/657G3gmkoDzmmPSbDYDZctwYAUUi1JWhzLZ8bKwMptQYAIWyQau2v5mr+xu01zB4srIOS+3ysBVHa2zn+xH3f+Ov2K0CqLGBjZkICwPgqUy1/9VGWXss59C80T7n68r3XR+kd+eZfH/nm/+j8xwK0p9YAYEzlNUVWDt2wUsNNDupYgQMISK0BwAjSnCiv/bhz/Ik/evLiSBsFQCyuWwOAXpSHd9KZew1z9ky9AyBPrQHAGiqn2HVyAZVUA6BArbEUddcwlBcla9Bwp1FXOMBc3fzVT/7wxb/1vVyhVAOgzHVrzEp6OPWHL97PGmz49aDza7glBzmn5SCm/gbK1iLVAKik1piqQphN4i49hcW4JRx0rm7N9+EDrI10J2D5RwDqqDWmYYpt1tLO8SeygTgn16Fs5fBXEnufkC+xe77+56ZPA9CeWiOobG3rJPZxWB+yfjP+xrxlL+38eonlP42p0GAHHzxR+QUAsBm1RiB1dx/qUOH4qbxqSBsDT6kSb0xaPslGvKB0G+m9qrOPx90YABZFrTGy/c/fT4/hujp6y46lhp9xlE3XzD7Txzpy4o1o6obIJpdk2cdWCQIgCLXGCLoaQ8sW7ZjEEVXapenH3dZp+ggE/+czXRONscr6SkxWBGBS1BrD2f/8/W2uQ5tWm7WUJVwn/ZYNu1mthDaaV+8IGGMrLxVL5rJnAICUWqNf2wyjZWtbJ0s6Auuq35Rb5/Kjo6k4ozTlp0rdLeAjN5i1OgCgQK3Ri42H0czrK7v5q58k28WbctvezV/95Oav/rn919dNw0tyKVJov7LCGol5AaOrWeFmg/lPAgB11Bpd2izSsvXWHLqttP3Imx7ezH/+7OTYmxDdiAv8AMBcqTU6sEGkaYZOZPG21rBP5sg3/zqxtmQ7aq0wX1GPAcAA1BqbWzfSsuvQHN71oZNyM1WyIHtu/9d7F8bdkl6V522KMQCIQK2xtnXvkGai4yjSq902KDfDnpnytWrlxyTg9WMNt4C3egcATItaYw3pYNpakeaIMIKNy23JA26FVNs5/sQfPXlx5XcVbk2WaVgvpE5hbZKDT1a8oLzKAGCu1BqribQ5UW5t7H/+fmHq49e+d32sjQEAFkutUWuty9JE2uSsO6M1s4SpkoU1RY58868XkqkAQChqjQrtB9NE2jxsfEu3Wd7JrTAHUqoBAGNRa9wh0ki2mCqZzGLYTaoBAHGoNZKkdaeJtEXZeKpkZnL3c9tsZREAgJ6otUVrH2mJ+6Qt2zYDbpng8WZlEQAgGrW2UAbT2MyW9+DOS+MtCXPNm5VFAIBo1NritOk0kUYbWbltM1syky1YMsrgm8vVAICA1NpSGEyjbx0Ou6Wyfkt6TjipBgDEpNbmz2Aao9j4rgDNCgmXHFxXuTEriwAAYam1OdNpxNFTvGXS53AWcslBy+X/tMzKIgBAZGptnlZ2WjpAYboXY0njLelu2mQn/ujJi85cAABxqLUZ+q/3LjR3msE0oul2wZJ1GU8DAGJSa7NSuAKnQKcxIUP2m1oDAGJSazPRPPXRGnfMQPr0zhIu+8z21BoAEJNam4nCjX1TBtNYgnzFpdKWS1rknNcIABCZWpuJcq1ZLwHyyuXmBQIABLcz9gbQPfMeoUybAQCTo9ZmxbQuAACYDbU2H4bUAABgTly3NhP7n79vSA0AAOZErQEAAER099gbAAAAQAW1BgAAEJFaAwAAiEitAQAARKTWAAAAIlJrAAAAEak1AACAiNQaAABARGoNAAAgIrUGAAAQkVoDAACISK0BAABEpNYAAAAiUmsAAAARqTUAAICI1BoAAEBEag0AACAitQYAABCRWgMAAIhIrQEAAESk1gAAACJSawAAABGpNQAAgIjUGgAAQERqDQAAICK1BgAAEJFaAwAAiEitAQAARKTWAAAAIlJrAAAAEak1AACAiNQaAABARGoNAAAgIrUGAAAQkVoDAACISK0BAABEpNYAAAAiUmsAAAARqTUAAICI1BoAAEBEag0AACAitQYAABCRWgMAAIhIrQEAAESk1gAAACJSawAAABGpNQAAgIjUGgAAQERqDQAAICK1BgAAEJFaAwAAiEitAQAARKTWAAAAIlJrAAAAEak1AACAiHbG3gCA+fjqo/eav+C+R58cZksAgBlQawDrSZPs5ke/vPnRL/OfWVdabkce/Vb6n0ce/ZaWAwDy7rp169bY2wAwAV999N5/vvWPm4XZWu579Mks4b7+gx/1/dcBAGGpNYBWvnjrlS/eemWUvzrrN/EGAItiJiRAdF999F46ppfmYtpsyg0AZs/YGkCTrz56L70+7eZHvxxgGuS6lBsAzJhaA2jy2xe/X460/AIh2TVmLdcIyX5atkhJ+sGWKZjOlrRUCQDMiVoDqFW4Vu3rP/hR3znUyVCeATcAmAe1BlDr19//4/x/PvDyT4cfucr6bYM1TmQbAEyaWgOoVh5Yi5A96SatO/I2wKggANA5tQZQrTCw9o2f/sdYW1Jng3IL0pwAQBtqDaBCzIG1BunWtpwtaYYkAEyCWgOoEH9grc662WaGJACEpdYAiiY3sFYpXZ6kTbalq/9P8d8IAPOm1gCKCgNrE621TPvRtqn/SwFgZtQawCHzGFir1DLbXNUGAEGoNYBDZjawVumLt15ps5LkLP/tADAhag3gjhkPrJW1vLBt3g8CAESm1gDuWMLAWlmboTbTIwFgeGoN4LbCwFoyqYX7t2eoDQCiUWsAty1zYK2sXK1li31wAGBIag0gSRY/sFbWZgFJzQYAvbp77A0AiEiEpCX2jZ/+R8ND8cVbr/z6+3/c5k5uAMAGjK0BGFhbbeX0SONsANA5Y2sARaqjLBtnu+/RJyu/wDgbAHTO2BpAcX0RA2vNVl7SZpwNADqxM/YGAIysUB0yY6X8Q1TZbOm0Sc0GAFsytgYsnYG1LTVf0qbZAGBjrlsDFs3A2vaal450PRsAbMzYGrBoBta6ZZwNADpkbA1YLgNrnTPOBgAdMrYGLJeBtV4ZZwOALak1YM6++ui98idvfvTL9P/zfyoeeqLZAGBjam3OsiPRurvZwgAaeqnNJ1v+wC3d9+iTD7z8085/LBnNBgAbUGvzVHlgdN+jTx559FuJi3PYQr6UsrgqVFYfNdWT+x598ms/+Jvs43E3Zgkami3dL9k7AUCeWpuh3774/ZWHy8qNgnKG5RtsQgG2FkNqo2hutiOPfks5QyeyXXfdzIX0SCDPqw+iUWtz0zzdqJJT2gtReNvO3rznWmJtqLWxpLuphmazR2JCutqLdlVKX3303n++9Y+dbFW2SYWuy/5T3UHf1NrcbFBrmXTAzYnt6cr3mBirkz29v/aDv/FUH5dmY7o6LKI2KndW5ZGxdM8/4m6/sJ0aD7an1uYj3Tvf/OiXndzLyIBbQPMYHKt7ky4fdrT/0/Z/CwFZgIQpanPRAW3kd9f5XX3+Y7t0lkytzUThbSNdOyG/d/vqo/fSg3vzJGOa1mVjdWdPXQLBxjQbMVVWWbpni7ZnXgiTM1katTYHhaOcNoc1zROQKqU/0zzJbWTjn5GHxQpvhM5uMiTNRjS//v4fj70JW1m53w74NtSh0d+2CmfSR9ySgbkmvENqbfI2SLW8dMytcJvgNrJVJfVbg3yeBXlHrIsxv0Ti0GyM7quP3kv3ipW1Fn9srTzFpr3KO7UU/jPyv50IvvHT/xh7E+ZDrU1bepVz/jPbnMzYYMAtT78Vhs7GejPL95gYY7pWNlsy60nadYtYVE4DSz/2Ml9Lw/zz7I/ue/TJyj15tihX0s/DXvf2UbcQf/ZHYy0V1ibwEo23JGqtQ2qNCltmWybfb8nsjiTGajODYyxHOvjfvC+a61Dblgv8ph9Urtkw731FYVecpUK3g0Ju/rE9I3jzptY6pNZo0uZQaV1ZwiXTGYUb8nozl41BQZvzR/Mbatum1tqrW46v7jMD7IXaDCuVh5j62CenJwK+eOsV6ydFUHenb2kXk1rrkFqjlY0vb2svffMrry448MFB34vj5/+ZSgza++KtV9rsgqY+1Jat3xvnYtfFmvpzackaBu6GlJ6SruvMefPa6ZBaYxNjHU80nwZuNsy52LIsz6YykAiRtRzwn+5Q29RXIJwTtQZEoNbohvPBmTTJvvaDv0mMmEFvWk4U/PoPfjShEyXlNX7Lp6UqJwQufK+7jcJJwIVc3QdMiFqjL0vot/y4WeLdHQbXckmk9HLZ+OMkhYG1DS78qJxztcyoq5yLYf45MDlqjeFka3Vk/z+hQ4fysvje6SGO9kNtSdQZklvePHMtLddbT2Lspcs728q1Luu+GGDS1Brjy1dcMmrIVa7H6L0fpqL93UcCZtv2A2tD6mMXbWcLUKbWmIDm9ZTaLLJUOPnqXCzMW/vl74Nc2DbkwBoAE6LWAJinte4YOW62FQbW1BoAKbUGwMy1nyGZVE2STG/1luTmSHcbdQbWAKij1gBYivYzJJODlSTrVrVN/zTp4uI3A2sA1FFrACzLWjMkW0r7aoNhNwNrADRQawAs1FozJNeSjbw1Ly371Ufv/fbF7+c/o9YAyFNrACxdf9lWkM+28gRLqQZAgVoDgNsqJ0lmA2VJktRdxraNDi+BA2Bm1BoAVEibrfJStDTqko6G4x54+aej3/ANgJjUGgBsZct4U2sA1FFrANClLN7aTJu879EnH3j5p4NsFwDTo9YAoHdptqUVl6xaKxIAUmoNAAAgorvH3gAAAAAqqDUAAICI1BoAAEBEag0AACAitQYAABCRWgMAAIhIrQEAAESk1gAAACJSawAAABGpNQAAgIjUGgAAQERqDQAAICK1BgAAEJFaAwAAiEitAQAARKTWAAAAIlJrAAAAEak1AACAiNQaAABARGoNAAAgIrUGAAAQkVoDAACISK0BAABEpNYAAAAiUmsAAAARqTUAAICI1BoAAEBEag0AACAitQYAABCRWgMAAIhIrQEAAESk1gAAACJSawAAABGpNQAAgIjUGgAAQERqDQAAICK1BgAAEJFaAwAAiEitAQAARKTWAAAAIlJrAAAAEak1AACAiNQaAABARGoNAAAgIrUGAAAQkVoDAACISK0BAABEpNYAAAAiUmsAAAARqTUAAICI1BoAAEBEag0AACAitQYAABCRWgMAAIhIrQEAAES0M/YGQF/e+XQv/5+/+PTL8tc8fepY9vG5U0d73yYAAGjtrlu3bo29DbC5NMl+8emX7/zmy/xntpSW27mHjiUHRaflAAAYmFpjStISe/nta0lHVbaWQsLpNwAAeqXWCG3cPFvp3Kmjaby9+J2TY28LAABzo9YIJyu0gHnW7KXvnkyUGwAAHVFrRPHOp3s9jaE1T1nsqQmVGwAAW1JrjKmTYbTbl5OdOpYkydMPHct/cuNN+sWdNUu+3DLnZBsAAJtRa4xgm0hLM+zF7+4mw67T+M6ne1smXHqRm2wDAKAltcag0umOa6XOWHm2UtZvL/3v62t9o2wDAKANtcYQ1o20c6eOnjt17OmHprRK/stvX0/WHHaTbQAANFBr9GitSMvG0CZUaHXScms/5ubaNgAAytQavWjfaedOHQ04y7Er6WzJ9gNuL333pGYDACCl1uhSGidtxpTSSJtlodVpP+BmqA0AgESt0ZWWg2kLjLSytbJNswEALJZaY1ttOm3e0x039vLb19tMknzpuyefPjWlBVcAAOiEWmNz7TtNaTR7+e3rK4faTI8EAFgatcYmVnaaSNtAyxmSpkcCACyEWmM9K0eBdNr2Wg61aTYAgHlTa7S1MiFe+s7Jad3POrg2Q22aDQBgxtQaqzV3msG0vq3uZM0GADBHao0mOi0OzQYAsDRqjWrN64jotLGsnB6p2QAAZkOtUaTT4tNsAABLoNa4Q6dNTvP0SM0GADBpao0k0WkTp9kAAGZJrdF0rK/TJkSzAQDMjFpbtHc+3fv2v/x75R/ptInSbAAAs6HWFqph6qNOmwHNBjOQ7qjz/9nmu8p773MPHcv/59OnjtV9JQDRqLXFab5E7aXvnHzxu47jZ6J5juu5h45pNgjrrh/9nyH/urTcsq5Li07OAYxOrS1Lw+G7Tpurpl/6d08+feqYAzIIaOBaa1ZuOfsNgGGotaUw9XHhmpvNIBtEE6rWGqQD9enHKg6gc2ptEeqO1HXaojTfU1uzQQRTibRmEg6gK2pt5upWfdRpi2UBEgjr2//y7/kZEOdOHT136liSJE8fXiZkpV/85svyJ9/59MuDD1qtVtK5LOH0G0B7am3O6o7LXaKGZoNoCq/KYXbUWbllgTdk1Ok3gJXU2jzVXaVmSI08F7NBEIUX47lTR3/+V3824vZk0veRQsv1F3L6DaBArc1Q3ezHn//Vn3nzo0yzwegKl6tNYnedD7n+Ku6lgwFG+yJgmdTa3FQeeZv6yEqabaX8Q2QEgA6NMgeyP+98utdfwnnpAUuj1malfMBt6iPtWTSyWWEFiLzsCHLhDxHrKs9an3qq1cknXIf9Jt6A2VNr81FOtbm+69Mrd9Ou01BrBeJtlto3xi8+rViS8fYP+U3TGh5xLlcbQE/9NuTMyXSzF7tLBIah1maifK3aJC57ICwTIzMvv319ywldabwtOXQnrW7Rpm7deuUvev35k9BHv20/+Ja+t2Y/JP2Zlc8Kd5mj7J1P9zwT2JJam4n8WX+zH+mKZmu+1cFm0tdm/qgu//m5KhzXZqNP71TdGSyUYe5OptbKsnhL6mdor6vw6ksaX4B1S3Zt8DfW/mnNnfSyrWr/o/LqYrLltx/6rjXv9TeWmHuSTn4FE7WcaQIDUGszkdXaoibSMIwlN1t5pb70gz5mcOVlb+qFQ6XCMdzw7/3lf29+1l/hgGmsuzBPjv12Sz1Nnpy6/H7Aw0IQzkB1SK3NRFpr3vLpycq7aSdzvEar5Up90Y4gO0y4CP+ceTt36ui5U8dcYLyZaC89IKPWOqTWZiKdrSHV6NWimq38j2353pMdQXY+hZI4NpxUdjA0+vRDi5j+OjyvPghCrXVIrc3Ey29fd3aWYay8lGse0yMLK0BuvMKqw8cZsL7uRHUy+JaOf5Z/SH4pr/yNwrf862Ae1FqH1BqwiXk328YDayvlF05459OmxdznqjCaVB5uisbw12zkX31Juxdg5erK7Vf5y37yL1atgfFO6a4P2+wW0sXG2nzlyg3LK2/kuM5VrcXSYJSdTPpUWdROPmXP2SG1Bmxurs1WWFxksKGVumO7/EFSnHf98ptx/uCpcGDknZtJiL+IX5s9QMDNBjam1oBttWm2ZDqXtLVcXCSOyqO3tU6ZF9SdgXYICAADU2tAN9rcmmwSQ21jDawBABSoNaBLL799PVm1okbkZpvcwBoAMGNqDehey2ZL4k2PNLAGAMSh1oAeTWt6pIE1ACAUtQb0rmWzJWMPtRlYAwBCUWvAQNpMj0zGG2ozsAYARKPWgEGlN6hd2WznTh0999CxIbPNwBoAEI1aA8bRZnpkMtQMSQNrAEBAag0YU8vpkUnP2VYYWLv1yl/08bcAAKxFrQEhtBxqS3rINgNrAEBMag0IpP1QW9JdthlYAwBiUmtARC+/ff2dT79859O9ll+/cbkZWAMAwlJrQGjtZ0im0sUkk9blZmANAAhLrQET0HLd/7J0zO3pU8fOnTpa/lMDawBAZGoNmJKNsy2VNls6+PbOb4ozLQ2sAQChqDVgqta9tq2ZgTUAIBq1BkzeWitJFrz0nZNJkjz9UPVUSQCAEak1YFbWLTezHwGAsNQaMFtpuTXPllRrAEBYag1YinSFkoOPv0yS5MXv7poACQCEpdYAAAAiunvsDQAAAKCCWgMAAIhIrQEAAESk1gAAACJSawAAABGpNQAAgIjUGgAAQERqDQAAICK1BgAAEJFaAwAAiEitAQAARKTWAAAAIlJrAAAAEak1AACAiNQaAABARGoNAAAgIrUGAAAQkVoDAACISK0BAABEpNYAAAAiUmsAAAARqTUAAICI1BoAAEBEag0AACAitQYAABCRWgMAAIhIrQEAAESk1gAAACJSawAAABGpNQAAgIjUGgAAQERqDQAAICK1BgAAEJFaAwAAiEitAQAARKTWAAAAIlJrAAAAEak1AACAiNQaAABARGoNAAAgIrUGAAAQkVoDAACISK0BAABEpNYAAAAiUmsAAAARqTUAAICI1BoAAEBEag0AACAitQYAABCRWgMAAIhIrQEAAESk1gAAACJSawAAABGpNQAAgIjUGgAAQERqDQAAICK1BgAAEJFaAwAAiEitAQAARKTWAAAAIlJrAAAAEak1AACAiNQaAABARGoNAAAgIrUGAAAQkVoDAACISK0BAABEpNYAAAAiUmsAAAARqTUAAICI1BoAAEBEag0AACAitQYAABCRWgMAAIhIrQEAAESk1gAAACJSawAAABGpNQAAgIjUGgAAQERqDQAAICK1BgAAEJFaAwAAiEitAQAARKTWAAAAIlJrAAAAEak1AACAiNQaAABARGoNAAAgIrUGAAAQkVoDAACISK0BAABEpNYAAAAiUmsAAAARqTUAAICI1BoAAEBEag0AACAitQYAABCRWgMAAIhIrQEAAESk1gAAACJSawAAABGpNQAAgIjUGgAAQERqDQAAICK1BgAAEJFaAwAAiEitAQAARKTWAAAAIlJrAAAAEak1AACAiNQaAABARGoNAAAgIrUGAAAQkVoDAACISK0BAABEpNYAAAAiUmsAAAARqTUAAICI1BoAAEBEag0AACAitQYAABCRWgMAAIhIrQEAAESk1gAAACJSawAAABGpNQAAgIjUGgAAQERqDQAAICK1BgAAEJFaAwAAiEitAQAARKTWAAAAIlJrAAAAEak1AACAiNQaAABARGoNAAAgIrUGAAAQkVoDAACISK0BAABEpNYAAAAiUmsAAAARqTUAAICI1BoAAEBEag0AACAitQYAABCRWgMAAIhIrQEAAESk1gAAACJSawAAABH9f7MGxRbz/GkNAAAAAElFTkSuQmCC;clipPath=inset(74% 9.33% 16.67% 13%);direction=north;" parent="PvffXtldvGFclzvf1Mkj-34" vertex="1">
          <mxGeometry x="270" y="362" width="6" height="52" as="geometry" />
        </mxCell>
        <mxCell id="ntlW8NFhvoEF-g6CEwiz-56" value="weights, act" style="" parent="0" />
        <mxCell id="ntlW8NFhvoEF-g6CEwiz-200" value="" style="shape=parallelogram;perimeter=parallelogramPerimeter;whiteSpace=wrap;html=1;fixedSize=1;rotation=90;flipV=1;size=7.130000000000109;fillColor=#76608a;fontColor=#ffffff;strokeColor=#432D57;" parent="ntlW8NFhvoEF-g6CEwiz-56" vertex="1">
          <mxGeometry x="525.13" y="377.15999999999997" width="62.87" height="14.82" as="geometry" />
        </mxCell>
        <mxCell id="ntlW8NFhvoEF-g6CEwiz-210" value="" style="shape=parallelogram;perimeter=parallelogramPerimeter;whiteSpace=wrap;html=1;fixedSize=1;rotation=90;flipV=1;size=3.9400000000000546;fillColor=#d0cee2;strokeColor=#56517e;" parent="ntlW8NFhvoEF-g6CEwiz-56" vertex="1">
          <mxGeometry x="548.3199999999999" y="357.74" width="9.25" height="7.57" as="geometry" />
        </mxCell>
        <mxCell id="ntlW8NFhvoEF-g6CEwiz-212" value="" style="shape=parallelogram;perimeter=parallelogramPerimeter;whiteSpace=wrap;html=1;fixedSize=1;rotation=90;flipV=1;size=3.9400000000000546;fillColor=#d0cee2;strokeColor=#56517e;" parent="ntlW8NFhvoEF-g6CEwiz-56" vertex="1">
          <mxGeometry x="548.3199999999999" y="363.31" width="9.25" height="7.57" as="geometry" />
        </mxCell>
        <mxCell id="ntlW8NFhvoEF-g6CEwiz-217" value="" style="shape=parallelogram;perimeter=parallelogramPerimeter;whiteSpace=wrap;html=1;fixedSize=1;rotation=90;flipV=1;size=3.9400000000000546;fillColor=#d0cee2;strokeColor=#56517e;" parent="ntlW8NFhvoEF-g6CEwiz-56" vertex="1">
          <mxGeometry x="555.5699999999999" y="404.31" width="9.25" height="7.57" as="geometry" />
        </mxCell>
        <mxCell id="ntlW8NFhvoEF-g6CEwiz-226" value="" style="ellipse;whiteSpace=wrap;html=1;aspect=fixed;fillColor=#a20025;fontColor=#ffffff;strokeColor=#6F0000;" parent="ntlW8NFhvoEF-g6CEwiz-56" vertex="1">
          <mxGeometry x="634" y="344.54" width="8" height="8" as="geometry" />
        </mxCell>
        <mxCell id="ntlW8NFhvoEF-g6CEwiz-243" value="Concatenate Layer" style="text;html=1;align=center;verticalAlign=middle;resizable=0;points=[];autosize=1;strokeColor=none;fillColor=none;fontFamily=Times New Roman;fontSize=14;" parent="ntlW8NFhvoEF-g6CEwiz-56" vertex="1">
          <mxGeometry x="490.99999999999994" y="309" width="130" height="30" as="geometry" />
        </mxCell>
        <mxCell id="ntlW8NFhvoEF-g6CEwiz-244" value="Convolutional Layers" style="text;html=1;align=center;verticalAlign=middle;resizable=0;points=[];autosize=1;strokeColor=none;fillColor=none;fontFamily=Times New Roman;fontSize=14;" parent="ntlW8NFhvoEF-g6CEwiz-56" vertex="1">
          <mxGeometry x="339.99999999999994" y="310" width="150" height="30" as="geometry" />
        </mxCell>
        <mxCell id="ntlW8NFhvoEF-g6CEwiz-245" value="Fully-Connected Layers" style="text;html=1;align=center;verticalAlign=middle;resizable=0;points=[];autosize=1;strokeColor=none;fillColor=none;fontFamily=Times New Roman;fontSize=14;" parent="ntlW8NFhvoEF-g6CEwiz-56" vertex="1">
          <mxGeometry x="637" y="308" width="160" height="30" as="geometry" />
        </mxCell>
        <mxCell id="ntlW8NFhvoEF-g6CEwiz-248" value="" style="endArrow=classic;html=1;rounded=0;" parent="ntlW8NFhvoEF-g6CEwiz-56" edge="1">
          <mxGeometry width="50" height="50" relative="1" as="geometry">
            <mxPoint x="71" y="390" as="sourcePoint" />
            <mxPoint x="161" y="390" as="targetPoint" />
            <Array as="points">
              <mxPoint x="140" y="390" />
            </Array>
          </mxGeometry>
        </mxCell>
        <mxCell id="ntlW8NFhvoEF-g6CEwiz-249" value="$$[e^\top,x^\top&lt;br&gt;,u^\top&lt;br&gt;]^\top&lt;br&gt;$$" style="text;html=1;align=center;verticalAlign=middle;resizable=0;points=[];autosize=1;strokeColor=none;fillColor=none;fontSize=14;" parent="ntlW8NFhvoEF-g6CEwiz-56" vertex="1">
          <mxGeometry x="54" y="336" width="120" height="80" as="geometry" />
        </mxCell>
        <mxCell id="ntlW8NFhvoEF-g6CEwiz-284" value="" style="ellipse;whiteSpace=wrap;html=1;aspect=fixed;fillColor=#a20025;fontColor=#ffffff;strokeColor=#6F0000;" parent="ntlW8NFhvoEF-g6CEwiz-56" vertex="1">
          <mxGeometry x="634" y="355" width="8" height="8" as="geometry" />
        </mxCell>
        <mxCell id="ntlW8NFhvoEF-g6CEwiz-285" value="" style="ellipse;whiteSpace=wrap;html=1;aspect=fixed;fillColor=#a20025;fontColor=#ffffff;strokeColor=#6F0000;" parent="ntlW8NFhvoEF-g6CEwiz-56" vertex="1">
          <mxGeometry x="634" y="377" width="8" height="8" as="geometry" />
        </mxCell>
        <mxCell id="ntlW8NFhvoEF-g6CEwiz-286" value="" style="ellipse;whiteSpace=wrap;html=1;aspect=fixed;fillColor=#a20025;fontColor=#ffffff;strokeColor=#6F0000;" parent="ntlW8NFhvoEF-g6CEwiz-56" vertex="1">
          <mxGeometry x="634" y="366" width="8" height="8" as="geometry" />
        </mxCell>
        <mxCell id="ntlW8NFhvoEF-g6CEwiz-287" value="" style="ellipse;whiteSpace=wrap;html=1;aspect=fixed;fillColor=#a20025;fontColor=#ffffff;strokeColor=#6F0000;" parent="ntlW8NFhvoEF-g6CEwiz-56" vertex="1">
          <mxGeometry x="634" y="387" width="8" height="8" as="geometry" />
        </mxCell>
        <mxCell id="ntlW8NFhvoEF-g6CEwiz-288" value="" style="ellipse;whiteSpace=wrap;html=1;aspect=fixed;fillColor=#a20025;fontColor=#ffffff;strokeColor=#6F0000;" parent="ntlW8NFhvoEF-g6CEwiz-56" vertex="1">
          <mxGeometry x="634" y="409" width="8" height="8" as="geometry" />
        </mxCell>
        <mxCell id="ntlW8NFhvoEF-g6CEwiz-292" value="" style="ellipse;whiteSpace=wrap;html=1;aspect=fixed;fillColor=#a20025;fontColor=#ffffff;strokeColor=#6F0000;" parent="ntlW8NFhvoEF-g6CEwiz-56" vertex="1">
          <mxGeometry x="634" y="398" width="8" height="8" as="geometry" />
        </mxCell>
        <mxCell id="ntlW8NFhvoEF-g6CEwiz-293" value="" style="ellipse;whiteSpace=wrap;html=1;aspect=fixed;fillColor=#a20025;fontColor=#ffffff;strokeColor=#6F0000;" parent="ntlW8NFhvoEF-g6CEwiz-56" vertex="1">
          <mxGeometry x="634" y="419.52000000000004" width="8" height="8" as="geometry" />
        </mxCell>
        <mxCell id="ntlW8NFhvoEF-g6CEwiz-294" value="" style="endArrow=classic;html=1;rounded=0;exitX=0.345;exitY=0.848;exitDx=0;exitDy=0;exitPerimeter=0;entryX=0;entryY=0.5;entryDx=0;entryDy=0;" parent="ntlW8NFhvoEF-g6CEwiz-56" source="ntlW8NFhvoEF-g6CEwiz-210" target="ntlW8NFhvoEF-g6CEwiz-226" edge="1">
          <mxGeometry width="50" height="50" relative="1" as="geometry">
            <mxPoint x="580" y="420" as="sourcePoint" />
            <mxPoint x="630" y="370" as="targetPoint" />
          </mxGeometry>
        </mxCell>
        <mxCell id="ntlW8NFhvoEF-g6CEwiz-296" value="" style="endArrow=classic;html=1;rounded=0;exitX=0.75;exitY=0;exitDx=0;exitDy=0;entryX=-0.114;entryY=0.598;entryDx=0;entryDy=0;entryPerimeter=0;" parent="ntlW8NFhvoEF-g6CEwiz-56" source="ntlW8NFhvoEF-g6CEwiz-212" target="ntlW8NFhvoEF-g6CEwiz-284" edge="1">
          <mxGeometry width="50" height="50" relative="1" as="geometry">
            <mxPoint x="568" y="370" as="sourcePoint" />
            <mxPoint x="643" y="359" as="targetPoint" />
          </mxGeometry>
        </mxCell>
        <mxCell id="ntlW8NFhvoEF-g6CEwiz-297" value="" style="endArrow=classic;html=1;rounded=0;exitX=0.25;exitY=0;exitDx=0;exitDy=0;entryX=0;entryY=0.393;entryDx=0;entryDy=0;entryPerimeter=0;" parent="ntlW8NFhvoEF-g6CEwiz-56" source="ntlW8NFhvoEF-g6CEwiz-217" target="ntlW8NFhvoEF-g6CEwiz-293" edge="1">
          <mxGeometry width="50" height="50" relative="1" as="geometry">
            <mxPoint x="565" y="379" as="sourcePoint" />
            <mxPoint x="642" y="370" as="targetPoint" />
          </mxGeometry>
        </mxCell>
        <mxCell id="ntlW8NFhvoEF-g6CEwiz-298" value="" style="ellipse;whiteSpace=wrap;html=1;aspect=fixed;fillColor=#a20025;fontColor=#ffffff;strokeColor=#6F0000;" parent="ntlW8NFhvoEF-g6CEwiz-56" vertex="1">
          <mxGeometry x="681" y="344.54" width="8" height="8" as="geometry" />
        </mxCell>
        <mxCell id="ntlW8NFhvoEF-g6CEwiz-299" value="" style="ellipse;whiteSpace=wrap;html=1;aspect=fixed;fillColor=#a20025;fontColor=#ffffff;strokeColor=#6F0000;" parent="ntlW8NFhvoEF-g6CEwiz-56" vertex="1">
          <mxGeometry x="681" y="355" width="8" height="8" as="geometry" />
        </mxCell>
        <mxCell id="ntlW8NFhvoEF-g6CEwiz-300" value="" style="ellipse;whiteSpace=wrap;html=1;aspect=fixed;fillColor=#a20025;fontColor=#ffffff;strokeColor=#6F0000;" parent="ntlW8NFhvoEF-g6CEwiz-56" vertex="1">
          <mxGeometry x="681" y="377" width="8" height="8" as="geometry" />
        </mxCell>
        <mxCell id="ntlW8NFhvoEF-g6CEwiz-301" value="" style="ellipse;whiteSpace=wrap;html=1;aspect=fixed;fillColor=#a20025;fontColor=#ffffff;strokeColor=#6F0000;" parent="ntlW8NFhvoEF-g6CEwiz-56" vertex="1">
          <mxGeometry x="681" y="366" width="8" height="8" as="geometry" />
        </mxCell>
        <mxCell id="ntlW8NFhvoEF-g6CEwiz-302" value="" style="ellipse;whiteSpace=wrap;html=1;aspect=fixed;fillColor=#a20025;fontColor=#ffffff;strokeColor=#6F0000;" parent="ntlW8NFhvoEF-g6CEwiz-56" vertex="1">
          <mxGeometry x="681" y="387" width="8" height="8" as="geometry" />
        </mxCell>
        <mxCell id="ntlW8NFhvoEF-g6CEwiz-303" value="" style="ellipse;whiteSpace=wrap;html=1;aspect=fixed;fillColor=#a20025;fontColor=#ffffff;strokeColor=#6F0000;" parent="ntlW8NFhvoEF-g6CEwiz-56" vertex="1">
          <mxGeometry x="681" y="409" width="8" height="8" as="geometry" />
        </mxCell>
        <mxCell id="ntlW8NFhvoEF-g6CEwiz-304" value="" style="ellipse;whiteSpace=wrap;html=1;aspect=fixed;fillColor=#a20025;fontColor=#ffffff;strokeColor=#6F0000;" parent="ntlW8NFhvoEF-g6CEwiz-56" vertex="1">
          <mxGeometry x="681" y="398" width="8" height="8" as="geometry" />
        </mxCell>
        <mxCell id="ntlW8NFhvoEF-g6CEwiz-305" value="" style="ellipse;whiteSpace=wrap;html=1;aspect=fixed;fillColor=#a20025;fontColor=#ffffff;strokeColor=#6F0000;" parent="ntlW8NFhvoEF-g6CEwiz-56" vertex="1">
          <mxGeometry x="681" y="419.52000000000004" width="8" height="8" as="geometry" />
        </mxCell>
        <mxCell id="ntlW8NFhvoEF-g6CEwiz-308" value="" style="endArrow=none;html=1;rounded=0;exitX=1;exitY=0.5;exitDx=0;exitDy=0;entryX=0;entryY=0.5;entryDx=0;entryDy=0;" parent="ntlW8NFhvoEF-g6CEwiz-56" source="ntlW8NFhvoEF-g6CEwiz-226" target="ntlW8NFhvoEF-g6CEwiz-298" edge="1">
          <mxGeometry width="50" height="50" relative="1" as="geometry">
            <mxPoint x="651" y="400" as="sourcePoint" />
            <mxPoint x="701" y="350" as="targetPoint" />
          </mxGeometry>
        </mxCell>
        <mxCell id="ntlW8NFhvoEF-g6CEwiz-309" value="" style="endArrow=none;html=1;rounded=0;exitX=1;exitY=0.5;exitDx=0;exitDy=0;entryX=0;entryY=0.5;entryDx=0;entryDy=0;" parent="ntlW8NFhvoEF-g6CEwiz-56" source="ntlW8NFhvoEF-g6CEwiz-226" target="ntlW8NFhvoEF-g6CEwiz-299" edge="1">
          <mxGeometry width="50" height="50" relative="1" as="geometry">
            <mxPoint x="652" y="359" as="sourcePoint" />
            <mxPoint x="691" y="359" as="targetPoint" />
          </mxGeometry>
        </mxCell>
        <mxCell id="ntlW8NFhvoEF-g6CEwiz-310" value="" style="endArrow=none;html=1;rounded=0;exitX=1;exitY=0.5;exitDx=0;exitDy=0;entryX=0;entryY=0.5;entryDx=0;entryDy=0;" parent="ntlW8NFhvoEF-g6CEwiz-56" source="ntlW8NFhvoEF-g6CEwiz-226" target="ntlW8NFhvoEF-g6CEwiz-305" edge="1">
          <mxGeometry width="50" height="50" relative="1" as="geometry">
            <mxPoint x="652" y="359" as="sourcePoint" />
            <mxPoint x="691" y="369" as="targetPoint" />
          </mxGeometry>
        </mxCell>
        <mxCell id="ntlW8NFhvoEF-g6CEwiz-311" value="" style="endArrow=none;html=1;rounded=0;exitX=1;exitY=0.5;exitDx=0;exitDy=0;entryX=0;entryY=0.5;entryDx=0;entryDy=0;" parent="ntlW8NFhvoEF-g6CEwiz-56" source="ntlW8NFhvoEF-g6CEwiz-293" target="ntlW8NFhvoEF-g6CEwiz-305" edge="1">
          <mxGeometry width="50" height="50" relative="1" as="geometry">
            <mxPoint x="652" y="359" as="sourcePoint" />
            <mxPoint x="691" y="434" as="targetPoint" />
          </mxGeometry>
        </mxCell>
        <mxCell id="ntlW8NFhvoEF-g6CEwiz-312" value="" style="endArrow=none;html=1;rounded=0;exitX=1;exitY=0.5;exitDx=0;exitDy=0;entryX=0.053;entryY=0.694;entryDx=0;entryDy=0;entryPerimeter=0;" parent="ntlW8NFhvoEF-g6CEwiz-56" source="ntlW8NFhvoEF-g6CEwiz-284" target="ntlW8NFhvoEF-g6CEwiz-298" edge="1">
          <mxGeometry width="50" height="50" relative="1" as="geometry">
            <mxPoint x="652" y="434" as="sourcePoint" />
            <mxPoint x="691" y="434" as="targetPoint" />
          </mxGeometry>
        </mxCell>
        <mxCell id="ntlW8NFhvoEF-g6CEwiz-313" value="" style="endArrow=none;html=1;rounded=0;exitX=1;exitY=0.5;exitDx=0;exitDy=0;entryX=0;entryY=0.5;entryDx=0;entryDy=0;" parent="ntlW8NFhvoEF-g6CEwiz-56" source="ntlW8NFhvoEF-g6CEwiz-293" target="ntlW8NFhvoEF-g6CEwiz-303" edge="1">
          <mxGeometry width="50" height="50" relative="1" as="geometry">
            <mxPoint x="652" y="434" as="sourcePoint" />
            <mxPoint x="691" y="434" as="targetPoint" />
          </mxGeometry>
        </mxCell>
        <mxCell id="ntlW8NFhvoEF-g6CEwiz-314" value="" style="ellipse;whiteSpace=wrap;html=1;aspect=fixed;fillColor=#a20025;fontColor=#ffffff;strokeColor=#6F0000;" parent="ntlW8NFhvoEF-g6CEwiz-56" vertex="1">
          <mxGeometry x="728" y="343.54" width="8" height="8" as="geometry" />
        </mxCell>
        <mxCell id="ntlW8NFhvoEF-g6CEwiz-315" value="" style="ellipse;whiteSpace=wrap;html=1;aspect=fixed;fillColor=#a20025;fontColor=#ffffff;strokeColor=#6F0000;" parent="ntlW8NFhvoEF-g6CEwiz-56" vertex="1">
          <mxGeometry x="728" y="354" width="8" height="8" as="geometry" />
        </mxCell>
        <mxCell id="ntlW8NFhvoEF-g6CEwiz-316" value="" style="ellipse;whiteSpace=wrap;html=1;aspect=fixed;fillColor=#a20025;fontColor=#ffffff;strokeColor=#6F0000;" parent="ntlW8NFhvoEF-g6CEwiz-56" vertex="1">
          <mxGeometry x="728" y="376" width="8" height="8" as="geometry" />
        </mxCell>
        <mxCell id="ntlW8NFhvoEF-g6CEwiz-317" value="" style="ellipse;whiteSpace=wrap;html=1;aspect=fixed;fillColor=#a20025;fontColor=#ffffff;strokeColor=#6F0000;" parent="ntlW8NFhvoEF-g6CEwiz-56" vertex="1">
          <mxGeometry x="728" y="365" width="8" height="8" as="geometry" />
        </mxCell>
        <mxCell id="ntlW8NFhvoEF-g6CEwiz-318" value="" style="ellipse;whiteSpace=wrap;html=1;aspect=fixed;fillColor=#a20025;fontColor=#ffffff;strokeColor=#6F0000;" parent="ntlW8NFhvoEF-g6CEwiz-56" vertex="1">
          <mxGeometry x="728" y="386" width="8" height="8" as="geometry" />
        </mxCell>
        <mxCell id="ntlW8NFhvoEF-g6CEwiz-319" value="" style="ellipse;whiteSpace=wrap;html=1;aspect=fixed;fillColor=#a20025;fontColor=#ffffff;strokeColor=#6F0000;" parent="ntlW8NFhvoEF-g6CEwiz-56" vertex="1">
          <mxGeometry x="728" y="408" width="8" height="8" as="geometry" />
        </mxCell>
        <mxCell id="ntlW8NFhvoEF-g6CEwiz-320" value="" style="ellipse;whiteSpace=wrap;html=1;aspect=fixed;fillColor=#a20025;fontColor=#ffffff;strokeColor=#6F0000;" parent="ntlW8NFhvoEF-g6CEwiz-56" vertex="1">
          <mxGeometry x="728" y="397" width="8" height="8" as="geometry" />
        </mxCell>
        <mxCell id="ntlW8NFhvoEF-g6CEwiz-321" value="" style="ellipse;whiteSpace=wrap;html=1;aspect=fixed;fillColor=#a20025;fontColor=#ffffff;strokeColor=#6F0000;" parent="ntlW8NFhvoEF-g6CEwiz-56" vertex="1">
          <mxGeometry x="728" y="418.52000000000004" width="8" height="8" as="geometry" />
        </mxCell>
        <mxCell id="ntlW8NFhvoEF-g6CEwiz-322" value="" style="endArrow=none;html=1;rounded=0;exitX=1;exitY=0.5;exitDx=0;exitDy=0;entryX=0;entryY=0.5;entryDx=0;entryDy=0;" parent="ntlW8NFhvoEF-g6CEwiz-56" target="ntlW8NFhvoEF-g6CEwiz-314" edge="1">
          <mxGeometry width="50" height="50" relative="1" as="geometry">
            <mxPoint x="689" y="348" as="sourcePoint" />
            <mxPoint x="748" y="349" as="targetPoint" />
          </mxGeometry>
        </mxCell>
        <mxCell id="ntlW8NFhvoEF-g6CEwiz-323" value="" style="endArrow=none;html=1;rounded=0;exitX=1;exitY=0.5;exitDx=0;exitDy=0;entryX=0;entryY=0.5;entryDx=0;entryDy=0;" parent="ntlW8NFhvoEF-g6CEwiz-56" target="ntlW8NFhvoEF-g6CEwiz-315" edge="1">
          <mxGeometry width="50" height="50" relative="1" as="geometry">
            <mxPoint x="689" y="348" as="sourcePoint" />
            <mxPoint x="738" y="358" as="targetPoint" />
          </mxGeometry>
        </mxCell>
        <mxCell id="ntlW8NFhvoEF-g6CEwiz-324" value="" style="endArrow=none;html=1;rounded=0;exitX=1;exitY=0.5;exitDx=0;exitDy=0;entryX=0;entryY=0.5;entryDx=0;entryDy=0;" parent="ntlW8NFhvoEF-g6CEwiz-56" target="ntlW8NFhvoEF-g6CEwiz-321" edge="1">
          <mxGeometry width="50" height="50" relative="1" as="geometry">
            <mxPoint x="689" y="348" as="sourcePoint" />
            <mxPoint x="738" y="368" as="targetPoint" />
          </mxGeometry>
        </mxCell>
        <mxCell id="ntlW8NFhvoEF-g6CEwiz-325" value="" style="endArrow=none;html=1;rounded=0;exitX=1;exitY=0.5;exitDx=0;exitDy=0;entryX=0;entryY=0.5;entryDx=0;entryDy=0;" parent="ntlW8NFhvoEF-g6CEwiz-56" target="ntlW8NFhvoEF-g6CEwiz-321" edge="1">
          <mxGeometry width="50" height="50" relative="1" as="geometry">
            <mxPoint x="689" y="423" as="sourcePoint" />
            <mxPoint x="738" y="433" as="targetPoint" />
          </mxGeometry>
        </mxCell>
        <mxCell id="ntlW8NFhvoEF-g6CEwiz-326" value="" style="endArrow=none;html=1;rounded=0;exitX=1;exitY=0.5;exitDx=0;exitDy=0;entryX=0.053;entryY=0.694;entryDx=0;entryDy=0;entryPerimeter=0;" parent="ntlW8NFhvoEF-g6CEwiz-56" target="ntlW8NFhvoEF-g6CEwiz-314" edge="1">
          <mxGeometry width="50" height="50" relative="1" as="geometry">
            <mxPoint x="689" y="358" as="sourcePoint" />
            <mxPoint x="738" y="433" as="targetPoint" />
          </mxGeometry>
        </mxCell>
        <mxCell id="ntlW8NFhvoEF-g6CEwiz-327" value="" style="endArrow=none;html=1;rounded=0;exitX=1;exitY=0.5;exitDx=0;exitDy=0;entryX=0;entryY=0.5;entryDx=0;entryDy=0;" parent="ntlW8NFhvoEF-g6CEwiz-56" target="ntlW8NFhvoEF-g6CEwiz-319" edge="1">
          <mxGeometry width="50" height="50" relative="1" as="geometry">
            <mxPoint x="689" y="423" as="sourcePoint" />
            <mxPoint x="738" y="433" as="targetPoint" />
          </mxGeometry>
        </mxCell>
        <mxCell id="ntlW8NFhvoEF-g6CEwiz-328" value="" style="endArrow=none;html=1;rounded=0;exitX=1;exitY=0.5;exitDx=0;exitDy=0;entryX=0;entryY=0.5;entryDx=0;entryDy=0;" parent="ntlW8NFhvoEF-g6CEwiz-56" edge="1">
          <mxGeometry width="50" height="50" relative="1" as="geometry">
            <mxPoint x="681" y="349" as="sourcePoint" />
            <mxPoint x="642" y="424" as="targetPoint" />
          </mxGeometry>
        </mxCell>
        <mxCell id="ntlW8NFhvoEF-g6CEwiz-329" value="" style="endArrow=none;html=1;rounded=0;exitX=1;exitY=0.5;exitDx=0;exitDy=0;entryX=0;entryY=0.5;entryDx=0;entryDy=0;" parent="ntlW8NFhvoEF-g6CEwiz-56" edge="1">
          <mxGeometry width="50" height="50" relative="1" as="geometry">
            <mxPoint x="728" y="348" as="sourcePoint" />
            <mxPoint x="689" y="423" as="targetPoint" />
          </mxGeometry>
        </mxCell>
        <mxCell id="ntlW8NFhvoEF-g6CEwiz-334" value="" style="endArrow=classic;html=1;rounded=0;exitX=1.006;exitY=0.527;exitDx=0;exitDy=0;exitPerimeter=0;entryX=0;entryY=0.5;entryDx=0;entryDy=0;" parent="ntlW8NFhvoEF-g6CEwiz-56" target="ntlW8NFhvoEF-g6CEwiz-267" edge="1">
          <mxGeometry width="50" height="50" relative="1" as="geometry">
            <mxPoint x="409.4799999999999" y="387.98602000000005" as="sourcePoint" />
            <mxPoint x="434" y="387.63" as="targetPoint" />
          </mxGeometry>
        </mxCell>
        <mxCell id="ntlW8NFhvoEF-g6CEwiz-336" value="" style="endArrow=classic;html=1;rounded=0;exitX=1.006;exitY=0.527;exitDx=0;exitDy=0;exitPerimeter=0;entryX=0.525;entryY=0.062;entryDx=0;entryDy=0;entryPerimeter=0;" parent="ntlW8NFhvoEF-g6CEwiz-56" target="ntlW8NFhvoEF-g6CEwiz-200" edge="1">
          <mxGeometry width="50" height="50" relative="1" as="geometry">
            <mxPoint x="495.4799999999999" y="386.99602000000004" as="sourcePoint" />
            <mxPoint x="539" y="387" as="targetPoint" />
          </mxGeometry>
        </mxCell>
        <mxCell id="ntlW8NFhvoEF-g6CEwiz-267" value="" style="rounded=1;whiteSpace=wrap;html=1;labelBackgroundColor=none;strokeWidth=1;fillColor=none;fillStyle=auto;" parent="ntlW8NFhvoEF-g6CEwiz-56" vertex="1">
          <mxGeometry x="435" y="344.54" width="60" height="87.26" as="geometry" />
        </mxCell>
        <mxCell id="ntlW8NFhvoEF-g6CEwiz-68" value="&lt;font face=&quot;Times New Roman&quot; style=&quot;font-size: 14px;&quot;&gt;3&lt;/font&gt;" style="text;html=1;align=center;verticalAlign=middle;resizable=0;points=[];autosize=1;strokeColor=none;fillColor=none;fontSize=14;" parent="ntlW8NFhvoEF-g6CEwiz-56" vertex="1">
          <mxGeometry x="436" y="372.63" width="30" height="30" as="geometry" />
        </mxCell>
        <mxCell id="ntlW8NFhvoEF-g6CEwiz-69" value="&lt;font face=&quot;Times New Roman&quot; style=&quot;font-size: 14px;&quot;&gt;2&lt;/font&gt;" style="text;html=1;align=center;verticalAlign=middle;resizable=0;points=[];autosize=1;strokeColor=none;fillColor=none;fontSize=14;" parent="ntlW8NFhvoEF-g6CEwiz-56" vertex="1">
          <mxGeometry x="448" y="346" width="30" height="30" as="geometry" />
        </mxCell>
        <mxCell id="ntlW8NFhvoEF-g6CEwiz-168" value="" style="rounded=1;whiteSpace=wrap;html=1;labelBackgroundColor=none;strokeWidth=1;fillColor=none;" parent="ntlW8NFhvoEF-g6CEwiz-56" vertex="1">
          <mxGeometry x="329" y="344" width="80" height="87.26" as="geometry" />
        </mxCell>
        <mxCell id="PvffXtldvGFclzvf1Mkj-9" value="$$\vdots$$" style="text;html=1;align=center;verticalAlign=middle;resizable=0;points=[];autosize=1;strokeColor=none;fillColor=none;" parent="ntlW8NFhvoEF-g6CEwiz-56" vertex="1">
          <mxGeometry x="736" y="375.52" width="80" height="30" as="geometry" />
        </mxCell>
        <mxCell id="PvffXtldvGFclzvf1Mkj-10" value="$$\vdots$$" style="text;html=1;align=center;verticalAlign=middle;resizable=0;points=[];autosize=1;strokeColor=none;fillColor=none;" parent="ntlW8NFhvoEF-g6CEwiz-56" vertex="1">
          <mxGeometry x="760" y="366" width="80" height="30" as="geometry" />
        </mxCell>
        <mxCell id="PvffXtldvGFclzvf1Mkj-11" value="$$\vdots$$" style="text;html=1;align=center;verticalAlign=middle;resizable=0;points=[];autosize=1;strokeColor=none;fillColor=none;" parent="ntlW8NFhvoEF-g6CEwiz-56" vertex="1">
          <mxGeometry x="578" y="367" width="80" height="30" as="geometry" />
        </mxCell>
        <mxCell id="ntlW8NFhvoEF-g6CEwiz-81" value="Greec" style="" parent="0" />
        <mxCell id="ntlW8NFhvoEF-g6CEwiz-83" value="$$X$$" style="text;html=1;align=center;verticalAlign=middle;resizable=0;points=[];autosize=1;strokeColor=none;fillColor=none;fontSize=14;" parent="ntlW8NFhvoEF-g6CEwiz-81" vertex="1">
          <mxGeometry x="269" y="364" width="60" height="30" as="geometry" />
        </mxCell>
        <mxCell id="ntlW8NFhvoEF-g6CEwiz-348" value="$$\vdots$$" style="text;html=1;align=center;verticalAlign=middle;resizable=0;points=[];autosize=1;strokeColor=none;fillColor=none;" parent="ntlW8NFhvoEF-g6CEwiz-81" vertex="1">
          <mxGeometry x="726" y="365.52" width="80" height="30" as="geometry" />
        </mxCell>
        <mxCell id="ntlW8NFhvoEF-g6CEwiz-349" value="$$\vdots$$" style="text;html=1;align=center;verticalAlign=middle;resizable=0;points=[];autosize=1;strokeColor=none;fillColor=none;" parent="ntlW8NFhvoEF-g6CEwiz-81" vertex="1">
          <mxGeometry x="678" y="365.52" width="80" height="30" as="geometry" />
        </mxCell>
        <mxCell id="ntlW8NFhvoEF-g6CEwiz-350" value="$$\vdots$$" style="text;html=1;align=center;verticalAlign=middle;resizable=0;points=[];autosize=1;strokeColor=none;fillColor=none;" parent="ntlW8NFhvoEF-g6CEwiz-81" vertex="1">
          <mxGeometry x="632" y="365.52" width="80" height="30" as="geometry" />
        </mxCell>
        <mxCell id="ntlW8NFhvoEF-g6CEwiz-351" value="$$\vdots$$" style="text;html=1;align=center;verticalAlign=middle;resizable=0;points=[];autosize=1;strokeColor=none;fillColor=none;" parent="ntlW8NFhvoEF-g6CEwiz-81" vertex="1">
          <mxGeometry x="540" y="365.52" width="80" height="30" as="geometry" />
        </mxCell>
        <mxCell id="ntlW8NFhvoEF-g6CEwiz-356" value="" style="ellipse;whiteSpace=wrap;html=1;aspect=fixed;fillColor=#f5f5f5;strokeColor=#666666;fontColor=#333333;" parent="ntlW8NFhvoEF-g6CEwiz-81" vertex="1">
          <mxGeometry x="858" y="375.48" width="8" height="8" as="geometry" />
        </mxCell>
        <mxCell id="ntlW8NFhvoEF-g6CEwiz-357" value="" style="ellipse;whiteSpace=wrap;html=1;aspect=fixed;fillColor=#f5f5f5;strokeColor=#666666;fontColor=#333333;" parent="ntlW8NFhvoEF-g6CEwiz-81" vertex="1">
          <mxGeometry x="858" y="386.00000000000006" width="8" height="8" as="geometry" />
        </mxCell>
        <mxCell id="ntlW8NFhvoEF-g6CEwiz-358" value="" style="endArrow=none;html=1;rounded=0;exitX=1;exitY=0.5;exitDx=0;exitDy=0;entryX=0;entryY=0.5;entryDx=0;entryDy=0;" parent="ntlW8NFhvoEF-g6CEwiz-81" target="ntlW8NFhvoEF-g6CEwiz-356" edge="1">
          <mxGeometry width="50" height="50" relative="1" as="geometry">
            <mxPoint x="780.169999999974" y="346.53999999999996" as="sourcePoint" />
            <mxPoint x="865.17" y="349" as="targetPoint" />
          </mxGeometry>
        </mxCell>
        <mxCell id="ntlW8NFhvoEF-g6CEwiz-359" value="" style="endArrow=none;html=1;rounded=0;exitX=1;exitY=0.5;exitDx=0;exitDy=0;entryX=0;entryY=0.5;entryDx=0;entryDy=0;" parent="ntlW8NFhvoEF-g6CEwiz-81" target="ntlW8NFhvoEF-g6CEwiz-357" edge="1">
          <mxGeometry width="50" height="50" relative="1" as="geometry">
            <mxPoint x="780.169999999974" y="346.53999999999996" as="sourcePoint" />
            <mxPoint x="827.17" y="386" as="targetPoint" />
          </mxGeometry>
        </mxCell>
        <mxCell id="ntlW8NFhvoEF-g6CEwiz-360" value="" style="endArrow=none;html=1;rounded=0;exitX=1;exitY=0.5;exitDx=0;exitDy=0;entryX=0;entryY=0.5;entryDx=0;entryDy=0;" parent="ntlW8NFhvoEF-g6CEwiz-81" target="ntlW8NFhvoEF-g6CEwiz-356" edge="1">
          <mxGeometry width="50" height="50" relative="1" as="geometry">
            <mxPoint x="780.169999999974" y="421.5200000000001" as="sourcePoint" />
            <mxPoint x="817.17" y="423" as="targetPoint" />
          </mxGeometry>
        </mxCell>
        <mxCell id="ntlW8NFhvoEF-g6CEwiz-361" value="" style="endArrow=none;html=1;rounded=0;exitX=0.979;exitY=0.311;exitDx=0;exitDy=0;entryX=0;entryY=0.5;entryDx=0;entryDy=0;exitPerimeter=0;" parent="ntlW8NFhvoEF-g6CEwiz-81" target="ntlW8NFhvoEF-g6CEwiz-357" edge="1">
          <mxGeometry width="50" height="50" relative="1" as="geometry">
            <mxPoint x="780.0020000000001" y="422.0079999999999" as="sourcePoint" />
            <mxPoint x="827.17" y="388" as="targetPoint" />
          </mxGeometry>
        </mxCell>
        <mxCell id="ntlW8NFhvoEF-g6CEwiz-362" value="" style="endArrow=none;html=1;rounded=0;exitX=1;exitY=0.5;exitDx=0;exitDy=0;entryX=0;entryY=0.5;entryDx=0;entryDy=0;" parent="ntlW8NFhvoEF-g6CEwiz-81" target="ntlW8NFhvoEF-g6CEwiz-357" edge="1">
          <mxGeometry width="50" height="50" relative="1" as="geometry">
            <mxPoint x="780.169999999974" y="357" as="sourcePoint" />
            <mxPoint x="827.17" y="397" as="targetPoint" />
          </mxGeometry>
        </mxCell>
        <mxCell id="ntlW8NFhvoEF-g6CEwiz-363" value="" style="endArrow=none;html=1;rounded=0;entryX=0;entryY=0.5;entryDx=0;entryDy=0;" parent="ntlW8NFhvoEF-g6CEwiz-81" target="ntlW8NFhvoEF-g6CEwiz-356" edge="1">
          <mxGeometry width="50" height="50" relative="1" as="geometry">
            <mxPoint x="780.17" y="357" as="sourcePoint" />
            <mxPoint x="822.17" y="395" as="targetPoint" />
          </mxGeometry>
        </mxCell>
        <mxCell id="ntlW8NFhvoEF-g6CEwiz-364" value="" style="ellipse;whiteSpace=wrap;html=1;aspect=fixed;fillColor=#a20025;fontColor=#ffffff;strokeColor=#6F0000;" parent="ntlW8NFhvoEF-g6CEwiz-81" vertex="1">
          <mxGeometry x="775" y="343.54" width="8" height="8" as="geometry" />
        </mxCell>
        <mxCell id="ntlW8NFhvoEF-g6CEwiz-365" value="" style="ellipse;whiteSpace=wrap;html=1;aspect=fixed;fillColor=#a20025;fontColor=#ffffff;strokeColor=#6F0000;" parent="ntlW8NFhvoEF-g6CEwiz-81" vertex="1">
          <mxGeometry x="775" y="354" width="8" height="8" as="geometry" />
        </mxCell>
        <mxCell id="ntlW8NFhvoEF-g6CEwiz-366" value="" style="ellipse;whiteSpace=wrap;html=1;aspect=fixed;fillColor=#a20025;fontColor=#ffffff;strokeColor=#6F0000;" parent="ntlW8NFhvoEF-g6CEwiz-81" vertex="1">
          <mxGeometry x="775" y="376" width="8" height="8" as="geometry" />
        </mxCell>
        <mxCell id="ntlW8NFhvoEF-g6CEwiz-367" value="" style="ellipse;whiteSpace=wrap;html=1;aspect=fixed;fillColor=#a20025;fontColor=#ffffff;strokeColor=#6F0000;" parent="ntlW8NFhvoEF-g6CEwiz-81" vertex="1">
          <mxGeometry x="775" y="365" width="8" height="8" as="geometry" />
        </mxCell>
        <mxCell id="ntlW8NFhvoEF-g6CEwiz-368" value="" style="ellipse;whiteSpace=wrap;html=1;aspect=fixed;fillColor=#a20025;fontColor=#ffffff;strokeColor=#6F0000;" parent="ntlW8NFhvoEF-g6CEwiz-81" vertex="1">
          <mxGeometry x="775" y="386" width="8" height="8" as="geometry" />
        </mxCell>
        <mxCell id="ntlW8NFhvoEF-g6CEwiz-369" value="" style="ellipse;whiteSpace=wrap;html=1;aspect=fixed;fillColor=#a20025;fontColor=#ffffff;strokeColor=#6F0000;" parent="ntlW8NFhvoEF-g6CEwiz-81" vertex="1">
          <mxGeometry x="775" y="408" width="8" height="8" as="geometry" />
        </mxCell>
        <mxCell id="ntlW8NFhvoEF-g6CEwiz-370" value="" style="ellipse;whiteSpace=wrap;html=1;aspect=fixed;fillColor=#a20025;fontColor=#ffffff;strokeColor=#6F0000;" parent="ntlW8NFhvoEF-g6CEwiz-81" vertex="1">
          <mxGeometry x="775" y="397" width="8" height="8" as="geometry" />
        </mxCell>
        <mxCell id="ntlW8NFhvoEF-g6CEwiz-371" value="" style="ellipse;whiteSpace=wrap;html=1;aspect=fixed;fillColor=#a20025;fontColor=#ffffff;strokeColor=#6F0000;" parent="ntlW8NFhvoEF-g6CEwiz-81" vertex="1">
          <mxGeometry x="775" y="418.52000000000004" width="8" height="8" as="geometry" />
        </mxCell>
        <mxCell id="ntlW8NFhvoEF-g6CEwiz-372" value="" style="endArrow=none;html=1;rounded=0;exitX=1;exitY=0.5;exitDx=0;exitDy=0;entryX=0;entryY=0.5;entryDx=0;entryDy=0;" parent="ntlW8NFhvoEF-g6CEwiz-81" target="ntlW8NFhvoEF-g6CEwiz-364" edge="1">
          <mxGeometry width="50" height="50" relative="1" as="geometry">
            <mxPoint x="736" y="348" as="sourcePoint" />
            <mxPoint x="795" y="349" as="targetPoint" />
          </mxGeometry>
        </mxCell>
        <mxCell id="ntlW8NFhvoEF-g6CEwiz-373" value="" style="endArrow=none;html=1;rounded=0;exitX=1;exitY=0.5;exitDx=0;exitDy=0;entryX=0;entryY=0.5;entryDx=0;entryDy=0;" parent="ntlW8NFhvoEF-g6CEwiz-81" target="ntlW8NFhvoEF-g6CEwiz-365" edge="1">
          <mxGeometry width="50" height="50" relative="1" as="geometry">
            <mxPoint x="736" y="348" as="sourcePoint" />
            <mxPoint x="785" y="358" as="targetPoint" />
          </mxGeometry>
        </mxCell>
        <mxCell id="ntlW8NFhvoEF-g6CEwiz-374" value="" style="endArrow=none;html=1;rounded=0;exitX=1;exitY=0.5;exitDx=0;exitDy=0;entryX=0;entryY=0.5;entryDx=0;entryDy=0;" parent="ntlW8NFhvoEF-g6CEwiz-81" target="ntlW8NFhvoEF-g6CEwiz-371" edge="1">
          <mxGeometry width="50" height="50" relative="1" as="geometry">
            <mxPoint x="736" y="348" as="sourcePoint" />
            <mxPoint x="785" y="368" as="targetPoint" />
          </mxGeometry>
        </mxCell>
        <mxCell id="ntlW8NFhvoEF-g6CEwiz-375" value="" style="endArrow=none;html=1;rounded=0;exitX=1;exitY=0.5;exitDx=0;exitDy=0;entryX=0;entryY=0.5;entryDx=0;entryDy=0;" parent="ntlW8NFhvoEF-g6CEwiz-81" target="ntlW8NFhvoEF-g6CEwiz-371" edge="1">
          <mxGeometry width="50" height="50" relative="1" as="geometry">
            <mxPoint x="736" y="423" as="sourcePoint" />
            <mxPoint x="785" y="433" as="targetPoint" />
          </mxGeometry>
        </mxCell>
        <mxCell id="ntlW8NFhvoEF-g6CEwiz-376" value="" style="endArrow=none;html=1;rounded=0;exitX=1;exitY=0.5;exitDx=0;exitDy=0;entryX=0.053;entryY=0.694;entryDx=0;entryDy=0;entryPerimeter=0;" parent="ntlW8NFhvoEF-g6CEwiz-81" target="ntlW8NFhvoEF-g6CEwiz-364" edge="1">
          <mxGeometry width="50" height="50" relative="1" as="geometry">
            <mxPoint x="736" y="358" as="sourcePoint" />
            <mxPoint x="785" y="433" as="targetPoint" />
          </mxGeometry>
        </mxCell>
        <mxCell id="ntlW8NFhvoEF-g6CEwiz-377" value="" style="endArrow=none;html=1;rounded=0;exitX=1;exitY=0.5;exitDx=0;exitDy=0;entryX=0;entryY=0.5;entryDx=0;entryDy=0;" parent="ntlW8NFhvoEF-g6CEwiz-81" target="ntlW8NFhvoEF-g6CEwiz-369" edge="1">
          <mxGeometry width="50" height="50" relative="1" as="geometry">
            <mxPoint x="736" y="423" as="sourcePoint" />
            <mxPoint x="785" y="433" as="targetPoint" />
          </mxGeometry>
        </mxCell>
        <mxCell id="ntlW8NFhvoEF-g6CEwiz-378" value="" style="endArrow=none;html=1;rounded=0;exitX=1;exitY=0.5;exitDx=0;exitDy=0;entryX=0;entryY=0.5;entryDx=0;entryDy=0;" parent="ntlW8NFhvoEF-g6CEwiz-81" edge="1">
          <mxGeometry width="50" height="50" relative="1" as="geometry">
            <mxPoint x="775" y="348" as="sourcePoint" />
            <mxPoint x="736" y="423" as="targetPoint" />
          </mxGeometry>
        </mxCell>
        <mxCell id="ntlW8NFhvoEF-g6CEwiz-381" value="&lt;span style=&quot;color: rgb(0, 0, 0); font-family: Helvetica; font-size: 12px; font-style: normal; font-variant-ligatures: normal; font-variant-caps: normal; font-weight: 400; letter-spacing: normal; orphans: 2; text-align: center; text-indent: 0px; text-transform: none; widows: 2; word-spacing: 0px; -webkit-text-stroke-width: 0px; background-color: rgb(251, 251, 251); text-decoration-thickness: initial; text-decoration-style: initial; text-decoration-color: initial; float: none; display: inline !important;&quot;&gt;$$\Phi^C_{0}$$&lt;/span&gt;" style="text;whiteSpace=wrap;html=1;fontSize=12;" parent="ntlW8NFhvoEF-g6CEwiz-81" vertex="1">
          <mxGeometry x="411" y="375.00000000000006" width="120" height="40" as="geometry" />
        </mxCell>
        <mxCell id="ntlW8NFhvoEF-g6CEwiz-384" value="&lt;span style=&quot;color: rgb(0, 0, 0); font-family: Helvetica; font-size: 12px; font-style: normal; font-variant-ligatures: normal; font-variant-caps: normal; font-weight: 400; letter-spacing: normal; orphans: 2; text-align: center; text-indent: 0px; text-transform: none; widows: 2; word-spacing: 0px; -webkit-text-stroke-width: 0px; background-color: rgb(251, 251, 251); text-decoration-thickness: initial; text-decoration-style: initial; text-decoration-color: initial; float: none; display: inline !important;&quot;&gt;$$\Phi^F_{0}$$&lt;/span&gt;" style="text;whiteSpace=wrap;html=1;fontSize=12;" parent="ntlW8NFhvoEF-g6CEwiz-81" vertex="1">
          <mxGeometry x="691" y="406.00000000000006" width="120" height="40" as="geometry" />
        </mxCell>
        <mxCell id="ntlW8NFhvoEF-g6CEwiz-385" value="&lt;span style=&quot;color: rgb(0, 0, 0); font-family: Helvetica; font-size: 12px; font-style: normal; font-variant-ligatures: normal; font-variant-caps: normal; font-weight: 400; letter-spacing: normal; orphans: 2; text-align: center; text-indent: 0px; text-transform: none; widows: 2; word-spacing: 0px; -webkit-text-stroke-width: 0px; background-color: rgb(251, 251, 251); text-decoration-thickness: initial; text-decoration-style: initial; text-decoration-color: initial; float: none; display: inline !important;&quot;&gt;$$\Phi^F_{1}$$&lt;/span&gt;" style="text;whiteSpace=wrap;html=1;fontSize=12;" parent="ntlW8NFhvoEF-g6CEwiz-81" vertex="1">
          <mxGeometry x="740" y="406.00000000000006" width="120" height="40" as="geometry" />
        </mxCell>
        <mxCell id="ntlW8NFhvoEF-g6CEwiz-386" value="&lt;span style=&quot;color: rgb(0, 0, 0); font-family: Helvetica; font-size: 12px; font-style: normal; font-variant-ligatures: normal; font-variant-caps: normal; font-weight: 400; letter-spacing: normal; orphans: 2; text-align: center; text-indent: 0px; text-transform: none; widows: 2; word-spacing: 0px; -webkit-text-stroke-width: 0px; background-color: rgb(251, 251, 251); text-decoration-thickness: initial; text-decoration-style: initial; text-decoration-color: initial; float: none; display: inline !important;&quot;&gt;$$\Phi^F_{2}$$&lt;/span&gt;" style="text;whiteSpace=wrap;html=1;fontSize=12;" parent="ntlW8NFhvoEF-g6CEwiz-81" vertex="1">
          <mxGeometry x="783" y="405.00000000000006" width="120" height="40" as="geometry" />
        </mxCell>
        <mxCell id="ntlW8NFhvoEF-g6CEwiz-388" value="&lt;span style=&quot;color: rgb(0, 0, 0); font-family: Helvetica; font-size: 12px; font-style: normal; font-variant-ligatures: normal; font-variant-caps: normal; font-weight: 400; letter-spacing: normal; orphans: 2; text-align: center; text-indent: 0px; text-transform: none; widows: 2; word-spacing: 0px; -webkit-text-stroke-width: 0px; background-color: rgb(251, 251, 251); text-decoration-thickness: initial; text-decoration-style: initial; text-decoration-color: initial; float: none; display: inline !important;&quot;&gt;$$C(\Phi^C_{1})$$&lt;/span&gt;" style="text;whiteSpace=wrap;html=1;fontSize=12;" parent="ntlW8NFhvoEF-g6CEwiz-81" vertex="1">
          <mxGeometry x="534" y="401" width="120" height="40" as="geometry" />
        </mxCell>
        <mxCell id="ntlW8NFhvoEF-g6CEwiz-382" value="&lt;span style=&quot;color: rgb(0, 0, 0); font-family: Helvetica; font-size: 12px; font-style: normal; font-variant-ligatures: normal; font-variant-caps: normal; font-weight: 400; letter-spacing: normal; orphans: 2; text-align: center; text-indent: 0px; text-transform: none; widows: 2; word-spacing: 0px; -webkit-text-stroke-width: 0px; background-color: rgb(251, 251, 251); text-decoration-thickness: initial; text-decoration-style: initial; text-decoration-color: initial; float: none; display: inline !important;&quot;&gt;$$\Phi^C_{1}$$&lt;/span&gt;" style="text;whiteSpace=wrap;html=1;fontSize=12;" parent="ntlW8NFhvoEF-g6CEwiz-81" vertex="1">
          <mxGeometry x="495" y="370" width="120" height="40" as="geometry" />
        </mxCell>
        <mxCell id="ntlW8NFhvoEF-g6CEwiz-391" value="&lt;span style=&quot;color: rgb(0, 0, 0); font-family: Helvetica; font-size: 12px; font-style: normal; font-variant-ligatures: normal; font-variant-caps: normal; font-weight: 400; letter-spacing: normal; orphans: 2; text-align: center; text-indent: 0px; text-transform: none; widows: 2; word-spacing: 0px; -webkit-text-stroke-width: 0px; background-color: rgb(251, 251, 251); text-decoration-thickness: initial; text-decoration-style: initial; text-decoration-color: initial; float: none; display: inline !important;&quot;&gt;$$\Phi(X,\theta)$$&lt;/span&gt;" style="text;whiteSpace=wrap;html=1;fontSize=12;" parent="ntlW8NFhvoEF-g6CEwiz-81" vertex="1">
          <mxGeometry x="850" y="379" width="120" height="22" as="geometry" />
        </mxCell>
        <mxCell id="ntlW8NFhvoEF-g6CEwiz-392" value="&lt;span style=&quot;color: rgb(0, 0, 0); font-family: Helvetica; font-size: 9px; font-style: normal; font-variant-ligatures: normal; font-variant-caps: normal; font-weight: 400; letter-spacing: normal; orphans: 2; text-align: center; text-indent: 0px; text-transform: none; widows: 2; word-spacing: 0px; -webkit-text-stroke-width: 0px; background-color: rgb(251, 251, 251); text-decoration-thickness: initial; text-decoration-style: initial; text-decoration-color: initial; float: none; display: inline !important;&quot;&gt;$$\Omega_0,B_0$$&lt;/span&gt;" style="text;whiteSpace=wrap;html=1;fontSize=9;" parent="ntlW8NFhvoEF-g6CEwiz-81" vertex="1">
          <mxGeometry x="333" y="402.52" width="50" height="50" as="geometry" />
        </mxCell>
        <mxCell id="ntlW8NFhvoEF-g6CEwiz-61" value="&lt;font face=&quot;Times New Roman&quot; style=&quot;font-size: 14px;&quot;&gt;5&lt;/font&gt;" style="text;html=1;align=center;verticalAlign=middle;resizable=0;points=[];autosize=1;strokeColor=none;fillColor=none;fontSize=14;" parent="ntlW8NFhvoEF-g6CEwiz-81" vertex="1">
          <mxGeometry x="333" y="366.79" width="30" height="30" as="geometry" />
        </mxCell>
        <mxCell id="ntlW8NFhvoEF-g6CEwiz-63" value="&lt;font face=&quot;Times New Roman&quot; style=&quot;font-size: 14px;&quot;&gt;6&lt;br&gt;&lt;/font&gt;" style="text;html=1;align=center;verticalAlign=middle;resizable=0;points=[];autosize=1;strokeColor=none;fillColor=none;fontSize=14;" parent="ntlW8NFhvoEF-g6CEwiz-81" vertex="1">
          <mxGeometry x="345" y="337" width="30" height="30" as="geometry" />
        </mxCell>
        <mxCell id="ntlW8NFhvoEF-g6CEwiz-59" value="" style="shape=parallelogram;perimeter=parallelogramPerimeter;whiteSpace=wrap;html=1;fixedSize=1;rotation=90;flipV=1;size=12;fillColor=#008a00;fontColor=#ffffff;strokeColor=#005700;" parent="ntlW8NFhvoEF-g6CEwiz-81" vertex="1">
          <mxGeometry x="340" y="364.79" width="60" height="31" as="geometry" />
        </mxCell>
        <mxCell id="ntlW8NFhvoEF-g6CEwiz-264" value="" style="shape=parallelogram;perimeter=parallelogramPerimeter;whiteSpace=wrap;html=1;fixedSize=1;rotation=90;flipV=1;size=12;fillColor=#008a00;fontColor=#ffffff;strokeColor=#005700;" parent="ntlW8NFhvoEF-g6CEwiz-81" vertex="1">
          <mxGeometry x="350" y="374.79" width="60" height="31" as="geometry" />
        </mxCell>
        <mxCell id="ntlW8NFhvoEF-g6CEwiz-394" value="&lt;span style=&quot;color: rgb(0, 0, 0); font-family: Helvetica; font-size: 9px; font-style: normal; font-variant-ligatures: normal; font-variant-caps: normal; font-weight: 400; letter-spacing: normal; orphans: 2; text-align: center; text-indent: 0px; text-transform: none; widows: 2; word-spacing: 0px; -webkit-text-stroke-width: 0px; background-color: rgb(251, 251, 251); text-decoration-thickness: initial; text-decoration-style: initial; text-decoration-color: initial; float: none; display: inline !important;&quot;&gt;$$\Omega_1,B_1$$&lt;/span&gt;" style="text;whiteSpace=wrap;html=1;fontSize=9;" parent="ntlW8NFhvoEF-g6CEwiz-81" vertex="1">
          <mxGeometry x="440" y="403" width="50" height="50" as="geometry" />
        </mxCell>
        <mxCell id="ntlW8NFhvoEF-g6CEwiz-395" value="&lt;span style=&quot;color: rgb(0, 0, 0); font-family: Helvetica; font-size: 9px; font-style: normal; font-variant-ligatures: normal; font-variant-caps: normal; font-weight: 400; letter-spacing: normal; orphans: 2; text-align: center; text-indent: 0px; text-transform: none; widows: 2; word-spacing: 0px; -webkit-text-stroke-width: 0px; background-color: rgb(251, 251, 251); text-decoration-thickness: initial; text-decoration-style: initial; text-decoration-color: initial; float: none; display: inline !important;&quot;&gt;$$V_0$$&lt;/span&gt;" style="text;whiteSpace=wrap;html=1;fontSize=9;" parent="ntlW8NFhvoEF-g6CEwiz-81" vertex="1">
          <mxGeometry x="665" y="319.79" width="50" height="50" as="geometry" />
        </mxCell>
        <mxCell id="ntlW8NFhvoEF-g6CEwiz-397" value="&lt;span style=&quot;color: rgb(0, 0, 0); font-family: Helvetica; font-size: 9px; font-style: normal; font-variant-ligatures: normal; font-variant-caps: normal; font-weight: 400; letter-spacing: normal; orphans: 2; text-align: center; text-indent: 0px; text-transform: none; widows: 2; word-spacing: 0px; -webkit-text-stroke-width: 0px; background-color: rgb(251, 251, 251); text-decoration-thickness: initial; text-decoration-style: initial; text-decoration-color: initial; float: none; display: inline !important;&quot;&gt;$$V_1$$&lt;/span&gt;" style="text;whiteSpace=wrap;html=1;fontSize=9;" parent="ntlW8NFhvoEF-g6CEwiz-81" vertex="1">
          <mxGeometry x="712" y="319.79" width="50" height="50" as="geometry" />
        </mxCell>
        <mxCell id="ntlW8NFhvoEF-g6CEwiz-398" value="&lt;span style=&quot;color: rgb(0, 0, 0); font-family: Helvetica; font-size: 9px; font-style: normal; font-variant-ligatures: normal; font-variant-caps: normal; font-weight: 400; letter-spacing: normal; orphans: 2; text-align: center; text-indent: 0px; text-transform: none; widows: 2; word-spacing: 0px; -webkit-text-stroke-width: 0px; background-color: rgb(251, 251, 251); text-decoration-thickness: initial; text-decoration-style: initial; text-decoration-color: initial; float: none; display: inline !important;&quot;&gt;$$V_2$$&lt;/span&gt;" style="text;whiteSpace=wrap;html=1;fontSize=9;" parent="ntlW8NFhvoEF-g6CEwiz-81" vertex="1">
          <mxGeometry x="761" y="319.79" width="50" height="50" as="geometry" />
        </mxCell>
        <mxCell id="PvffXtldvGFclzvf1Mkj-44" style="edgeStyle=orthogonalEdgeStyle;rounded=0;orthogonalLoop=1;jettySize=auto;html=1;entryX=0;entryY=0.5;entryDx=0;entryDy=0;" parent="ntlW8NFhvoEF-g6CEwiz-81" source="ntlW8NFhvoEF-g6CEwiz-399" target="ntlW8NFhvoEF-g6CEwiz-168" edge="1">
          <mxGeometry relative="1" as="geometry" />
        </mxCell>
        <mxCell id="ntlW8NFhvoEF-g6CEwiz-399" value="" style="shape=parallelogram;perimeter=parallelogramPerimeter;whiteSpace=wrap;html=1;fixedSize=1;rotation=90;flipV=1;size=8.825358851674594;arcSize=12;movable=1;resizable=1;rotatable=1;deletable=1;editable=1;locked=0;connectable=1;fillColor=none;" parent="ntlW8NFhvoEF-g6CEwiz-81" vertex="1">
          <mxGeometry x="243" y="371" width="60" height="34" as="geometry" />
        </mxCell>
        <mxCell id="1" style="" parent="0" />
        <mxCell id="ntlW8NFhvoEF-g6CEwiz-160" value="" style="edgeStyle=orthogonalEdgeStyle;rounded=0;orthogonalLoop=1;jettySize=auto;html=1;" parent="1" source="ntlW8NFhvoEF-g6CEwiz-1" target="ntlW8NFhvoEF-g6CEwiz-399" edge="1">
          <mxGeometry relative="1" as="geometry">
            <mxPoint x="230" y="400" as="targetPoint" />
          </mxGeometry>
        </mxCell>
        <mxCell id="ntlW8NFhvoEF-g6CEwiz-1" value="&lt;font face=&quot;Times New Roman&quot;&gt;Historical Sensor&lt;br&gt;Data Queue&lt;/font&gt;" style="shape=cylinder3;whiteSpace=wrap;html=1;boundedLbl=1;backgroundOutline=1;size=15;fillColor=#dae8fc;strokeColor=#6c8ebf;" parent="1" vertex="1">
          <mxGeometry x="162" y="340.11" width="74" height="94.25" as="geometry" />
        </mxCell>
        <mxCell id="PvffXtldvGFclzvf1Mkj-5" value="" style="shape=parallelogram;perimeter=parallelogramPerimeter;whiteSpace=wrap;html=1;fixedSize=1;rotation=90;flipV=1;size=7.360000000000127;fillColor=#008a00;fontColor=#ffffff;strokeColor=#005700;" parent="1" vertex="1">
          <mxGeometry x="446.98837209302326" y="377.14" width="38.25581395348837" height="17.290000000000003" as="geometry" />
        </mxCell>
        <mxCell id="PvffXtldvGFclzvf1Mkj-3" value="" style="shape=parallelogram;perimeter=parallelogramPerimeter;whiteSpace=wrap;html=1;fixedSize=1;rotation=90;flipV=1;size=7.360000000000127;fillColor=#008a00;fontColor=#ffffff;strokeColor=#005700;" parent="1" vertex="1">
          <mxGeometry x="453.99837209302325" y="382" width="38.25581395348837" height="17.290000000000003" as="geometry" />
        </mxCell>
      </root>
    </mxGraphModel>
  </diagram>
</mxfile>
